<svg width="158" height="158" viewBox="0 0 158 158" fill="none" xmlns="http://www.w3.org/2000/svg">
<circle cx="79" cy="75" r="75" fill="#EBDBD8"/>
<mask id="mask0" mask-type="alpha" maskUnits="userSpaceOnUse" x="4" y="0" width="150" height="150">
<circle cx="79" cy="75" r="75" fill="#EBDBD8"/>
</mask>
<g mask="url(#mask0)">
<path d="M-28.8366 147.34C-28.9694 147.666 -29.0957 147.992 -29.2286 148.311C-29.5209 148.148 -29.7734 148.014 -30.0724 147.843C-30.1256 148.538 -30.1256 148.538 -29.6472 148.581C-29.4611 148.9 -29.2817 149.197 -29.0957 149.516C-29.295 149.7 -29.5143 149.906 -29.7734 150.147C-29.614 150.381 -29.4678 150.586 -29.2618 150.891C-29.6073 150.927 -29.8997 150.955 -30.2252 150.983C-30.192 151.472 -29.8731 151.649 -29.501 151.798C-29.6206 152.429 -29.4412 153.081 -29.9462 153.606C-30.1455 153.811 -30.0591 153.981 -29.7203 154.47C-30.1787 154.86 -30.2651 155.406 -30.2319 156.008C-30.2252 156.157 -30.2784 156.32 -30.3249 156.469C-30.4578 156.915 -30.5508 157.383 -30.7369 157.801C-31.0624 158.538 -31.4345 159.254 -31.8199 159.956C-31.893 160.091 -32.1056 160.211 -32.2584 160.218C-32.883 160.268 -33.3149 160.707 -33.8332 160.984C-34.2451 161.196 -34.677 161.423 -35.1621 161.104C-35.2684 161.26 -35.3415 161.437 -35.4677 161.551C-35.6338 161.699 -35.873 161.735 -35.9594 161.466C-36.1388 160.906 -36.4843 161.083 -36.79 161.239C-37.1687 161.43 -37.5142 161.543 -37.9195 161.302C-38.0126 161.246 -38.1986 161.295 -38.3248 161.352C-39.3082 161.82 -39.7002 161.657 -40.0657 160.608C-40.0856 160.558 -40.1122 160.516 -40.1388 160.466C-40.2517 160.523 -40.358 160.58 -40.5109 160.665C-40.584 160.587 -40.6438 160.452 -40.7368 160.417C-41.275 160.183 -41.4477 159.743 -41.4278 159.155C-41.4212 158.999 -41.4477 158.829 -41.5075 158.687C-42.0192 157.532 -41.9195 156.377 -41.574 155.207C-41.4942 154.931 -41.481 154.633 -41.461 154.35C-41.3481 152.925 -41.3614 151.472 -41.1089 150.076C-40.9029 148.928 -40.8564 147.751 -40.5773 146.639C-40.2384 145.306 -40.1321 143.938 -39.8796 142.599C-39.6803 141.536 -39.4411 140.48 -39.2351 139.417C-39.182 139.133 -39.1953 138.828 -39.1488 138.545C-39.0757 138.162 -38.9694 137.786 -38.883 137.411C-38.8298 137.184 -38.77 136.95 -38.7434 136.716C-38.6305 135.83 -38.5242 134.951 -38.1787 134.108C-38.0059 133.69 -38.079 133.165 -37.9926 132.698C-37.8199 131.798 -37.6139 130.905 -37.4278 130.012C-37.1953 128.913 -36.9827 127.807 -36.7435 126.709C-36.5906 125.993 -36.4046 125.284 -36.2385 124.568C-36.1654 124.235 -36.1056 123.895 -36.0391 123.562C-36.0192 123.456 -36.0524 123.321 -36.0059 123.25C-35.4877 122.485 -35.5209 121.556 -35.2684 120.72C-35.1023 120.174 -34.9827 119.628 -34.8631 119.076C-34.5774 117.807 -34.1853 116.567 -34.0192 115.256C-33.9528 114.752 -33.4677 114.313 -33.1488 113.803C-33.5674 113.399 -33.4212 112.874 -33.2485 112.35C-33.1488 112.059 -32.996 111.783 -32.9428 111.485C-32.8432 110.925 -32.8432 110.344 -32.491 109.848C-32.3515 109.649 -32.3315 109.352 -32.2917 109.089C-32.2119 108.6 -32.2252 108.097 -31.8664 107.7C-31.7933 107.622 -31.8 107.452 -31.7734 107.318C-31.4678 105.468 -30.7568 103.738 -30.285 101.938C-30.0259 100.96 -29.7601 99.975 -29.4611 99.0041C-29.0691 97.7283 -28.6572 96.4668 -28.2386 95.2052C-27.9263 94.2697 -27.5808 93.3412 -27.2618 92.4057C-27.1688 92.1364 -27.1223 91.8387 -27.0758 91.5552C-27.016 91.2008 -27.0758 90.8039 -26.6904 90.5913C-26.6107 90.5417 -26.5907 90.3574 -26.5509 90.2298C-26.3249 89.4573 -26.119 88.6848 -25.8731 87.9193C-25.5476 86.9271 -25.1887 85.949 -24.8565 84.9639C-24.7502 84.645 -24.7037 84.2976 -24.604 83.9716C-24.2917 82.9865 -23.9861 81.9943 -23.6339 81.0233C-23.1489 79.6767 -22.5841 78.3584 -22.1323 76.9976C-21.8266 76.0833 -21.3881 75.2328 -21.1821 74.2618C-21.0426 73.624 -20.6772 73.0287 -20.4712 72.3766C-20.232 71.6324 -19.8665 70.9379 -19.5808 70.215C-19.0493 68.8825 -18.5709 67.5288 -17.9928 66.2247C-17.6406 65.4239 -17.4612 64.545 -16.9961 63.7867C-16.7304 63.3543 -16.6373 62.8086 -16.4313 62.3266C-16.1722 61.7313 -15.8799 61.1572 -15.6008 60.576C-15.5875 60.5548 -15.5742 60.5264 -15.5676 60.5052C-15.4413 59.1373 -14.5045 58.1238 -14.1789 56.8197C-13.9596 55.948 -13.4613 55.1471 -13.0958 54.3179C-12.7835 53.602 -12.4779 52.8862 -12.159 52.1704C-11.8732 51.5325 -11.5676 50.9017 -11.2753 50.2638C-11.2088 50.1221 -11.1756 49.9662 -11.1291 49.8173C-11.0759 49.6401 -11.0759 49.4134 -10.9696 49.2929C-10.3317 48.5629 -10.3317 47.521 -9.81347 46.7201C-9.355 46.0043 -9.13573 45.1467 -8.83009 44.3388C-8.42478 43.2615 -7.84671 42.2622 -7.36166 41.2132C-6.81018 40.0155 -6.29855 38.7964 -5.74706 37.5986C-5.44142 36.9324 -5.08926 36.2945 -4.75703 35.6425C-4.72381 35.5716 -4.66401 35.5149 -4.64408 35.4441C-4.3185 34.1612 -3.6009 33.0697 -3.04277 31.9145C-2.73712 31.2766 -2.53114 30.5679 -2.03945 29.9938C-1.61421 29.4977 -1.45474 28.7464 -1.17567 28.1085C-0.723846 27.088 -0.298607 26.0532 0.18644 25.0539C0.445576 24.5152 0.91069 24.0758 1.10338 23.523C1.32929 22.871 1.6748 22.3111 1.99373 21.7228C2.30602 21.1346 2.58509 20.525 2.87745 19.9297C3.01034 19.6462 3.12994 19.3556 3.27612 19.0792C3.36249 18.9091 3.48209 18.7603 3.58841 18.6043C3.67478 18.4768 3.78774 18.3633 3.84754 18.2287C4.31265 17.1089 4.85749 16.0316 5.52194 15.0323C5.56181 14.9685 5.60832 14.8976 5.64154 14.8267C5.94719 14.1889 6.2329 13.5297 6.57177 12.9131C7.30265 11.5736 8.0867 10.2624 8.79102 8.90874C9.18969 8.1433 9.75446 7.48415 10.1066 6.7258C10.5518 5.769 11.1365 4.91852 11.6149 3.99716C12.1199 3.02618 12.7378 2.13314 13.2694 1.18343C13.8541 0.134491 14.3126 -1.01365 14.9969 -1.98463C15.5949 -2.83512 16.0468 -3.77776 16.6581 -4.61408C17.07 -5.18107 17.3225 -5.88271 17.8474 -6.36465C17.9471 -6.45679 17.9803 -6.64818 18.0202 -6.79702C18.0999 -7.08051 18.2527 -7.27893 18.4654 -7.47738C18.7444 -7.73253 18.9371 -8.1082 19.1497 -8.44131C19.555 -9.065 19.9404 -9.69576 20.3391 -10.3194C20.6912 -10.8723 21.0301 -11.4393 21.4022 -11.9708C22.1331 -13.0198 22.6181 -14.26 23.5749 -15.1389C23.648 -15.2027 23.6879 -15.3161 23.7211 -15.4082C23.9802 -16.0815 24.4587 -16.5847 24.8905 -17.1305C25.462 -17.8534 25.9337 -18.6614 26.4586 -19.4197C26.7178 -19.7954 26.9968 -20.1497 27.2626 -20.5183C27.5683 -20.9435 27.854 -21.3829 28.1596 -21.8011C28.5716 -22.361 28.9304 -22.9563 29.5084 -23.3816C29.7742 -23.58 29.854 -24.062 30.2925 -24.1045C30.525 -24.6502 31.0632 -24.6219 31.4818 -24.7778C32.0865 -24.9975 32.6513 -24.9337 33.0632 -24.2888C33.1562 -24.147 33.3822 -24.0762 33.5549 -24.0336C34.0134 -23.9132 34.4718 -23.8139 34.6845 -23.2753C34.7044 -23.2257 34.7443 -23.1831 34.7841 -23.1548C35.4818 -22.7153 35.9336 -22.0562 36.3522 -21.3262C36.4918 -21.0782 36.6114 -20.8584 36.6845 -20.582C36.8439 -19.9512 37.2359 -19.2992 37.1695 -18.7039C37.0765 -17.8817 37.1496 -17.0596 37.03 -16.2445C36.8904 -15.3302 36.824 -14.3947 36.7642 -13.4734C36.6977 -12.4953 36.6579 -11.5172 36.6313 -10.5321C36.6047 -9.41934 36.6313 -8.30662 36.2924 -7.22225C36.1728 -6.83244 36.2326 -6.37886 36.2127 -5.95361C36.0466 -2.45243 36.0067 1.07004 35.6878 4.55705C35.4154 7.54794 35.3556 10.5459 35.1031 13.5368C34.9569 15.259 34.8107 16.9742 34.6778 18.6965C34.6446 19.143 34.6645 19.5966 34.638 20.0501C34.5782 21.2054 34.6313 22.3678 34.2924 23.4947C34.2194 23.7427 34.226 24.012 34.2127 24.2814C34.1131 26.5352 34.0134 28.7889 33.9137 31.0427C33.9004 31.2766 33.9071 31.5389 33.814 31.7444C33.4752 32.524 33.5483 33.3532 33.4951 34.1754C33.3822 36.0323 33.2891 37.8821 33.143 39.739C32.9968 41.6455 32.8041 43.545 32.6114 45.4444C32.4852 46.706 32.3323 47.9604 32.1994 49.222C32.1662 49.5339 32.1928 49.8457 32.1928 50.3347C32.4254 50.1363 32.5848 50.0441 32.6845 49.9095C33.1828 49.1866 33.6014 48.3786 34.1662 47.7265C34.8572 46.9257 35.5084 46.0964 36.113 45.2247C36.4652 44.7215 36.9569 44.3104 37.2293 43.7647C37.608 43.0063 38.1795 42.4393 38.6446 41.7731C39.0499 41.1919 39.3555 40.4761 39.8804 40.065C40.412 39.6469 40.5382 38.9878 40.9967 38.5554C41.4485 38.1231 41.8007 37.5632 42.1661 37.0387C42.5449 36.493 42.8704 35.9118 43.2492 35.3661C43.7874 34.5936 44.3322 33.8281 44.9037 33.0768C45.9668 31.6735 47.103 30.3198 48.093 28.8598C48.5581 28.1723 49.1162 27.5557 49.5216 26.8186C49.7607 26.3934 50.0797 26.0249 50.3787 25.6421C50.7508 25.146 51.176 24.7066 51.5215 24.175C52.0265 23.3954 52.6777 22.7292 53.2491 21.9992C53.5614 21.6094 53.8272 21.1771 54.1328 20.7873C54.3321 20.525 54.5713 20.3053 54.784 20.0501C55.5614 19.1217 56.2258 18.1011 57.0231 17.1797C57.6477 16.4568 58.2657 15.6914 58.8105 14.8763C59.0364 14.5432 59.2956 14.2314 59.5414 13.9196C59.9068 13.4589 60.2524 12.9698 60.6577 12.5517C61.2424 11.9351 61.6543 11.1767 62.239 10.5601C62.5978 10.1845 62.8238 9.67418 63.1493 9.26311C63.4218 8.91582 63.7673 8.63943 64.053 8.29923C64.558 7.70389 65.0164 7.06598 65.5413 6.4919C66.1393 5.83277 66.5912 5.06026 67.1161 4.33734C67.5745 3.70656 68.1725 3.19626 68.6775 2.60801C69.0363 2.18985 69.3287 1.70789 69.6676 1.26847C69.847 1.0275 70.0529 0.807806 70.2523 0.573921C71.0363 -0.368706 71.7606 -1.36093 72.611 -2.24686C73.1692 -2.82803 73.5678 -3.57931 74.1193 -4.16757C74.5313 -4.61407 74.8768 -5.13146 75.2755 -5.58505C75.7207 -6.08826 76.1525 -6.64107 76.5911 -7.17263C77.1226 -7.8105 77.6608 -8.4342 78.1791 -9.08624C78.7372 -9.7879 79.4216 -10.3691 79.9266 -11.1345C80.1724 -11.5172 80.5312 -11.8149 80.8236 -12.1693C81.1691 -12.5945 81.488 -13.041 81.8203 -13.4805C81.8535 -13.523 81.8734 -13.6009 81.9066 -13.608C82.5046 -13.7143 82.5312 -14.4302 82.9698 -14.7278C83.4016 -15.0184 83.8335 -15.4082 84.086 -15.8689C84.5046 -16.6344 85.2488 -17.0313 85.6873 -17.7754C86.0196 -18.3424 86.6109 -18.7322 87.0561 -19.2354C87.6807 -19.93 88.3518 -20.5679 88.9298 -21.312C89.6275 -22.198 90.4448 -22.9705 91.2089 -23.7997C91.9066 -24.5581 92.684 -25.2243 93.3617 -26.011C94.2587 -27.0458 95.2554 -27.9884 96.2055 -28.9806C96.5776 -29.3705 96.9098 -29.8099 97.3019 -30.1855C97.7337 -30.6037 98.2454 -30.8659 98.8633 -30.8163C99.1756 -30.7879 99.3284 -30.6178 99.2819 -30.2989C99.2288 -29.9658 99.2155 -29.6185 98.9032 -29.3846C98.7371 -29.2571 98.6374 -29.0232 98.4115 -28.6971C99.2886 -28.7184 99.5875 -29.5618 100.285 -29.6823C100.378 -29.6185 100.518 -29.5264 100.697 -29.4059C100.651 -29.1862 100.611 -28.9665 100.558 -28.7113C100.671 -28.6901 100.764 -28.6546 100.85 -28.6546C101.501 -28.7042 101.647 -28.4916 101.428 -27.8466C101.382 -27.7049 101.362 -27.5561 101.322 -27.3718C101.647 -27.3009 101.926 -27.2371 102.232 -27.1663C102.405 -26.2662 102.398 -25.4724 101.86 -24.6715C101.282 -23.8068 100.93 -22.772 100.332 -21.9216C99.9862 -21.4254 99.8866 -20.8018 99.4281 -20.3482C99.0427 -19.9654 98.9165 -19.2992 98.6241 -18.7889C98.2587 -18.144 97.8866 -17.5061 97.5078 -16.8753C97.1955 -16.3508 96.9165 -15.7555 96.6175 -15.1956C96.2454 -14.5152 95.8866 -13.8348 95.5344 -13.1473C95.1956 -12.4882 94.8833 -11.8078 94.5311 -11.1558C94.252 -10.6455 93.9198 -10.1706 93.6275 -9.67451C93.3551 -9.20674 93.1092 -8.72479 92.8567 -8.24993C92.6042 -7.77507 92.3584 -7.29312 92.1059 -6.82535C91.5278 -5.77641 90.9365 -4.72746 90.3717 -3.67144C90.0793 -3.12571 89.8268 -2.55164 89.5411 -1.99882C88.9232 -0.801043 88.3916 0.446333 87.7206 1.62284C87.375 2.23236 87.1093 2.93404 86.8103 3.59317C86.5976 4.05385 86.3784 4.51454 86.1458 4.96813C85.9066 5.45008 85.674 5.92492 85.5146 6.45647C85.3551 6.98803 85.0362 7.46999 84.7903 7.97319C84.4847 8.59689 84.1658 9.2135 83.8734 9.83719C83.4548 10.7231 82.9232 11.5878 82.6641 12.5233C82.4448 13.3171 81.9997 13.9621 81.7472 14.7204C81.4615 15.6064 80.9698 16.4143 80.6907 17.3002C80.4116 18.172 79.8136 18.8949 79.7273 19.8446C79.714 19.9864 79.6077 20.121 79.5346 20.2486C79.4482 20.4045 79.3153 20.5392 79.2622 20.7022C78.91 21.9 78.3718 23.0127 77.9266 24.1679C77.6542 24.8696 77.3419 25.55 77.0496 26.2445C76.9964 26.365 76.9366 26.4855 76.9166 26.6131C76.7173 27.6975 76.1393 28.633 75.8602 29.6962C75.6741 30.4049 75.2821 31.0428 74.9765 31.7161C74.9366 31.8082 74.8436 31.8933 74.8436 31.9854C74.8104 32.8146 74.3386 33.4737 74.1393 34.2321C73.8336 35.3944 73.3552 36.4788 72.9499 37.5986C72.8104 37.9884 72.8037 38.442 72.6642 38.8318C72.3718 39.6965 71.9466 40.5257 71.734 41.4117C71.4616 42.5315 70.8503 43.5237 70.744 44.7073C70.7107 45.0688 70.4383 45.4019 70.332 45.7704C70.0396 46.7485 69.9001 47.7974 69.4749 48.6905C69.1028 49.4701 69.0164 50.2922 68.7705 51.086C68.2191 52.8933 67.6211 54.6793 67.0961 56.4937C66.7573 57.6702 66.5247 58.8822 66.2124 60.0658C65.9334 61.1289 65.6078 62.1849 65.3021 63.2409C65.2888 63.2905 65.2291 63.326 65.2224 63.3756C65.0962 64.0489 65.1161 64.8072 64.8038 65.3671C64.4716 65.9767 64.4118 66.6003 64.2523 67.2311C64.1061 67.8052 63.9201 68.3722 63.8005 68.9534C63.6743 69.5416 63.6676 70.1653 63.2556 70.6615C63.1826 70.7465 63.1693 70.9095 63.1693 71.0442C63.1427 72.6034 62.4517 74.0067 62.2125 75.5234C61.9866 76.9763 61.5148 78.3867 61.1959 79.8255C60.9168 81.08 60.7175 82.3486 60.4583 83.6031C60.3919 83.9291 60.2324 84.241 60.1261 84.5599C60.0796 84.7087 60.0264 84.8647 60.0264 85.0135C60.0331 86.1191 59.7075 87.1539 59.4617 88.2099C59.362 88.6494 59.2889 89.0888 59.1959 89.5282C58.8504 91.2079 58.6311 92.9159 58.3122 94.5957C58.0929 95.758 58.0929 96.9912 57.6876 98.0827C57.2358 99.2876 57.3687 100.535 57.1228 101.747C57.0099 102.314 56.8836 102.881 56.784 103.448C56.6444 104.284 56.5248 105.121 56.3986 105.957C56.166 107.523 55.9202 109.089 55.7142 110.663C55.5281 112.109 55.382 113.562 55.2358 115.015C55.1826 115.511 55.2159 116.007 54.9634 116.475C54.8504 116.68 54.8969 116.992 54.877 117.261C54.764 118.906 54.7973 120.578 54.5182 122.187C53.9069 125.667 54.1594 129.175 53.98 132.669C53.8272 135.724 53.8205 138.779 53.7474 141.833C53.7474 141.89 53.7674 141.954 53.7408 141.989C53.3886 142.613 53.6943 143.265 53.6743 143.903C53.6544 144.527 53.8537 145.157 53.8936 145.788C54.0066 147.454 54.0863 149.126 54.1727 150.792C54.1793 150.948 54.1262 151.125 54.1727 151.267C54.7175 152.89 54.6976 154.591 54.8371 156.27C54.9567 157.738 55.2624 159.169 55.568 160.601C55.7208 161.331 56.0996 162.011 56.3587 162.72C56.5115 163.138 56.6245 163.57 56.7441 164.003C56.9899 164.882 57.3288 165.704 57.8072 166.469C58.2391 167.157 57.8736 167.738 57.0032 167.851C56.5913 167.901 56.1727 167.943 55.6876 168C55.5879 167.865 55.4351 167.667 55.2889 167.461C54.9169 166.923 54.7308 166.916 54.2723 167.426C54.2192 167.483 54.1527 167.518 54.0797 167.575C53.9933 167.532 53.867 167.511 53.8272 167.433C53.5813 167.022 53.2425 166.958 52.8704 167.157C52.6179 167.291 52.4053 167.235 52.279 167.029C51.9933 166.561 51.5282 166.476 51.0431 166.299C51.0298 166.058 51.0099 165.803 50.99 165.484C50.485 165.328 50.2325 164.882 49.9402 164.414C49.4551 163.627 49.1428 162.72 48.4784 162.061C48.3986 161.983 48.3721 161.827 48.3654 161.699C48.3256 161.097 48.1594 160.558 47.9535 159.991C47.5548 158.9 47.3156 157.738 47.0033 156.611C46.8704 156.129 46.6445 155.668 46.5847 155.179C46.4983 154.477 46.2525 153.839 46.1063 153.166C45.887 152.174 45.6943 151.153 45.6611 150.133C45.6146 148.765 45.5415 147.404 45.3156 146.057C45.2425 145.618 45.2558 145.164 45.2027 144.718C45.1694 144.413 45.0631 144.115 45.0299 143.811C45.0033 143.549 45.0698 143.272 45.0432 143.01C44.99 142.471 44.8704 141.94 44.8306 141.401C44.7774 140.692 44.7575 139.976 44.7575 139.268C44.7575 139.112 44.8837 138.949 44.9635 138.793C45.2027 138.332 45.0432 137.673 44.5382 137.276C44.9369 136.943 44.8837 136.475 44.8439 136.015C44.7973 135.469 44.7309 134.916 44.7375 134.37C44.7841 131.5 44.8372 128.63 44.9236 125.759C45.01 122.782 45.1296 119.813 45.2425 116.836C45.2492 116.73 45.2292 116.609 45.2691 116.517C45.7608 115.298 45.5747 114.001 45.6545 112.74C45.7409 111.45 45.8737 110.174 46.1661 108.905C46.3521 108.118 46.299 107.268 46.3588 106.446C46.4452 105.206 46.5382 103.972 46.7641 102.739C47.0099 101.393 47.0166 99.9963 47.1561 98.6214C47.2624 97.6008 47.402 96.5802 47.5481 95.5596C47.7674 94.0216 48.0199 92.4836 48.2392 90.9457C48.3056 90.4779 48.3189 89.9959 48.3388 89.514C48.3588 89.0604 48.4385 88.6493 48.6378 88.2241C48.8505 87.7705 48.8704 87.2035 48.9435 86.6861C49.0099 86.2113 49.0299 85.7364 49.0697 85.2615C49.0764 85.1552 49.0498 85.0347 49.0963 84.9426C49.6412 83.8582 49.4152 82.6179 49.7076 81.4839C49.9601 80.4917 50.0531 79.4498 50.3455 78.4718C50.7109 77.2457 50.8504 75.977 51.0896 74.7296C51.3488 73.4043 51.4019 72.008 52.0265 70.7607C52.2524 70.3141 52.186 69.7188 52.3322 69.2156C52.5846 68.3226 52.9102 67.4508 53.1827 66.5578C53.269 66.2814 53.2624 65.9767 53.3421 65.7074C53.5614 64.9632 53.8072 64.2331 54.0265 63.496C54.0929 63.2692 54.1195 63.0354 54.1461 62.7944C54.186 62.4542 54.1926 62.114 54.4584 61.8518C54.5514 61.7526 54.578 61.5683 54.6179 61.4194C54.9235 60.3492 55.1959 59.272 55.5281 58.216C56.0331 56.6071 56.5979 55.0124 57.0896 53.4036C57.2557 52.8578 57.1494 52.1704 57.4152 51.7097C57.7075 51.1994 57.8603 50.6891 58.0132 50.1434C58.3321 49.0306 58.764 47.9463 59.0298 46.8265C59.2889 45.7279 59.9334 44.764 60.0198 43.6017C60.0331 43.4599 60.1195 43.3182 60.1859 43.1835C60.2789 42.9992 60.4052 42.8291 60.4716 42.6378C60.7175 41.8794 60.9301 41.114 61.1759 40.3556C61.4484 39.5051 61.7208 38.6546 62.0264 37.8183C62.3188 37.0245 62.7042 36.2591 62.9633 35.4511C63.1693 34.8062 63.2556 34.1329 63.6809 33.573C63.7938 33.4312 63.7473 33.1619 63.8071 32.9635C63.8802 32.7296 64.0065 32.5098 64.0929 32.276C64.1527 32.1129 64.2191 31.9358 64.2324 31.7657C64.2722 31.2058 64.3985 30.6954 64.8237 30.3198C64.857 30.2915 64.9035 30.2348 64.9035 30.1922C64.8968 29.2851 65.5081 28.6118 65.7075 27.7684C65.9599 26.6982 66.2988 25.6563 66.6111 24.6003C67.0164 23.2466 67.4151 21.8929 67.847 20.5463C68.0131 20.0289 68.2722 19.5469 68.4649 19.0367C68.631 18.5972 68.837 18.1578 68.8835 17.7042C68.9433 17.1585 69.1825 16.7261 69.4217 16.2796C69.6476 15.8544 69.548 15.2874 69.9732 14.933C70.0795 14.8409 70.0596 14.5857 70.126 14.4156C70.2456 14.1038 70.4051 13.8061 70.5247 13.4943C70.6443 13.1824 70.7307 12.8564 70.8303 12.5304C70.93 12.2469 71.0297 11.9705 71.1825 11.5452C70.7572 11.8996 70.724 12.1973 70.8436 12.5446C70.6509 12.3816 70.4782 12.4099 70.3253 12.6013C70.1327 12.8351 69.9067 13.0549 69.7739 13.3242C69.2955 14.3306 68.5247 15.089 67.8735 15.9465C67.3154 16.6978 66.8769 17.5483 66.3785 18.3492C66.146 18.7248 65.8869 19.0792 65.6277 19.4335C65.0962 20.1636 64.5247 20.8581 64.146 21.7086C64.0397 21.9496 63.7739 22.1055 63.6145 22.3323C63.043 23.1261 62.4782 23.927 61.9268 24.742C61.4749 25.4153 61.043 26.1099 60.5979 26.7832C60.1062 27.5274 59.5946 28.2574 59.0962 28.9945C58.9235 29.2496 58.7507 29.5048 58.5647 29.7457C58.1527 30.3056 57.8338 30.9293 57.3952 31.4751C56.6378 32.4248 56.0331 33.5092 55.3554 34.5297C54.4119 35.9614 53.4551 37.386 52.5116 38.8177C52.3853 39.009 52.279 39.2146 52.166 39.4201C52.1395 39.4626 52.1461 39.5477 52.1195 39.5689C51.5215 39.9304 51.4152 40.6604 51.0365 41.1919C50.4784 41.9786 49.9867 42.815 49.4551 43.63C49.1628 44.0765 48.8637 44.5159 48.5648 44.9554C48.505 45.0404 48.3986 45.1042 48.3721 45.1964C48.0731 46.2099 47.2691 46.8619 46.7641 47.7336C46.598 48.0242 46.4784 48.3431 46.299 48.6196C46.0465 49.0164 45.7342 49.3779 45.4884 49.7819C44.9302 50.7033 44.392 51.6459 43.8472 52.5814C43.4884 53.191 43.2093 53.8713 42.6578 54.3391C42.618 54.3675 42.5781 54.4171 42.5648 54.4596C42.3322 55.6857 41.3422 56.3944 40.824 57.4292C40.3456 58.3931 39.8074 59.3216 39.2492 60.2358C38.7442 61.0651 38.1861 61.8518 37.6479 62.6597C37.5881 62.7448 37.5349 62.8369 37.5017 62.9291C37.2559 63.6449 36.7642 64.1765 36.3389 64.7647C36.133 65.0482 36.0466 65.4238 35.8605 65.7286C35.3556 66.5578 34.8174 67.3587 34.319 68.188C34.0067 68.7053 33.7675 69.2794 33.442 69.7826C33.0366 70.4063 32.5715 70.9875 32.1264 71.5828C31.5948 72.3057 31.03 73.0003 30.339 73.5319C29.8938 73.8721 29.442 74.432 28.7576 73.9926C28.6978 73.9571 28.5782 74.0209 28.4852 74.0492C27.5284 74.3682 27.1962 74.1697 26.9304 73.1208C26.9105 73.0499 26.8639 72.9861 26.7975 72.8586C26.5184 72.9082 26.2327 72.972 25.947 73.0145C25.7012 73.057 25.4487 73.1208 25.2095 73.0995C24.5716 73.0428 24.1929 72.8798 24.4919 72.1215C24.5384 72.0081 24.5184 71.8663 24.5317 71.6679C24.1065 71.838 23.7411 71.9868 23.3822 72.1286C22.6314 72.4262 22.0135 72.2561 21.4022 71.6821C20.8839 71.193 20.7776 70.6189 20.7643 69.974C20.751 69.4282 20.7776 69.4283 20.2594 69.3361C20.1331 69.3149 20.0135 69.2865 19.8873 69.2865C19.5218 69.2936 19.3291 69.0455 19.2295 68.7408C19.0501 68.2234 18.8441 67.6989 18.7843 67.1532C18.6979 66.3098 18.678 65.4593 18.9437 64.6301C19.0368 64.3324 19.1231 64.0064 19.1165 63.7016C19.0899 61.4903 19.4155 59.3074 19.6481 57.1174C19.8474 55.225 20.1464 53.3398 20.3989 51.4545C20.4255 51.2702 20.4587 51.086 20.4853 50.9017C20.6713 49.5409 20.864 48.1801 21.0301 46.8123C21.1829 45.5507 21.2892 44.2821 21.4221 43.0134C21.4421 42.8291 21.4354 42.6236 21.5218 42.4748C21.8673 41.844 21.7876 41.1423 21.874 40.4619C22.0401 39.1507 22.2726 37.8467 22.4653 36.5426C22.5384 36.0748 22.5849 35.6 22.658 35.1251C22.8972 33.5588 23.05 31.9641 23.4155 30.4332C23.7411 29.0795 23.761 27.7046 23.9404 26.3438C24.0268 25.6988 24.2394 25.068 24.3656 24.4302C24.4454 24.0191 24.4919 23.5939 24.5384 23.1757C24.5915 22.6583 24.4852 22.1126 24.864 21.6661C24.9503 21.5669 24.937 21.3613 24.957 21.2054C25.0699 20.2344 25.0434 19.2138 25.3158 18.2925C25.7211 16.9033 25.5749 15.4504 25.9071 14.0755C26.246 12.6863 26.3523 11.2618 26.5517 9.85138C26.844 7.78185 27.2427 5.73356 27.5815 3.67112C27.6613 3.20335 27.648 2.72139 27.6879 2.23945C27.7344 1.69372 27.648 1.11963 28.0267 0.644777C28.1065 0.545553 28.0865 0.340044 28.0998 0.184122C28.2327 -1.07744 28.339 -2.34612 28.5051 -3.60768C28.7576 -5.52128 29.05 -7.42071 29.3423 -9.44771C28.6912 -9.04372 28.4586 -8.42712 28.1397 -7.90265C27.8473 -7.41362 27.6148 -6.88205 27.3224 -6.38593C26.7776 -5.44331 26.2593 -4.46523 25.6281 -3.58639C25.2759 -3.09736 25.0434 -2.53747 24.6779 -2.05553C24.3723 -1.65155 24.1929 -1.13417 23.9005 -0.687662C23.2693 0.276228 22.7444 1.33229 22.1929 2.35997C21.8009 3.09706 21.5019 3.8979 21.0434 4.58538C20.6846 5.10985 20.5118 5.74065 20.0866 6.23677C19.6813 6.70454 19.4753 7.36367 19.163 7.92358C18.8441 8.49766 18.4454 9.02919 18.1996 9.63163C17.967 10.2199 17.6348 10.7302 17.3491 11.2759C16.9371 12.0555 16.5916 12.8635 16.2129 13.6573C15.9604 14.1818 15.7544 14.7417 15.4488 15.2236C14.771 16.2867 14.3126 17.4704 13.7146 18.576C13.3491 19.2493 13.1498 20.0218 12.771 20.6809C12.2262 21.6377 11.801 22.6512 11.3093 23.6364C10.7378 24.7633 10.2129 25.9256 9.66144 27.0667C9.58171 27.2297 9.46211 27.3644 9.3558 27.5132C9.26942 27.6408 9.14317 27.7471 9.10331 27.8888C8.66477 29.3205 7.91395 30.5892 7.29601 31.9358C6.9505 32.6941 6.55848 33.4525 6.2927 34.2604C6.02692 35.0613 5.60168 35.7913 5.28275 36.5709C4.93723 37.4143 4.64487 38.2861 4.30601 39.1366C4.11332 39.6185 3.90734 40.0934 3.6615 40.5399C2.97712 41.7944 2.58509 43.1906 1.94722 44.4592C1.4954 45.3593 1.316 46.387 0.744579 47.2375C0.492088 47.6061 0.345909 48.0667 0.18644 48.4991C-0.139137 49.385 -0.438137 50.278 -0.750427 51.164C-1.0162 51.9223 -1.16238 52.7586 -1.5677 53.4177C-1.87999 53.9351 -1.87334 54.5163 -2.15905 55.0053C-2.69725 55.9125 -2.85672 56.9898 -3.33512 57.9324C-3.64741 58.549 -3.8999 59.2011 -4.15239 59.846C-4.33179 60.3067 -4.46468 60.7816 -4.61086 61.2564C-4.65073 61.384 -4.63079 61.547 -4.70388 61.6391C-5.32846 62.4329 -5.44806 63.4536 -5.80021 64.3678C-6.12579 65.2183 -6.50453 66.0405 -6.82346 66.891C-7.18226 67.8336 -7.52113 68.7904 -7.84671 69.7543C-8.02611 70.2716 -8.16564 70.7961 -8.31846 71.3206C-8.42477 71.6821 -8.36498 72.1073 -8.76365 72.3624C-8.8766 72.4333 -8.86331 72.7523 -8.89653 72.9578C-8.98291 73.5531 -9.13573 74.113 -9.49454 74.6092C-9.63407 74.8005 -9.68723 75.1053 -9.68723 75.3604C-9.70052 76.0834 -9.91314 76.7566 -10.1125 77.4299C-10.1789 77.6497 -10.2454 77.8694 -10.3317 78.1387C-10.7769 78.2804 -10.9762 78.5356 -11.0228 79.1805C-11.1025 80.3216 -11.3284 81.4769 -11.8467 82.5187C-11.8666 82.384 -11.8932 82.2565 -11.9397 82.0013C-12.1789 82.3699 -12.0526 82.4549 -11.8267 82.4975C-11.8267 82.6747 -11.7869 82.8731 -11.8467 83.029C-12.0194 83.5039 -12.2321 83.9575 -12.4314 84.4252C-12.4513 84.248 -12.3782 84.0142 -12.6374 83.9362C-12.7703 84.241 -12.6374 84.3543 -12.4115 84.411C-12.438 84.5882 -12.4713 84.7725 -12.4978 84.9497C-12.5443 84.9851 -12.5909 85.0206 -12.6307 85.0631C-12.6972 84.9072 -12.7636 84.7584 -12.8234 84.6166C-13.2287 84.7867 -13.0958 85.0276 -12.9696 85.2048C-12.7038 85.5734 -12.7304 85.9207 -12.9563 86.3247C-13.0892 86.2538 -13.1955 86.2042 -13.3616 86.1191C-13.4879 86.353 -13.6473 86.5869 -13.7337 86.842C-13.8201 87.1043 -13.8467 87.3949 -13.8732 87.6713C-13.8865 87.7847 -13.8666 87.9193 -13.8267 88.0257C-13.7736 88.1816 -13.5942 88.3517 -13.6274 88.458C-13.6805 88.6352 -13.8533 88.784 -13.9995 88.9116C-14.0593 88.9683 -14.1789 88.9541 -14.2785 88.9682C-14.1922 89.2305 -14.1124 89.4715 -13.9928 89.8471C-14.2387 89.7054 -14.3516 89.6416 -14.5177 89.5423C-14.5643 89.7479 -14.5842 89.9251 -14.6307 90.0881C-14.7503 90.4637 -14.8234 90.8677 -15.0161 91.1937C-15.335 91.7253 -15.3948 91.8032 -15.2686 92.5758C-15.1224 92.4978 -14.9895 92.4269 -14.8167 92.3419C-14.8832 92.6892 -14.9496 93.0223 -15.0294 93.4121C-15.5277 93.3412 -15.747 93.7239 -15.953 94.0996C-16.0194 94.2201 -16.0659 94.3972 -16.0327 94.5177C-15.9064 95.0067 -16.0991 95.3186 -16.6174 95.6234C-16.3383 95.7509 -16.1656 95.8289 -15.9995 95.9069C-16.0526 96.24 -16.0858 96.6581 -16.1921 97.0621C-16.3583 97.6929 -16.5244 98.3308 -16.7835 98.9261C-16.9696 99.3584 -17.0094 99.7128 -16.7237 100.131C-17.5676 101.017 -17.521 102.25 -17.9064 103.313C-18.0393 103.675 -18.1124 104.064 -18.2652 104.412C-18.6041 105.184 -18.7104 106.028 -18.9164 106.843C-18.9496 106.963 -18.9695 107.126 -19.0493 107.19C-19.3815 107.445 -19.1822 107.679 -19.0094 107.948C-19.1489 107.977 -19.2353 107.998 -19.2287 107.998C-19.5077 108.742 -19.7669 109.437 -20.026 110.124C-20.0459 110.181 -20.1257 110.238 -20.1855 110.252C-20.5841 110.316 -20.5708 110.507 -20.325 110.755C-20.0127 111.074 -20.0659 111.513 -20.2453 111.783C-20.6838 112.456 -20.5642 113.25 -20.7901 113.987C-20.9296 114.036 -21.0825 114.093 -21.315 114.178C-20.9828 114.731 -21.1223 115.27 -21.2552 115.823C-21.4678 116.716 -21.6007 117.63 -21.8466 118.516C-22.1057 119.437 -22.1722 120.422 -22.6373 121.287C-22.7502 121.5 -22.6306 121.854 -22.6173 122.144C-23.0758 122.541 -23.2153 123.066 -23.1555 123.682C-23.1356 123.888 -23.0692 124.15 -23.1622 124.292C-23.6805 125.1 -23.4811 126.113 -23.8466 126.964C-23.9197 127.141 -23.8864 127.382 -23.8997 127.644C-24.2187 127.708 -24.4113 127.899 -24.3914 128.332C-24.3781 128.686 -24.4977 129.041 -24.5575 129.402C-24.5907 129.608 -24.6173 129.813 -24.624 130.012C-24.6439 130.557 -24.5775 131.124 -25.0891 131.507C-25.1489 131.549 -25.1755 131.713 -25.1489 131.798C-25.0492 132.173 -25.1024 132.506 -25.1954 132.896C-25.2884 133.293 -25.4346 133.654 -25.5675 134.023C-25.7336 134.491 -25.8997 134.944 -25.9329 135.455C-25.9728 136.043 -25.8864 136.645 -26.2851 137.191C-26.4711 137.446 -26.4512 137.893 -26.4711 138.261C-26.5176 139.02 -26.5243 139.041 -27.2419 139.091C-27.1954 139.296 -27.1489 139.494 -27.109 139.686C-27.2485 139.799 -27.3748 139.913 -27.501 140.012C-27.3416 140.267 -27.202 140.48 -26.9894 140.82C-27.7136 140.806 -27.8731 141.231 -27.913 141.734C-27.9528 142.195 -28.0724 142.648 -27.8266 143.123C-27.707 143.357 -27.7602 143.662 -28.0193 143.903C-28.3249 144.186 -28.5641 144.548 -28.8631 144.909C-28.8698 144.888 -28.8698 144.966 -28.8432 144.98C-28.4379 145.186 -28.8366 145.646 -28.6837 145.774C-28.4246 145.987 -28.2718 146.128 -28.4445 146.461C-28.6106 146.44 -28.7701 146.419 -28.9362 146.405C-28.9163 146.78 -28.8964 147.085 -28.8764 147.39C-28.8366 147.376 -28.8366 147.34 -28.8366 147.34ZM51.8006 38.279C52.3587 38.279 52.1328 37.8112 52.1993 37.5136C52.279 37.4781 52.3986 37.471 52.4451 37.4072C52.99 36.6489 53.5282 35.8835 54.0664 35.118C54.4384 34.6857 54.8305 34.2605 54.9966 33.6722C55.3022 33.4596 56.0863 32.1909 56.1062 31.872C56.1129 31.8011 56.073 31.7232 56.0597 31.6452C56.2524 31.7303 56.4185 31.7727 56.5514 31.5247C56.6577 31.3262 56.7906 31.142 56.9102 30.9506C57.2025 30.6742 57.2026 30.6742 56.97 30.2986C56.9567 30.575 56.9434 30.7734 56.9301 30.9719C56.7906 31.0428 56.6311 31.0924 56.5049 31.1987C56.3454 31.3334 56.2059 31.5034 56.0597 31.6523C55.7208 32.1626 55.3753 32.6658 55.063 33.1903C54.9899 33.3107 55.0298 33.5163 55.0165 33.6793C54.5182 34.0266 54.073 34.4093 54.0929 35.1322C53.9667 35.1889 53.7873 35.196 53.7142 35.3023C53.1959 36.0323 52.7043 36.7765 52.2059 37.5136C52.1328 37.6553 52.0597 37.7971 51.9933 37.9388C51.9335 38.0522 51.8803 38.1727 51.8272 38.2932C51.5082 38.2436 51.568 38.442 51.681 38.6546C51.7142 38.5271 51.7607 38.3995 51.8006 38.279ZM39.9336 49.7252C39.5814 49.4559 39.4485 49.711 39.3289 50.0087C39.2027 50.3064 39.0765 50.597 38.9502 50.8946C38.5981 50.9159 38.5383 51.1002 38.6977 51.412C38.5582 51.4474 38.3522 51.4333 38.2991 51.5254C37.9868 52.0357 37.7143 52.5673 37.4286 53.0988C37.1695 53.4674 36.6579 53.6446 36.6845 54.2257C36.4918 54.2541 36.3124 54.247 36.2393 54.5376C36.1662 54.8282 36.0333 55.1258 35.8672 55.3668C35.5748 55.7708 35.216 56.1181 34.9237 56.522C34.8107 56.6709 34.8041 56.9048 34.7509 57.1032C34.2659 57.4151 33.8938 57.7836 34.0665 58.464C33.5283 58.4215 33.4752 58.5136 33.6679 59.1444C33.4087 58.9743 33.2692 59.1302 33.123 59.3428C32.6911 59.9878 32.2327 60.6115 31.8141 61.2635C31.5018 61.7597 31.2293 62.2841 30.8639 62.9362C31.1629 62.7306 31.4021 62.6669 31.4686 62.5109C32.04 61.2706 32.9768 60.2996 33.6479 59.1302C33.7808 58.9034 33.9137 58.6695 34.0466 58.4428C34.2592 57.9821 34.8572 57.7411 34.731 57.0819C35.0034 57.1882 35.0898 57.0182 35.2227 56.7843C35.5815 56.1677 35.9403 55.5369 36.4054 55.0195C36.6512 54.7431 36.7376 54.5446 36.6645 54.2115C37.3356 54.1478 37.4021 53.6375 37.4087 53.0776C38.0798 52.7303 38.4187 52.0995 38.6711 51.3908C38.9701 51.3411 38.9303 51.1002 38.9303 50.8804C39.3954 50.7033 39.4087 50.6678 39.3157 50.0016C39.6811 50.2993 39.7874 49.9662 39.9336 49.7252C39.8539 49.47 40.3323 49.307 40.0133 48.9456C39.7808 49.2149 39.8804 49.47 39.9336 49.7252ZM49.6279 39.9587C49.0432 39.9517 49.0099 39.9942 49.2558 40.4903C49.3953 40.2989 49.5149 40.1288 49.6279 39.9587C49.5747 39.6682 50.0996 39.576 49.8804 39.1791C49.6212 39.413 49.5548 39.6611 49.6279 39.9587ZM62.3786 22.5378C62.9965 22.5733 63.0297 22.5379 62.8703 22.0276C62.7042 22.1977 62.538 22.3677 62.3786 22.5378C62.3121 22.7079 62.2457 22.8781 62.1792 23.0411C62.2191 23.0552 62.2523 23.0623 62.2922 23.0765C62.3188 22.8993 62.3454 22.7221 62.3786 22.5378ZM41.1894 47.5352C40.7575 47.5706 40.6578 47.8683 40.6313 48.3007C40.9236 48.0809 41.2824 47.9746 41.1761 47.521C41.5681 47.4289 41.7143 47.1099 41.814 46.7556C42.1063 46.4862 42.4917 46.2807 42.4917 45.7279C42.2724 45.9476 42.0731 46.0965 41.9336 46.302C41.8538 46.4225 41.8605 46.6138 41.8273 46.7768C41.3289 46.7556 41.2891 47.1737 41.1894 47.5352ZM50.691 39.7816C51.3089 39.739 51.4019 39.6256 51.2093 39.165C51.0431 39.3776 50.877 39.5902 50.7109 39.8099C50.5714 40.0367 50.4318 40.2635 50.2923 40.4974C50.0398 40.9085 49.7807 41.3195 49.5282 41.7377C49.1628 41.9503 48.9767 42.2267 49.1827 42.6803C48.8106 42.574 48.5116 42.7299 48.4452 43.1127C48.3123 43.8214 47.7275 44.197 47.4352 44.7924C47.1362 45.4019 46.7375 45.9547 46.3854 46.5359C46.3123 46.628 46.2458 46.7343 46.1595 46.8123C45.887 47.0674 45.6213 47.3155 45.7209 47.762C45.588 47.7691 45.3821 47.7266 45.3422 47.7974C45.0365 48.3006 44.7774 48.8393 44.4718 49.3496C44.1196 49.9237 43.7076 50.4552 43.3754 51.0435C43.1827 51.3837 43.1096 51.7947 42.9834 52.1704C42.4386 52.0782 42.5714 52.5105 42.5382 52.8224C42.4585 52.8862 42.3655 52.9287 42.3057 53.0067C41.9668 53.4744 41.6213 53.928 41.309 54.4171C41.01 54.8848 40.7642 55.3951 40.4851 55.8771C40.412 56.0046 40.319 56.1393 40.206 56.2173C39.9004 56.4299 39.8339 56.7488 39.8206 57.1032C39.3555 57.0607 39.4087 57.4363 39.3688 57.7411C38.9768 58.3151 38.5582 58.868 38.1927 59.4633C37.8605 60.002 37.6014 60.5973 37.2625 61.136C36.9635 61.6179 36.5383 62.0219 36.2791 62.5251C35.8805 63.2976 35.3888 63.9993 34.9037 64.708C34.7775 64.8923 34.8107 65.19 34.7642 65.438C34.1131 65.7074 33.9868 65.9341 34.04 66.7421C33.8871 66.7704 33.6479 66.735 33.5881 66.8271C33.1097 67.5713 32.6911 68.3651 32.2061 69.1022C31.927 69.5275 31.6413 69.9315 31.4088 70.3921C31.2094 70.7749 30.8506 71.0584 30.5848 71.4127C30.525 71.4907 30.5782 71.6537 30.5782 71.8167C30.9171 71.5828 31.3091 71.4623 31.4221 71.2001C31.628 70.7111 31.9004 70.3 32.2127 69.8889C32.6579 69.3077 33.0167 68.6486 33.3888 68.0037C33.6214 67.5926 33.814 67.1532 34.02 66.728C34.3855 66.3736 34.7443 66.0121 34.7509 65.4309C34.9968 65.1191 35.2692 64.8214 35.4885 64.4883C35.834 63.9567 36.133 63.3969 36.4718 62.8582C37.1363 61.8093 37.8273 60.7745 38.4918 59.7256C38.7376 59.3358 38.9369 58.9105 39.2027 58.5419C39.3887 58.2797 39.4419 58.0387 39.3422 57.7411C39.8472 57.6702 39.8472 57.6702 39.7874 57.0961C40.2193 57.0607 40.4053 56.7701 40.5449 56.3661C40.6379 56.0826 40.8439 55.8417 41.0034 55.5936C41.4751 54.8707 41.9602 54.1619 42.412 53.4248C42.505 53.2689 42.4784 53.0209 42.505 52.8153C42.8505 52.7728 43.0631 52.6098 42.9768 52.1916C43.0233 52.1846 43.0964 52.1987 43.1163 52.1704C43.8206 51.0505 44.5382 49.9307 45.2226 48.7967C45.4153 48.4778 45.5349 48.1022 45.6877 47.7478C46.0731 47.4431 46.5249 47.1808 46.3588 46.5217C46.5847 46.3445 46.8372 46.1957 47.0232 45.983C47.2026 45.7775 47.3089 45.5011 47.4551 45.2672C48.0199 44.3955 48.5847 43.5308 49.1428 42.659C49.4285 42.4181 49.5282 42.0991 49.495 41.7235C49.9534 41.4613 50.3056 41.1211 50.2591 40.4974C50.7043 40.3982 50.7242 40.3627 50.691 39.7816ZM46.8771 43.871C47.0631 43.6513 47.2757 43.4458 47.4352 43.2048C47.495 43.1127 47.4485 42.9355 47.4485 42.7937C47.3887 42.7937 47.3355 42.7866 47.2757 42.7866C47.1495 43.1552 47.0232 43.5166 46.897 43.8852C46.6046 43.9773 46.6046 43.9773 46.4917 44.4309C46.6644 44.1758 46.7708 44.0269 46.8771 43.871ZM83.7737 -12.8709C83.9797 -13.2253 84.1857 -13.5726 84.4382 -14.0049C83.8801 -13.8277 83.8003 -13.6647 83.7737 -12.8709C83.5678 -12.9064 83.302 -13.0623 83.2887 -12.5236C83.4947 -12.6654 83.6342 -12.7646 83.7737 -12.8709ZM58.4783 28.2574C59.0032 28.1511 59.0896 28.0519 59.2092 27.3644C59.0564 27.4636 58.9235 27.5132 58.857 27.6125C58.7108 27.8109 58.5979 28.0377 58.4783 28.2574C58.3653 28.47 58.259 28.6755 58.1328 28.9165C58.6577 28.9023 58.3919 28.4842 58.4783 28.2574ZM45.2159 46.2453C44.7973 46.8052 44.3721 47.3722 43.9601 47.9392C43.6744 48.3857 43.6744 48.3857 43.9003 48.7755C43.9136 48.492 43.9269 48.2085 43.9402 47.925C44.0665 47.925 44.2525 47.9888 44.3123 47.9179C44.5116 47.6982 44.6777 47.4431 44.8306 47.1879C45.01 46.8903 45.289 46.6351 45.196 46.224C45.6279 46.1886 45.6279 46.1886 45.4817 45.6429C45.3555 45.9193 45.289 46.0823 45.2159 46.2453ZM43.7874 38.9665C43.5017 39.0444 43.2292 39.1224 43.1827 39.5264C43.1694 39.6469 43.01 39.8099 42.897 39.8383C42.4518 39.9233 42.5382 40.2493 42.5648 40.5541C42.2857 40.8376 41.9801 41.0927 41.7342 41.4046C41.4685 41.7377 41.3356 42.2338 41.0166 42.4464C40.5117 42.7937 40.4917 43.4883 39.9934 43.8143C39.8871 43.8852 39.9137 44.1899 39.8804 44.3813C39.721 44.4663 39.515 44.5089 39.4153 44.6435C38.8373 45.4302 38.3655 46.2878 37.6745 46.9895C37.3423 47.3226 37.0499 47.7265 36.8107 48.1447C36.3323 48.9739 35.8472 49.7961 35.2227 50.5048C35.0566 50.6891 34.8971 50.8804 34.7576 51.0931C34.4586 51.5537 34.1994 52.0499 33.8738 52.4964C33.1895 53.439 32.4586 54.3462 31.7808 55.2888C31.6413 55.4873 31.6479 55.792 31.5815 56.0543C32.04 55.7282 32.4652 55.4022 32.6911 54.9628C33.3157 53.7438 34.412 52.8862 34.9037 51.575C34.9104 51.5538 34.9237 51.5254 34.9436 51.5041C35.6745 50.7458 36.226 49.8386 36.7841 48.9314C37.0765 48.4565 37.4021 48.01 37.7276 47.5635C38.4319 46.5713 39.1495 45.5861 39.8539 44.5939C39.8871 44.5443 39.8605 44.438 39.8605 44.36C40.4718 44.0482 40.6645 43.3678 41.0499 42.8504C41.4153 42.3614 41.7143 41.8015 42.1395 41.3833C42.4053 41.1211 42.5382 40.8801 42.5449 40.5186C43.1362 40.1501 43.5083 39.5973 43.7674 38.9381C44.093 38.4279 44.5515 38.0026 44.6977 37.3718C44.3655 37.7333 44.0665 38.1231 43.8073 38.5413C43.7409 38.6476 43.7874 38.8247 43.7874 38.9665ZM39.7874 54.6581C40.1994 54.7006 40.3588 54.3179 40.505 54.0556C41.0499 53.113 41.5814 52.1633 42.2658 51.327C42.3389 51.2348 42.299 51.0364 42.3123 50.8592C42.1661 50.9017 42.0997 50.9017 42.0798 50.9371C41.3422 52.057 40.6113 53.1697 39.8871 54.2966C39.8206 54.3958 39.8273 54.5518 39.8007 54.6793C39.3422 54.9628 39.3289 55.0054 39.4685 55.6078C39.1828 55.4023 39.0698 55.6503 38.9502 55.8345C38.226 56.926 37.5017 58.0104 36.7908 59.116C36.7044 59.2578 36.711 59.4633 36.6712 59.6405C36.1728 59.8957 36.1662 59.9098 36.3323 60.5548C36.1861 60.5761 35.9602 60.5406 35.9004 60.6327C35.3091 61.547 34.8107 62.5251 34.1197 63.3685C33.9337 63.5953 33.7675 63.8504 33.6413 64.1197C33.5682 64.2686 33.5948 64.4671 33.5815 64.6372C33.4951 64.6655 33.3689 64.6584 33.3223 64.7222C33.0034 65.1758 32.6978 65.6506 32.3921 66.1184C32.1596 66.4586 31.9137 66.7917 31.7011 67.1461C31.5018 67.4863 31.4752 67.9328 31.0632 68.1525C30.937 68.2163 30.937 68.5565 30.8838 68.7762C30.6845 68.8045 30.4785 68.8258 30.525 69.1235C30.5317 69.1589 30.5915 69.2085 30.6314 69.2085C30.9436 69.2015 30.8108 68.918 30.8639 68.7549C31.0566 68.6628 31.3689 68.6132 31.4287 68.4643C31.6147 67.9824 31.8539 67.5713 32.1795 67.1744C32.5915 66.657 32.9171 66.0546 33.2493 65.4664C33.3955 65.2112 33.4619 64.9065 33.5616 64.623C33.6812 64.5875 33.8871 64.5733 33.8938 64.5237C33.9934 63.8717 34.731 63.652 34.7841 62.9716C34.7908 62.8582 34.8838 62.7235 34.9702 62.6385C35.5748 62.0573 35.9071 61.2706 36.319 60.5548C36.6645 60.3422 36.7708 60.0303 36.6512 59.6263C37.0898 59.7468 37.1894 59.2578 37.2957 59.0664C37.9602 57.8686 38.7509 56.763 39.4552 55.6007C39.7941 55.3668 39.9535 55.0762 39.7874 54.6581ZM47.4286 103.986C47.495 103.795 47.5814 103.611 47.6146 103.412C47.6943 102.945 47.7475 102.47 47.8139 101.995C47.9335 101.159 48.0996 100.329 48.1727 99.4931C48.2724 98.3733 48.3056 97.2464 48.3654 96.1266C48.279 96.4101 48.2658 96.7077 48.2192 96.9912C48.0465 98.0827 47.8206 99.1671 47.701 100.266C47.5681 101.506 47.5282 102.753 47.4485 104.001C47.103 104.695 47.083 105.404 47.4286 105.886C47.4286 105.22 47.4286 104.603 47.4286 103.986ZM50.8372 80.839C50.7641 80.9311 50.6511 81.0091 50.6245 81.1154C50.485 81.7249 50.3455 82.3344 50.2392 82.951C50 84.3047 49.7807 85.6585 49.5681 87.0122C49.5282 87.2744 49.5614 87.5437 49.5614 87.813C49.6146 87.8201 49.6677 87.8201 49.7209 87.8272C50.093 85.4954 50.4584 83.1566 50.8239 80.8177C51.4285 79.2372 51.5614 78.5214 51.3687 77.5646C51.2491 78.0111 51.1428 78.33 51.0697 78.6632C50.9966 78.9963 50.9302 79.3364 50.897 79.6767C50.8637 80.0594 50.8571 80.4492 50.8372 80.839ZM46.3521 117.077C46.2525 117.112 46.0797 117.134 46.0598 117.197C46.0066 117.368 46.0199 117.559 46.0133 117.75C45.9668 118.778 45.9335 119.813 45.8671 120.84C45.8405 121.337 45.7409 121.833 45.7143 122.336C45.6877 122.811 45.701 123.286 45.701 123.768C45.701 124.242 45.701 124.71 45.701 125.185C45.7541 125.185 45.8073 125.185 45.8605 125.185C45.887 124.476 45.9202 123.76 45.9468 123.052C45.9734 122.499 45.887 121.904 46.0465 121.393C46.2724 120.663 46.2724 119.94 46.299 119.21C46.3189 118.502 46.3389 117.786 46.3588 117.07C46.3588 116.475 46.3588 115.879 46.3588 115.284C46.3521 115.879 46.3521 116.475 46.3521 117.077ZM-31.0159 114.171C-30.8299 114.228 -30.6438 114.292 -30.4578 114.348C-30.5973 113.966 -30.8166 114.114 -31.0292 114.178C-30.8565 113.363 -30.7236 112.534 -30.511 111.726C-30.1389 110.33 -29.7402 108.948 -29.3282 107.566C-29.089 106.765 -29.0758 105.886 -28.5309 105.198C-28.4977 105.156 -28.5243 105.05 -28.511 104.979C-28.2452 103.859 -27.9927 102.725 -27.6871 101.619C-27.5409 101.102 -27.3283 100.294 -27.3548 99.7837C-27.4612 100.032 -27.5608 100.216 -27.6206 100.414C-28.4578 103.108 -29.3415 105.787 -30.1123 108.501C-30.9096 111.315 -31.5874 114.164 -32.3116 117.006C-32.398 117.339 -32.5043 117.601 -32.8697 117.644C-32.9495 117.651 -33.0159 117.764 -33.1422 117.871C-32.7767 118.19 -32.6505 118.53 -32.9428 118.969C-33.0292 119.104 -33.0093 119.331 -33.0093 119.515C-33.0093 119.813 -32.9827 120.096 -33.2618 120.295C-33.3282 120.337 -33.3614 120.486 -33.3548 120.578C-33.3016 121.507 -33.7335 122.322 -33.8996 123.193C-34.1056 124.278 -34.4378 125.334 -34.6837 126.404C-34.8232 127.021 -34.8963 127.651 -35.0225 128.275C-35.3813 130.033 -35.7468 131.79 -36.1122 133.548C-36.2119 134.016 -36.3448 134.47 -36.4511 134.93C-36.6172 135.653 -36.7767 136.376 -36.9229 137.099C-36.9494 137.227 -36.8963 137.375 -36.883 137.51C-36.7302 137.382 -36.677 137.248 -36.6504 137.106C-36.4046 136.022 -36.172 134.937 -35.9129 133.86C-35.6139 132.606 -35.2418 131.365 -34.9893 130.104C-34.7701 128.991 -34.6305 127.864 -34.079 126.865C-34.0325 126.787 -34.0458 126.666 -34.0325 126.567C-33.9794 126.099 -33.9794 125.617 -33.8731 125.164C-33.5741 123.959 -33.202 122.782 -32.9096 121.577C-32.6771 120.628 -32.4844 119.678 -31.9594 118.849C-31.8864 118.728 -31.8731 118.551 -31.8664 118.402C-31.7933 117.183 -31.5209 116.007 -31.2751 114.823C-31.2219 114.596 -31.109 114.391 -31.0159 114.171ZM-30.1389 134.108C-30.0924 134.129 -30.0392 134.151 -29.9927 134.165C-29.9262 134.066 -29.8199 133.973 -29.7934 133.86C-29.5674 132.946 -29.3548 132.024 -29.1289 131.103C-28.8432 129.948 -28.5575 128.8 -28.2585 127.651C-28.1721 127.332 -27.9994 127.035 -27.9196 126.716C-27.5874 125.362 -27.295 123.994 -26.9495 122.648C-26.5176 120.989 -26.0326 119.345 -25.5874 117.694C-25.3416 116.779 -25.1223 115.851 -24.8897 114.937C-24.7502 114.377 -24.6107 113.817 -24.4645 113.257C-24.2585 112.499 -24.0592 111.74 -23.8333 110.982C-23.6871 110.486 -23.4878 110.011 -23.3482 109.515C-23.2419 109.139 -23.2021 108.742 -23.0957 108.374C-22.9296 107.828 -22.717 107.296 -22.5575 106.744C-22.5177 106.609 -22.5908 106.439 -22.6173 106.29C-22.81 106.417 -22.8964 106.545 -22.9363 106.687C-23.2818 107.764 -23.5609 108.863 -23.9728 109.905C-24.3117 110.769 -24.4911 111.655 -24.6373 112.569C-24.717 113.08 -24.9628 113.562 -25.1157 114.065C-25.3748 114.937 -25.6007 115.823 -25.8731 116.694C-25.9263 116.864 -26.1323 116.971 -26.2651 117.105C-25.9661 117.8 -25.8931 117.807 -26.4911 118.225C-26.4911 118.58 -26.3914 118.969 -26.511 119.246C-26.697 119.678 -26.7635 120.125 -26.8764 120.571C-27.1887 121.875 -27.5143 123.172 -27.8266 124.469C-27.9063 124.795 -28.0658 124.979 -28.3781 124.944C-28.3316 125.256 -28.212 125.554 -28.2585 125.809C-28.4047 126.56 -28.6572 127.283 -28.7834 128.034C-28.8498 128.445 -29.089 128.502 -29.2552 128.523C-29.2552 128.955 -29.2086 129.31 -29.2618 129.65C-29.3947 130.479 -29.5741 131.301 -29.7468 132.116C-29.8465 132.577 -29.9728 133.024 -30.0724 133.484C-30.1189 133.69 -30.1189 133.903 -30.1389 134.108ZM-32.1521 131.783C-31.986 131.167 -31.8465 130.671 -31.7202 130.175C-31.594 129.664 -31.4345 129.161 -31.3747 128.644C-31.3149 128.155 -31.1953 127.722 -30.9229 127.318C-30.8232 127.169 -30.7435 126.943 -30.7568 126.758C-30.8033 126.028 -30.7568 125.334 -30.3448 124.71C-30.2651 124.59 -30.2651 124.405 -30.2385 124.249C-30.1522 123.626 -30.0857 123.002 -29.7668 122.435C-29.6472 122.222 -29.6538 121.932 -29.614 121.67C-29.5076 121.032 -29.5143 120.344 -29.2684 119.777C-29.0292 119.224 -29.089 118.693 -28.9628 118.062C-29.9661 119.09 -32.4378 130.111 -32.1521 131.783ZM48.0398 153.691C48.0863 153.684 48.1329 153.676 48.186 153.662C47.8472 151.862 47.4883 150.062 47.1827 148.255C46.8771 146.454 46.5781 144.654 46.3721 142.84C46.1661 141.025 46.0731 139.197 45.9269 137.375C45.8737 137.382 45.8139 137.39 45.7608 137.397C45.8272 142.946 46.6711 148.361 48.0398 153.691ZM48.4385 94.8154C48.4983 94.8366 48.5515 94.8579 48.6113 94.8721C48.6644 94.7233 48.7574 94.5744 48.7707 94.4185C48.877 93.3908 48.9634 92.3632 49.0764 91.3426C49.103 91.1229 49.1893 90.9031 49.2823 90.7047C49.5016 90.2227 49.5149 89.7479 49.2425 89.266C49.1295 89.5565 49.1096 89.8542 49.0631 90.1519C48.9169 91.1158 48.8305 92.1009 48.5847 93.0365C48.4252 93.646 48.3721 94.2129 48.4385 94.8154ZM47.2159 106.715C46.6777 109.012 46.3588 112.591 46.4717 113.682C46.5913 112.917 46.7242 112.073 46.8438 111.223C46.9036 110.776 46.9501 110.33 46.9834 109.883C47.0631 108.827 47.1362 107.771 47.2159 106.715ZM-30.604 147.121C-30.8033 147.255 -30.8897 147.284 -30.903 147.326C-31.0359 147.794 -31.1754 148.269 -31.2884 148.744C-31.3482 149.013 -31.1688 149.084 -30.9428 149.162C-30.8365 148.496 -30.7302 147.879 -30.604 147.121ZM-20.6572 108.693C-20.7635 109.394 -20.7635 109.394 -20.232 109.685C-20.0858 109.252 -20.3582 109.019 -20.6572 108.693ZM30.0068 -21.2908C30.2925 -21.5105 30.5782 -21.7373 30.9171 -21.9995C30.432 -22.1129 30.432 -22.1129 30.0068 -21.2908ZM-28.6904 116.879C-28.6106 116.34 -28.6106 116.34 -29.1688 116.439C-29.0292 116.574 -28.8764 116.716 -28.6904 116.879ZM51.6013 76.7424C51.7209 76.4235 51.9401 76.1117 51.6013 75.7786C51.6013 76.0975 51.6013 76.4235 51.6013 76.7424ZM42.5714 50.4198C43.1296 50.1079 43.1296 50.1079 43.0565 49.6543C42.7774 49.7819 42.5582 49.952 42.5714 50.4198ZM-28.2917 114.809C-28.5508 115.511 -28.5442 115.532 -28.0724 115.419C-28.1455 115.213 -28.2186 115.007 -28.2917 114.809ZM-31.1754 149.665C-31.3216 149.856 -31.4545 149.956 -31.4412 150.026C-31.4146 150.182 -31.3149 150.317 -31.2418 150.459C-31.1621 150.388 -31.0093 150.31 -31.0093 150.239C-31.0159 150.083 -31.0957 149.934 -31.1754 149.665ZM-32.7767 133.647C-32.6172 133.392 -32.4113 133.137 -32.491 132.847C-32.5442 132.839 -32.5973 132.825 -32.6505 132.818C-32.697 133.095 -32.7368 133.371 -32.7767 133.647ZM-26.9362 126.113C-26.8764 126.121 -26.8166 126.128 -26.7568 126.128C-26.7303 125.979 -26.7103 125.837 -26.6837 125.688C-26.7701 125.674 -26.8499 125.667 -26.9362 125.653C-26.9362 125.809 -26.9362 125.965 -26.9362 126.113ZM-37.5209 140.579C-37.481 140.586 -37.4411 140.593 -37.4013 140.593C-37.3348 140.295 -37.2684 139.998 -37.2019 139.7C-37.2684 139.686 -37.3348 139.672 -37.4013 139.658C-37.4411 139.969 -37.481 140.274 -37.5209 140.579ZM85.2488 -14.8129C85.2023 -14.8625 85.1491 -14.9121 85.1026 -14.9617C84.8302 -14.8412 84.7106 -14.6074 84.7638 -14.2317C84.9232 -14.4231 85.0893 -14.6144 85.2488 -14.8129ZM-27.4877 128.722C-27.2817 128.509 -27.1622 128.289 -27.4545 128.041C-27.4612 128.261 -27.4744 128.488 -27.4877 128.722ZM45.7674 136.893C45.8206 136.886 45.8737 136.879 45.9335 136.865C45.9136 136.716 45.8937 136.567 45.8737 136.419C45.8405 136.426 45.8073 136.426 45.7674 136.433C45.7674 136.589 45.7674 136.738 45.7674 136.893ZM91.4813 -22.1909C91.5345 -22.1413 91.5876 -22.0846 91.6408 -22.035C91.7139 -22.1555 91.7936 -22.2689 91.86 -22.3893C91.86 -22.3893 91.767 -22.4744 91.7537 -22.4673C91.6607 -22.3823 91.5743 -22.283 91.4813 -22.1909ZM57.867 29.7387C57.7474 29.6395 57.6743 29.5402 57.6211 29.5473C57.5481 29.5615 57.4417 29.6394 57.4218 29.7103C57.4019 29.7812 57.4816 29.8804 57.5148 29.9654C57.6079 29.9087 57.7009 29.845 57.867 29.7387ZM48.2525 41.9149C47.8604 42.0283 47.8604 42.0283 47.7209 42.7016C47.9535 42.3614 48.0797 42.1629 48.2525 41.9149ZM47.6013 32.9422C47.6478 33.006 47.701 33.0627 47.7475 33.1265C47.887 32.9776 48.0266 32.8217 48.1661 32.6728C48.1262 32.6303 48.0863 32.5878 48.0465 32.5382C47.9003 32.6728 47.7541 32.8075 47.6013 32.9422ZM93.3484 -23.7359C93.2953 -23.7714 93.2421 -23.8139 93.1889 -23.8494C93.1225 -23.7501 93.056 -23.6509 93.0029 -23.5375C92.9962 -23.5233 93.0959 -23.4525 93.1424 -23.4099C93.2155 -23.5233 93.282 -23.6296 93.3484 -23.7359ZM24.9769 -14.1183C24.9171 -14.175 24.8706 -14.2246 24.8241 -14.2742C24.7776 -14.2175 24.6912 -14.1467 24.6978 -14.1112C24.7178 -14.0404 24.7975 -13.9837 24.8507 -13.9199C24.8839 -13.9837 24.9238 -14.0403 24.9769 -14.1183ZM57.1627 28.8669C56.7839 28.959 56.784 28.959 56.7507 29.1788C56.857 29.0937 57.0099 28.9803 57.1627 28.8669ZM54.4052 23.5372C54.3388 23.6931 54.2591 23.7853 54.279 23.849C54.2923 23.9199 54.3986 23.9624 54.465 24.0191C54.5182 23.9483 54.6112 23.8774 54.6112 23.7994C54.6112 23.7356 54.5115 23.6648 54.4052 23.5372ZM48.3654 41.2983C48.8438 41.1636 48.8438 41.1636 48.8837 40.7667C48.7574 40.8518 48.6245 40.9226 48.5116 41.0148C48.4584 41.0573 48.4385 41.1423 48.3654 41.2983ZM27.4553 -17.825C27.4088 -17.8747 27.3556 -17.9242 27.3091 -17.9739C27.2227 -17.8675 27.143 -17.7683 27.0566 -17.662C27.1098 -17.6195 27.2028 -17.5274 27.2094 -17.5344C27.2958 -17.6266 27.3689 -17.7258 27.4553 -17.825ZM52.784 26.2304C52.7508 26.195 52.7175 26.1595 52.6777 26.1241C52.5381 26.28 52.4053 26.4359 52.2657 26.5919C52.2989 26.6273 52.3388 26.6627 52.372 26.6982C52.5116 26.5493 52.6511 26.3863 52.784 26.2304ZM88.6242 -18.4558C88.6176 -18.5196 88.6109 -18.5905 88.6109 -18.6543C88.4913 -18.6259 88.3651 -18.5905 88.2455 -18.5621C88.2521 -18.5196 88.2587 -18.4771 88.2654 -18.4346C88.3783 -18.4416 88.5046 -18.4487 88.6242 -18.4558ZM54.2258 32.9422C53.8803 33.1335 53.6212 33.1973 53.8537 33.5942C53.9667 33.3958 54.0597 33.2328 54.2258 32.9422ZM51.3089 28.4346C51.2624 28.3921 51.2092 28.3566 51.1627 28.3141C51.0498 28.47 50.9368 28.6259 50.8239 28.789C50.8571 28.8173 50.8903 28.8456 50.9235 28.874C51.0498 28.7252 51.176 28.5763 51.3089 28.4346ZM-26.2319 123.023C-26.1655 123.023 -26.099 123.016 -26.0259 123.016C-26.0459 122.86 -26.0592 122.704 -26.0791 122.548C-26.1323 122.556 -26.1788 122.563 -26.2319 122.57C-26.2319 122.712 -26.2319 122.867 -26.2319 123.023ZM-27.8731 130.026C-27.6273 129.7 -27.6273 129.7 -27.8731 129.445C-27.8731 129.643 -27.8731 129.806 -27.8731 130.026ZM55.5547 30.8301C55.6079 30.8656 55.6544 30.901 55.7075 30.9365C55.774 30.7876 55.8338 30.6317 55.9002 30.4829C55.867 30.4616 55.8271 30.4403 55.7939 30.4191C55.7142 30.5608 55.6345 30.6955 55.5547 30.8301ZM68.239 14.7204C68.146 14.6425 68.0928 14.5574 68.0529 14.5645C67.9998 14.5716 67.9333 14.6495 67.9201 14.7062C67.9134 14.7629 67.9666 14.8267 67.9998 14.8905C68.0662 14.8409 68.1327 14.7984 68.239 14.7204ZM77.5479 -5.69843C77.6077 -5.69135 77.6675 -5.69137 77.7339 -5.68429C77.7406 -5.82603 77.7472 -5.96067 77.7539 -6.10242C77.7074 -6.10951 77.6675 -6.11662 77.621 -6.1237C77.5944 -5.97487 77.5678 -5.83309 77.5479 -5.69843ZM65.1825 18.661C65.5613 18.576 65.754 18.498 65.7075 17.9806C65.4948 18.25 65.3819 18.4059 65.1825 18.661ZM46.5183 39.6186C46.5448 39.6398 46.5648 39.6682 46.5913 39.6894C46.6644 39.6185 46.7442 39.5477 46.8173 39.4697C46.7708 39.4272 46.7242 39.3847 46.6777 39.3421C46.6246 39.4343 46.5714 39.5264 46.5183 39.6186ZM50.7242 38.1373C50.6843 38.1018 50.6445 38.0735 50.598 38.038C50.5116 38.1798 50.4318 38.3216 50.3455 38.4633C50.392 38.4917 50.4385 38.52 50.485 38.5483C50.5714 38.4137 50.6445 38.279 50.7242 38.1373ZM-26.8166 98.3662C-26.8565 98.3591 -26.8964 98.3591 -26.9362 98.352C-26.9562 98.4583 -26.9761 98.5646 -27.0027 98.6709C-26.9429 98.678 -26.8831 98.6851 -26.8166 98.6922C-26.8166 98.5788 -26.8166 98.4725 -26.8166 98.3662ZM48.6246 31.7444C48.5382 31.8082 48.4651 31.8365 48.4452 31.8862C48.4252 31.9429 48.4651 32.0208 48.4784 32.0917C48.5448 32.0491 48.6245 32.0137 48.6711 31.95C48.6976 31.9216 48.6511 31.8436 48.6246 31.7444ZM60.4783 25.7839C60.4052 25.7272 60.3454 25.6492 60.2989 25.6563C60.2457 25.6634 60.1992 25.7414 60.1527 25.791C60.2125 25.8477 60.2656 25.9115 60.3387 25.9469C60.352 25.954 60.4118 25.8548 60.4783 25.7839ZM64.5181 19.4974C64.6311 19.5824 64.6908 19.6603 64.7307 19.6462C64.7905 19.6249 64.8503 19.554 64.8769 19.4903C64.8902 19.4548 64.8105 19.3414 64.7972 19.3485C64.7174 19.3698 64.6443 19.4194 64.5181 19.4974ZM92.8102 -23.2894C92.4713 -23.2611 92.3052 -23.2186 92.4448 -22.8075C92.5777 -22.9776 92.664 -23.0981 92.8102 -23.2894ZM44.6047 42.4464C44.6578 42.4606 44.711 42.4819 44.7641 42.496C44.8106 42.3401 44.8571 42.1771 44.9037 42.0212C44.8704 42.007 44.8372 41.9928 44.7973 41.9786C44.7375 42.1346 44.6711 42.2905 44.6047 42.4464ZM58.2324 26.8541C58.1793 26.9533 58.1195 27.01 58.1261 27.0667C58.1328 27.1163 58.2059 27.1589 58.2457 27.2014C58.279 27.1447 58.3454 27.0951 58.3454 27.0384C58.3454 26.9959 58.2856 26.9391 58.2324 26.8541ZM61.4284 24.1538C61.3886 24.1396 61.342 24.1254 61.3022 24.1183C61.2623 24.2601 61.2224 24.3947 61.1826 24.5365C61.2224 24.5507 61.269 24.5648 61.3088 24.579C61.342 24.4302 61.3819 24.2955 61.4284 24.1538ZM55.0564 22.9844C55.0365 23.0552 55.0165 23.119 55.0099 23.1899C55.0099 23.197 55.1228 23.2324 55.1228 23.2253C55.1494 23.1686 55.1693 23.1049 55.176 23.0482C55.1826 23.034 55.1095 23.0127 55.0564 22.9844ZM66.0131 17.8176C66.0795 17.7326 66.1659 17.6546 66.1526 17.6263C66.1261 17.5483 66.053 17.4987 65.9932 17.4349C65.9599 17.4987 65.9001 17.5554 65.9001 17.6192C65.9068 17.6759 65.9666 17.7326 66.0131 17.8176ZM70.7041 11.2547C70.6376 11.2476 70.5778 11.2263 70.518 11.2334C70.4981 11.2334 70.4848 11.3114 70.4715 11.3539C70.5313 11.3752 70.5911 11.3964 70.6509 11.4035C70.6642 11.4035 70.6775 11.3185 70.7041 11.2547ZM58.0863 18.7957C58.1394 18.8808 58.1793 18.9374 58.2125 18.9941C58.2657 18.9516 58.3454 18.9233 58.3587 18.8737C58.372 18.824 58.3188 18.7248 58.2723 18.7036C58.2324 18.6894 58.166 18.7532 58.0863 18.7957ZM68.4649 13.9833C68.5048 14.0258 68.5446 14.0613 68.5779 14.1038C68.6443 14.0046 68.7107 13.9054 68.7772 13.8061C68.744 13.7778 68.7107 13.7494 68.6775 13.7211C68.6111 13.8061 68.538 13.8912 68.4649 13.9833ZM85.9664 -15.5642C85.9465 -15.6138 85.9265 -15.6634 85.9066 -15.713C85.8468 -15.6492 85.787 -15.5854 85.7206 -15.5216C85.8003 -15.5358 85.88 -15.55 85.9664 -15.5642ZM46.1595 35.685C46.2259 35.5078 46.2791 35.4299 46.2791 35.3448C46.2791 35.2952 46.1728 35.196 46.1528 35.2031C46.0797 35.2456 45.9867 35.3094 45.9801 35.3802C45.9668 35.4511 46.0598 35.5291 46.1595 35.685ZM53.475 34.0478C53.4418 34.0124 53.4086 33.9699 53.3687 33.9344C53.3023 34.0549 53.2358 34.1754 53.1694 34.2959C53.1893 34.3101 53.2092 34.3313 53.2292 34.3455C53.3089 34.2534 53.3886 34.147 53.475 34.0478ZM-26.9628 117.29C-26.9761 117.332 -26.9827 117.375 -26.996 117.41C-26.903 117.453 -26.81 117.495 -26.717 117.524C-26.7037 117.524 -26.6638 117.41 -26.6372 117.346C-26.7502 117.325 -26.8565 117.311 -26.9628 117.29ZM60.4318 16.2726C60.352 16.1946 60.3122 16.1379 60.2524 16.1095C60.2258 16.0954 60.1394 16.1592 60.1394 16.1733C60.146 16.2371 60.166 16.3293 60.2058 16.3434C60.259 16.3647 60.3321 16.3151 60.4318 16.2726ZM44.1329 43.1906C44.1927 43.1906 44.2525 43.1906 44.3189 43.1906C44.3189 43.0772 44.3189 42.9638 44.3189 42.8504C44.2591 42.8504 44.1462 42.8504 44.1462 42.8575C44.1263 42.9709 44.1329 43.0772 44.1329 43.1906ZM52.1129 27.173C52.0398 27.1376 51.9933 27.1092 51.9401 27.0738C51.9136 27.1376 51.8671 27.2084 51.8737 27.2651C51.8803 27.3077 51.9601 27.336 52.0132 27.3715C52.0332 27.3148 52.0664 27.258 52.1129 27.173ZM46.1196 40.5328C46.186 40.4194 46.2525 40.3556 46.2658 40.2777C46.2724 40.2352 46.1927 40.1784 46.1528 40.1288C46.093 40.1926 46.0199 40.2422 45.9867 40.3131C45.9734 40.3415 46.0465 40.4194 46.1196 40.5328Z" fill="white"/>
<path d="M140.517 108.572C140.57 109.097 140.431 109.543 140.125 109.969C139.766 110.465 139.547 111.088 139.135 111.514C138.763 111.903 138.517 112.414 138.072 112.747C137.74 112.995 137.48 113.356 137.215 113.696C136.517 114.597 135.607 115.128 134.61 115.532C134.357 115.638 134.112 115.78 133.853 115.844C133.593 115.908 133.248 116.021 133.062 115.894C132.358 115.419 131.554 115.532 130.816 115.468C129.892 115.383 129.049 115.1 128.251 114.724C126.683 113.987 125.188 113.08 124.032 111.684C123.467 111.003 122.883 110.337 122.53 109.465C122.258 108.799 121.726 108.253 121.434 107.594C121.162 106.971 120.736 106.446 120.57 105.744C120.404 105.043 120.065 104.369 119.713 103.746C119.394 103.186 119.208 102.583 119.168 101.967C119.122 101.208 118.716 100.592 118.597 99.8689C118.557 99.6421 118.451 99.4295 118.417 99.2027C118.364 98.82 118.444 98.4089 118.092 98.1113C117.999 98.0333 118.005 97.8136 117.986 97.6576C117.76 95.7937 117.461 93.9368 117.341 92.0657C117.208 90.0529 117.221 88.0258 117.208 86.0059C117.195 84.3333 117.202 82.6536 117.275 80.981C117.361 79.0177 117.534 77.0616 117.667 75.0984C117.773 73.6171 117.879 72.1358 117.992 70.6546C117.999 70.5199 117.979 70.3498 118.045 70.2648C118.477 69.719 118.331 69.0599 118.391 68.4362C118.497 67.3802 118.484 66.2887 118.756 65.2894C119.082 64.1271 119.022 62.9364 119.281 61.7811C119.587 60.3991 119.932 59.0312 120.258 57.6562C120.404 57.0467 120.51 56.423 120.677 55.8206C120.77 55.4804 120.969 55.1756 121.075 54.8354C121.188 54.4882 121.215 54.1125 121.341 53.7723C121.733 52.6809 122.125 51.5894 122.557 50.5121C122.876 49.7325 123.268 48.9883 123.613 48.2158C123.726 47.9677 123.806 47.7055 123.899 47.4433C123.952 47.4645 123.999 47.4858 124.052 47.5C123.886 47.9607 123.706 48.4213 123.56 48.8891C123.414 49.3639 123.301 49.853 123.268 50.3775C123.421 50.0869 123.58 49.8034 123.726 49.5057C124.152 48.641 124.564 47.7764 124.995 46.9117C125.062 46.777 125.175 46.6566 125.281 46.5502C125.813 46.0187 126.377 45.5226 126.882 44.9556C127.201 44.5941 127.607 44.5232 128.005 44.4594C128.411 44.3957 128.643 44.7217 128.457 45.1115C128.205 45.6502 127.866 46.1462 127.52 46.6211C127.201 47.0605 126.869 47.4858 126.816 48.1803C127.368 47.8614 127.667 47.3582 127.919 46.9046C128.298 46.2242 128.863 45.7777 129.368 45.2532C129.5 45.1186 129.892 45.154 130.112 45.2603C130.238 45.317 130.331 45.6714 130.304 45.8698C130.238 46.3305 130.092 46.7841 129.966 47.2944C130.298 46.8196 130.603 46.3872 130.929 45.9265C131.128 46.0399 131.294 46.0967 131.414 46.2101C132.165 46.9259 132.975 47.6063 133.288 48.6836C133.387 49.0238 133.441 49.4065 133.421 49.7679C133.361 50.7743 133.268 51.7737 133.155 52.773C133.082 53.4251 132.929 54.0629 132.843 54.715C132.563 56.8341 132.298 58.9603 132.039 61.0866C131.786 63.1632 131.534 65.2398 131.308 67.3235C131.188 68.4291 131.155 69.5489 131.068 70.6546C131.002 71.4413 130.896 72.2209 130.836 73.0076C130.663 75.1976 130.484 77.3876 130.344 79.5847C130.284 80.5628 130.377 81.5479 130.284 82.5189C130.205 83.3269 130.178 84.1348 130.152 84.9428C130.132 85.7082 130.085 86.4737 130.039 87.2391C129.972 88.3944 129.879 89.5496 129.819 90.712C129.793 91.3002 129.826 91.8956 129.813 92.4909C129.806 92.8807 129.74 93.2705 129.726 93.6674C129.706 94.1423 129.68 94.6171 129.713 95.092C129.813 96.8142 129.952 98.5365 130.045 100.259C130.078 100.84 129.985 101.435 130.032 102.009C130.145 103.306 130.311 104.589 130.451 105.886C130.484 106.17 130.51 106.46 130.431 106.786C130.358 106.595 130.271 106.404 130.218 106.205C129.66 104.178 129.507 102.08 129.394 99.9823C129.321 98.657 129.241 97.3387 129.049 96.0134C129.049 96.311 129.029 96.6158 129.049 96.9064C129.235 99.5571 129.387 102.208 129.647 104.851C129.74 105.808 130.105 106.737 130.351 107.715C130.49 107.601 130.544 107.566 130.623 107.502C130.457 108.544 131.095 109.26 131.514 110.047C131.666 110.337 131.985 110.33 132.238 110.139C132.829 109.706 133.421 109.295 133.879 108.657C135.002 107.105 135.985 105.468 136.809 103.724C137.421 102.427 137.926 101.06 138.643 99.8335C139.6 98.2034 140.112 96.3748 140.849 94.6455C141.5 93.1146 141.939 91.4774 142.484 89.8969C142.803 88.9755 143.155 88.0754 143.48 87.1612C143.753 86.3957 144.025 85.6232 144.264 84.8436C144.796 83.1001 145.294 81.3566 145.819 79.6131C146.231 78.2452 146.65 76.8844 147.068 75.5236C147.959 72.6603 148.849 69.7899 149.746 66.9266C150.69 63.9144 151.633 60.9023 152.597 57.8972C153.268 55.7923 153.959 53.6873 154.663 51.5894C155.68 48.5489 156.703 45.5155 157.733 42.4821C158.464 40.3417 159.208 38.2084 159.959 36.0751C160.278 35.1608 160.63 34.2677 160.949 33.3535C161.035 33.1054 161.015 32.8219 161.101 32.5739C161.374 31.7942 161.666 31.0146 161.959 30.2421C162.304 29.3136 162.67 28.3994 163.002 27.4638C163.281 26.6842 163.407 25.8124 163.806 25.1179C164.198 24.4233 164.258 23.6508 164.537 22.942C164.816 22.2404 165.028 21.5033 165.221 20.7733C165.773 18.6754 166.51 16.6484 167.407 14.6923C167.945 13.5158 168.776 12.5661 169.812 11.829C170.277 11.4959 170.723 11.4604 171.214 11.666C171.573 12.1975 171.414 12.6015 171.068 13.0764C170.603 13.7071 170.251 14.4371 169.859 15.1246C169.819 15.2025 169.826 15.3089 169.799 15.5215C170.869 14.5647 171.261 13.0834 172.543 12.4385C172.942 12.8495 173.586 13.0055 173.52 13.8489C174.111 13.6362 174.41 13.9694 174.716 14.3946C175.008 14.7986 175.174 15.3372 175.679 15.5499C175.739 15.5711 175.786 15.6633 175.806 15.7341C175.965 16.3366 176.224 16.9319 176.244 17.5343C176.271 18.3494 176.151 19.1786 176.032 19.9866C175.885 20.9717 175.281 21.7442 174.875 22.616C174.404 23.6295 174.005 24.6855 173.573 25.7203C173.547 25.7912 173.553 25.8833 173.52 25.9471C173.035 27.0102 172.55 28.0662 172.065 29.1293C171.852 29.6042 171.62 30.072 171.44 30.561C171.088 31.5178 170.789 32.503 170.424 33.4527C170.105 34.2819 169.706 35.0757 169.367 35.8908C168.982 36.8263 168.63 37.7831 168.251 38.7257C167.912 39.5762 167.547 40.4196 167.201 41.263C166.782 42.3049 166.357 43.3396 165.959 44.3886C165.62 45.2674 165.307 46.1534 164.988 47.0464C164.769 47.6559 164.59 48.2796 164.357 48.8891C164.198 49.3285 163.972 49.7396 163.799 50.1719C163.068 52.0075 162.331 53.8432 161.626 55.693C161.095 57.0893 160.596 58.4997 160.078 59.903C159.381 61.7953 158.676 63.6876 157.972 65.58C157.354 67.2313 156.723 68.8756 156.105 70.5199C155.281 72.7028 154.437 74.8858 153.633 77.0829C153.201 78.2665 152.836 79.4784 152.424 80.6691C151.952 82.037 151.467 83.3978 150.982 84.7515C150.165 87.0124 149.354 89.2803 148.504 91.5341C147.992 92.902 147.414 94.2486 146.876 95.6023C146.397 96.8143 145.945 98.0333 145.454 99.2452C145.261 99.7201 144.995 100.167 144.69 100.762C144.59 100.514 144.543 100.4 144.49 100.28C144.623 99.9256 144.763 99.5713 144.896 99.2169C145.088 98.8129 145.281 98.416 145.46 98.0049C145.48 97.9624 145.387 97.8632 145.268 97.6293C145.181 98.2955 144.796 98.6853 144.916 99.2311C144.291 99.3657 144.504 99.876 144.49 100.287C144.191 100.344 144.318 100.592 144.304 100.769L144.324 100.748C144.171 100.904 143.959 101.031 143.872 101.223C143.56 101.903 143.288 102.605 142.995 103.299L143.002 103.285C142.583 103.76 142.311 104.299 142.311 104.972L142.337 104.944C141.892 105 141.826 105.376 141.786 105.744C141.779 105.794 141.952 105.865 142.038 105.922L142.025 105.9C141.992 106.191 141.985 106.177 141.653 106.361C141.587 106.396 141.6 106.595 141.573 106.715L141.593 106.701C141.161 106.871 140.989 107.219 140.975 107.686L140.995 107.651C140.577 107.8 140.537 108.168 140.53 108.558L140.517 108.572ZM121.447 56.0616C121.089 56.175 121.042 56.4088 121.228 56.9121C121.321 56.5152 121.374 56.2813 121.427 56.0403C121.693 55.7001 121.693 55.7001 121.361 55.4024C121.394 55.6859 121.421 55.8773 121.447 56.0616ZM120.344 60.477C120.205 60.9094 120.012 61.3275 119.939 61.774C119.587 63.7443 119.201 65.7146 119.135 67.7346C119.128 67.9614 119.135 68.1881 119.135 68.4149C119.275 67.8267 119.328 67.2455 119.414 66.6785C119.554 65.7217 119.713 64.772 119.866 63.8152C119.932 63.4254 120.032 63.0427 120.085 62.6458C120.185 61.9158 120.251 61.1858 120.338 60.4558C120.843 60.2361 120.53 59.8037 120.643 59.3359C120.291 59.7541 120.318 60.1156 120.344 60.477ZM129.527 83.7025C129.593 83.7025 129.653 83.7025 129.72 83.7025C129.919 80.9455 130.125 78.1956 130.304 75.4386C130.49 72.632 130.623 69.8183 130.836 67.0187C131.042 64.2688 131.314 61.526 131.56 58.7831C131.341 59.1659 131.221 59.5698 131.162 59.9738C131.042 60.7818 130.969 61.6039 130.836 62.4119C130.338 65.5587 130.178 68.7339 130.025 71.9161C129.952 73.447 129.799 74.9779 129.7 76.5088C129.593 78.2027 129.48 79.8966 129.414 81.5905C129.394 82.2992 129.487 83.0079 129.527 83.7025ZM141.646 96.2756C141.281 97.0339 140.929 97.7073 140.63 98.4089C140.324 99.1247 140.145 99.9115 139.779 100.585C139.421 101.244 139.341 102.016 138.816 102.633C138.344 103.186 138.185 104.029 137.839 104.71C137.487 105.397 137.088 106.049 136.683 106.708C136.284 107.36 135.866 107.998 135.447 108.636C135.035 109.26 134.617 109.883 134.205 110.507C134.437 110.486 134.603 110.401 134.703 110.266C135.434 109.324 136.171 108.402 136.862 107.417C137.48 106.538 137.826 105.532 138.384 104.639C138.696 104.136 138.989 103.59 139.228 103.03C139.321 102.817 139.374 102.598 139.467 102.385C139.72 101.825 139.999 101.286 140.231 100.719C140.637 99.7343 141.022 98.742 141.387 97.7427C141.547 97.3245 141.879 96.9064 141.646 96.2756ZM117.972 84.8436C118.032 84.8507 118.092 84.8578 118.152 84.8719C118.178 84.7798 118.231 84.6877 118.231 84.5955C118.271 83.5962 118.324 82.5969 118.344 81.5976C118.371 80.3006 118.304 78.9965 118.398 77.6995C118.504 76.1402 118.743 74.5952 118.896 73.043C119.009 71.909 119.069 70.7609 119.155 69.6269C119.089 69.6198 119.022 69.6056 118.956 69.5986C118.823 70.3286 118.65 71.0515 118.577 71.7885C118.444 73.0288 118.378 74.2691 118.278 75.5094C118.192 76.6151 118.065 77.7207 118.012 78.8264C117.966 79.7761 117.986 80.7329 117.986 81.6897C117.966 82.7386 117.972 83.7876 117.972 84.8436ZM119.66 71.6114C119.441 73.2698 119.288 74.8787 119.201 76.4946C119.115 78.1602 119.049 79.8328 118.976 81.4983C118.909 83.1001 118.829 84.7089 119.022 86.3107C119.128 85.1696 119.188 84.0357 119.255 82.8946C119.334 81.6047 119.255 80.3218 119.494 79.0248C119.76 77.5506 119.793 76.0198 119.912 74.5172C119.972 73.8014 120.005 73.0856 120.032 72.3697C120.045 72.1287 120.118 71.8311 119.66 71.6114ZM119.76 71.1365C120.138 70.9097 120.145 70.5908 120.158 70.2789C120.172 69.9316 120.158 69.5915 120.172 69.2442C120.251 67.4156 120.53 65.6154 120.883 63.8294C120.902 63.7443 120.869 63.6451 120.856 63.4963C120.324 64.2971 119.56 69.6552 119.76 71.1365ZM118.231 89.3795C118.172 89.3795 118.112 89.3795 118.052 89.3795C117.886 89.982 118.098 90.5986 118.059 91.201C117.992 92.2216 118.072 92.8028 118.231 92.9658C118.231 91.7822 118.231 90.5844 118.231 89.3795ZM141.833 95.8504C141.965 95.4039 142.517 95.2692 142.231 94.7305C141.753 94.9148 141.759 95.3117 141.833 95.8504ZM146.138 95.5385C145.965 96.0134 145.786 96.4953 145.613 96.9702C145.666 96.9914 145.72 97.0127 145.773 97.034C145.832 96.5024 146.331 96.148 146.138 95.5385ZM120.696 58.6131C121.235 58.4288 121.035 58.0531 121.022 57.6775C120.444 57.8476 120.683 58.2374 120.696 58.6131ZM120.796 63.1206C120.869 63.1277 120.936 63.1419 121.009 63.149C121.035 62.745 121.148 62.3552 121.142 61.9441C121.089 61.9371 121.029 61.93 120.976 61.9229C120.916 62.3269 120.856 62.7237 120.796 63.1206ZM144.098 95.1133C144.231 94.7731 144.324 94.5321 144.457 94.1919C144.019 94.3975 143.846 94.5959 144.098 95.1133ZM139.726 109.628C139.773 109.657 139.826 109.685 139.872 109.713C140.052 109.394 140.497 109.217 140.331 108.629C140.098 109.019 139.912 109.324 139.726 109.628ZM142.397 103.661C142.264 103.604 142.171 103.54 142.151 103.561C142.072 103.639 142.012 103.739 141.945 103.838C142.012 103.838 142.078 103.859 142.138 103.838C142.211 103.81 142.271 103.746 142.397 103.661ZM119.128 88.8196C119.102 88.8196 119.075 88.8196 119.042 88.8126C119.042 88.9543 119.042 89.096 119.042 89.2378C119.062 89.2378 119.082 89.2378 119.095 89.2378C119.108 89.096 119.115 88.9543 119.128 88.8196ZM146.643 94.5037C146.583 94.5037 146.524 94.5038 146.464 94.4967C146.464 94.5959 146.457 94.7022 146.47 94.8014C146.47 94.8156 146.577 94.8298 146.583 94.8227C146.603 94.7234 146.623 94.61 146.643 94.5037ZM139.155 111.209C138.955 111.138 138.896 111.103 138.829 111.095C138.789 111.088 138.716 111.131 138.716 111.152C138.716 111.209 138.736 111.308 138.769 111.322C138.816 111.336 138.882 111.287 139.155 111.209Z" fill="white"/>
<path d="M77.9594 59.1584C77.6937 58.9528 77.4943 59.13 77.3016 59.3072C77.2285 59.371 77.1754 59.4702 77.1422 59.5623C76.9229 60.1152 76.8033 60.746 76.4711 61.2066C76.1189 61.7028 76.0193 62.2272 75.9196 62.7871C75.9129 62.8367 75.9129 62.9147 75.8797 62.936C75.3681 63.2833 75.3017 63.8999 75.1156 64.4244C74.7369 65.5016 74.1189 66.4655 73.8598 67.6066C73.6538 68.528 73.2419 69.3926 72.9429 70.2927C72.7967 70.7392 72.7236 71.2141 72.5708 71.6606C72.1057 73.0285 71.8266 74.4459 71.501 75.8563C71.4744 75.9839 71.4213 76.1044 71.3615 76.2958C71.1821 76.232 71.0093 76.1753 70.8366 76.1186H70.8432C71.0093 75.5658 71.1489 74.9988 71.3548 74.4601C71.5608 73.9215 71.707 73.3829 71.7336 72.7946C71.7469 72.4969 71.9529 72.2205 72.0326 71.9228C72.3382 70.7321 72.6306 69.5414 72.9229 68.3437C73.4479 67.8759 73.1223 66.912 73.8465 66.5506C73.9196 66.5151 73.9462 66.3167 73.9661 66.1891C74.0326 65.693 74.0857 65.1969 74.1455 64.6724C74.3714 64.5661 74.5841 64.4598 74.8033 64.3605C74.5508 63.7085 74.8365 63.1486 75.0691 62.5887C75.202 62.2556 75.3282 61.9083 75.5276 61.6177C75.9329 61.0011 75.9528 60.179 76.4844 59.6332C76.5375 59.5836 76.5707 59.5057 76.5973 59.4348C77.1555 57.7834 78.0923 56.3659 78.976 54.9059C79.3016 54.3743 79.7601 53.935 79.9661 53.2971C80.0923 52.9073 80.4378 52.5883 80.6903 52.2481C81.4345 51.2559 82.1455 50.2424 82.9361 49.2998C83.5076 48.6194 84.1853 48.0382 84.8232 47.4216C85.4012 46.8617 85.9527 46.2593 86.584 45.7703C87.3215 45.1891 88.0856 44.6008 88.9095 44.1968C90.5175 43.4101 92.1454 42.6588 93.8796 42.2407C94.8497 42.0068 95.8131 41.7162 96.8231 41.7942C97.4011 41.8367 97.9526 41.943 98.4045 42.3753C98.4775 42.4462 98.5639 42.5171 98.6569 42.5313C99.853 42.751 100.69 43.644 101.634 44.3315C102.411 44.8985 103.029 45.6568 103.687 46.3585C104.105 46.805 104.424 47.3224 104.81 47.7831C105.195 48.2437 105.468 48.8674 105.733 49.4344C106.079 50.1715 106.311 50.9795 106.497 51.7804C106.737 52.808 106.896 53.857 107.069 54.9059C107.242 55.9761 107.421 57.0534 107.514 58.1307C107.673 59.9593 107.793 61.7878 107.886 63.6164C107.919 64.3322 107.86 65.048 107.813 65.7638C107.693 67.7554 107.567 69.7399 107.441 71.7244C107.434 71.8307 107.454 71.9512 107.414 72.0433C106.949 72.9789 107.122 74.0065 107.036 74.9917C106.982 75.6012 106.856 76.1824 106.717 76.7706C106.551 77.4794 106.564 78.2306 106.517 78.9677C106.491 79.4071 106.438 79.8182 106.066 80.0237C106.132 80.4419 106.185 80.8104 106.252 81.2144C106.032 81.3136 105.86 81.3916 105.594 81.5121C105.806 81.6326 105.939 81.7034 106.026 81.746C105.893 82.6177 105.773 83.4753 105.634 84.3258C105.547 84.8644 105.494 85.4031 105.228 85.9205C105.022 86.3103 105.109 86.856 105.016 87.3238C104.923 87.8058 104.757 88.2806 104.65 88.7625C104.511 89.4075 104.384 90.0595 104.278 90.7116C104.165 91.3565 104.092 91.9802 103.866 92.6181C103.428 93.8726 103.175 95.1979 102.81 96.4808C102.411 97.8841 101.999 99.2732 101.554 100.662C101.182 101.832 100.856 103.044 100.318 104.128C99.9925 104.787 99.926 105.538 99.441 106.155C99.0157 106.694 98.9028 107.502 98.6038 108.161C98.2649 108.912 97.8197 109.621 97.5274 110.393C97.2882 111.024 96.9094 111.549 96.6104 112.13C96.2915 112.753 95.9726 113.37 95.6005 113.958C95.1221 114.717 94.6503 115.489 94.0789 116.155C93.3281 117.034 92.6836 118.034 91.7533 118.742C91.3414 119.054 90.9959 119.451 90.5972 119.791C90.4045 119.954 90.1786 120.068 89.9726 120.209C89.7866 120.337 89.6072 120.465 89.4278 120.606C89.3281 120.684 89.2617 120.84 89.1554 120.869C88.0657 121.152 87.1554 121.974 85.9262 121.918C84.4777 121.847 83.0491 121.832 81.7003 121.187C81.6538 121.166 81.6073 121.145 81.5607 121.138C81.0425 121.053 80.4578 121.11 80.0259 120.861C79.6073 120.62 79.202 120.344 78.7701 120.103C78.3249 119.855 77.8996 119.522 77.5209 119.168C76.6571 118.36 75.8531 117.481 75.1422 116.51C73.7934 114.681 72.5309 112.796 71.5475 110.705C71.2485 110.074 70.8366 109.5 70.7635 108.749C70.7369 108.501 70.4578 108.295 70.3848 108.033C70.0592 106.857 69.6206 105.701 69.5476 104.454C69.5409 104.298 69.5476 104.093 69.4678 103.993C68.9097 103.327 69.0758 102.498 69.0426 101.733C68.9496 99.7693 68.8765 97.8061 68.8765 95.8429C68.8831 93.4331 68.9628 91.0234 69.0359 88.6208C69.0492 88.2735 69.1755 87.9333 69.2751 87.4868C69.2685 87.4797 69.1755 87.3592 69.1223 87.2883C69.5874 85.7078 69.4678 84.0494 69.8532 82.4335C70.2784 82.6674 70.1655 82.9792 70.1323 83.2485C70.0127 84.2691 69.8864 85.2826 69.7735 86.3032C69.5608 88.1814 69.6472 90.0666 69.6937 91.9519C69.7137 92.9229 69.6074 93.9009 69.5874 94.879C69.5808 95.2121 69.6605 95.5523 69.8067 95.9138C69.8864 95.6303 70.026 95.3468 70.0392 95.0633C70.0725 94.0002 70.0525 92.937 70.0858 91.8739C70.1256 90.6336 70.1921 89.3862 70.2519 88.1459C70.4313 88.0751 70.5642 88.0254 70.697 87.9688C70.6904 87.912 70.6838 87.8341 70.6705 87.827C70.325 87.749 70.3316 87.4797 70.3848 87.2104C70.511 86.5938 70.6372 85.9843 70.7967 85.3818C70.8299 85.2401 70.9695 85.1267 71.0558 84.9991C71.109 85.0133 71.1688 85.0346 71.222 85.0487C71.2286 85.3535 71.2884 85.6653 71.2353 85.9559C70.7568 88.5428 70.7369 91.1723 70.6771 93.7875C70.6107 96.5233 70.6505 99.2661 70.9097 101.995C70.9761 102.661 71.1289 103.285 71.521 103.859C71.4279 102.817 71.3017 101.775 71.2552 100.726C71.222 100.003 71.1622 99.2874 71.1289 98.5645C71.1024 97.8486 71.1356 97.1328 71.1422 96.4099C71.1489 95.6657 71.109 94.9215 71.1489 94.1844C71.2552 92.4126 71.4014 90.6478 71.5342 88.883C71.5874 88.1955 71.6472 87.5081 71.7004 86.8206C71.7336 86.3953 71.8133 85.9914 72.119 85.6582C72.2253 85.5448 72.2851 85.3039 72.2519 85.1551C71.9994 83.9077 72.1987 82.7099 72.4977 81.505C72.697 80.6971 72.7435 79.8466 72.8831 79.0173C73.0691 77.8692 73.2817 76.7281 73.4811 75.5799C73.4944 75.502 73.4811 75.4028 73.5276 75.3461C74.1189 74.5664 73.8997 73.5671 74.1588 72.6954C74.4113 71.8378 74.5907 70.9518 74.8631 70.1013C75.4013 68.4287 75.9727 66.7703 76.5375 65.1118C76.7568 64.4669 76.9428 63.8077 77.2219 63.1911C77.9594 61.5681 78.7368 59.9664 79.501 58.3504C79.6206 58.1024 79.7335 57.8472 79.7667 57.5495C78.7701 58.7686 78.2053 60.264 77.4545 61.6319C76.6837 63.0352 76.192 64.5732 75.6538 66.0899C75.1223 67.5782 74.6771 69.102 74.0857 70.5762C73.8731 69.9313 74.0525 69.3572 74.2385 68.7902C74.5907 67.6916 74.9694 66.6002 75.3216 65.5016C75.5741 64.722 75.8 63.9282 76.0458 63.1486C76.0591 63.099 76.0724 63.0423 76.1056 63.0069C76.4512 62.5674 76.6771 62.0997 76.8033 61.5185C76.9096 61.0011 77.2219 60.5333 77.4611 60.0514C77.6139 59.7395 77.8133 59.4561 77.986 59.1513C78.0525 58.9599 78.0857 58.7402 78.1986 58.5985C78.4445 58.2866 78.5574 57.9464 78.5442 57.5495C78.1322 58.0102 77.6937 58.4425 77.9594 59.1584ZM98.4244 106.977C98.6769 106.694 99.029 106.474 99.0091 105.829C98.8363 106.056 98.73 106.148 98.6769 106.268C98.5772 106.502 98.5108 106.75 98.4377 107.006C98.2915 107.282 98.1453 107.558 98.0058 107.842C97.7001 108.458 97.3015 109.033 97.3015 109.777C96.8031 109.919 96.6636 110.294 96.7234 110.79C96.4776 111.265 95.9593 111.563 95.9526 112.186C95.8198 112.286 95.6404 112.357 95.554 112.498C95.2749 112.952 95.0291 113.434 94.7766 113.909C94.7101 114.029 94.6636 114.157 94.6038 114.284C94.6503 114.313 94.6902 114.341 94.7367 114.376C95.142 113.788 95.5872 113.228 95.8928 112.562C95.946 112.456 95.9194 112.307 95.9327 112.179C96.2915 112.236 96.3978 111.953 96.4842 111.683C96.5772 111.393 96.6304 111.081 96.6968 110.776C96.9892 110.5 97.3148 110.245 97.2749 109.755C97.3746 109.585 97.5008 109.422 97.5672 109.231C97.7201 108.77 98.1785 108.409 97.9858 107.828C98.4377 107.679 98.4576 107.636 98.4244 106.977ZM93.3347 115.914C93.8729 115.95 94.0789 115.723 94.0656 115.298C93.8929 115.454 93.6138 115.688 93.3347 115.914C93.2218 116.12 93.1088 116.318 92.956 116.588C93.4875 116.524 93.3945 116.212 93.3347 115.914ZM93.2949 52.0497C93.8331 51.9859 93.946 51.8654 94.1188 51.1283C93.6869 51.2843 93.5075 51.6812 93.3148 52.0568C93.2151 52.2269 93.1022 52.3899 93.0158 52.56C92.9028 52.7868 92.6437 52.9569 92.7168 53.2333C92.8763 53.0915 93.0291 52.9569 93.1819 52.8222C93.4078 52.6025 93.4676 52.3474 93.2949 52.0497ZM85.4943 52.8506C85.8531 52.9782 86.0856 52.8364 86.3182 52.5245C87.2418 51.2559 88.2384 50.051 89.3613 48.9737C90.3314 48.0453 91.2882 47.1027 92.2384 46.153C92.3314 46.0608 92.3514 45.8978 92.4045 45.7632C92.1321 45.834 92.0058 46.0041 91.8464 46.1033C90.9361 46.6916 90.1254 47.4216 89.3746 48.2225C88.1188 49.5691 86.7766 50.8377 85.8996 52.5316C85.8265 52.6734 85.6338 52.7372 85.5076 52.8435C85.4743 53.0278 85.4345 53.212 85.3747 53.5239C85.7069 53.2333 85.6471 53.0419 85.4943 52.8506ZM99.0888 48.0595C98.7832 47.9248 98.4045 48.1091 98.132 48.3359C97.4875 48.8745 96.6237 49.1297 96.1852 49.9518C96.152 50.0156 96.0789 50.0581 96.0191 50.1007C95.2151 50.6677 94.7234 51.5465 94.2184 52.3757C93.8796 52.9286 93.461 53.4388 93.2284 54.098C92.9826 54.7925 92.471 55.3737 92.0723 56.0045C91.7799 56.4652 91.461 56.9117 91.4078 57.4928C90.7899 57.8614 90.7633 58.6339 90.4244 59.1938C89.8464 60.1577 89.4677 61.2563 89.0092 62.2981C88.8763 62.6029 88.7899 62.936 88.6437 63.2407C88.3514 63.829 87.9527 64.3747 87.7334 64.9984C87.5075 65.6434 87.2085 66.26 87.0158 66.8908C86.6105 68.2515 85.7268 69.3997 85.5541 70.8456C85.5408 70.9448 85.4876 71.0511 85.4212 71.129C84.883 71.7811 84.9295 72.6883 84.5308 73.4041C84.3315 73.7585 84.2916 74.205 84.1587 74.609C83.8664 75.4807 83.5076 76.3312 83.2817 77.2171C83.0225 78.2377 82.3847 79.1307 82.4245 80.2434C82.4245 80.2931 82.3913 80.3427 82.3647 80.3852C81.7069 81.2357 81.7601 82.3555 81.388 83.3265C80.9362 84.5172 80.7235 85.8142 80.3315 87.0403C80.0458 87.9404 79.7734 88.8263 79.7667 89.7973C79.7667 90.4564 79.6804 91.1156 79.6006 91.7747C79.5209 92.4551 79.3481 93.1284 79.3016 93.8088C79.202 95.4531 79.1089 97.0974 79.089 98.7416C79.0691 100.917 79.0358 103.107 79.182 105.276C79.2551 106.431 79.089 107.672 79.6936 108.763C79.7468 108.862 79.7003 109.025 79.7136 109.153C79.7933 109.968 79.7601 110.833 79.9926 111.598C80.4179 112.966 80.7302 114.384 81.3681 115.674C81.594 116.127 81.893 116.276 82.3581 116.219C83.0092 116.134 83.5674 115.766 84.1189 115.475C84.5707 115.234 84.8963 114.71 85.481 114.695C85.5142 114.695 85.5674 114.625 85.5674 114.582C85.6271 113.987 86.1919 113.895 86.4976 113.547C87.3614 112.576 88.2982 111.683 88.9361 110.5C89.4743 109.493 90.1919 108.586 90.6304 107.544C90.9228 106.843 91.5673 106.311 91.5673 105.461C91.5673 105.361 91.6404 105.262 91.6935 105.177C91.9992 104.617 92.358 104.078 92.6038 103.49C93.1088 102.3 93.4543 101.038 94.039 99.8756C94.0656 99.826 94.0922 99.7764 94.0922 99.7268C94.0922 98.9401 94.6105 98.3447 94.7566 97.6076C94.9095 96.8705 95.2085 96.1689 95.4344 95.446C95.6736 94.6805 95.9194 93.908 96.1387 93.1355C96.3247 92.4834 96.4709 91.8172 96.6437 91.1581C96.75 90.7541 96.8563 90.3501 96.9825 89.9532C97.0423 89.7548 97.2217 89.5776 97.2284 89.3862C97.2749 88.3656 97.5872 87.423 97.9194 86.4733C98.0922 85.9843 98.1254 85.4385 98.245 84.9212C98.5307 83.695 98.843 82.4831 99.122 81.257C99.3347 80.3144 99.2882 79.3292 99.647 78.4007C99.8529 77.8763 99.8862 77.2738 99.9659 76.6997C100.026 76.2532 99.926 75.7358 100.105 75.3673C100.424 74.7082 100.378 74.0349 100.431 73.3616C100.458 73.0426 100.471 72.7237 100.511 72.4118C100.717 70.7038 100.969 69.0028 101.135 67.2877C101.281 65.8064 101.348 64.318 101.428 62.8367C101.468 62.0429 101.487 61.2492 101.474 60.4554C101.461 59.9238 101.341 59.3994 101.328 58.8678C101.282 56.8195 101.095 54.7925 100.703 52.7797C100.597 52.241 100.544 51.6882 100.411 51.1496C100.238 50.455 100.019 49.7817 99.8131 49.0943C99.7998 49.0446 99.7599 49.0092 99.7267 48.9666C99.5473 48.6973 99.348 48.4138 99.0888 48.0595ZM94.6038 102.973C94.5241 102.923 94.451 102.867 94.3713 102.817C94.338 102.923 94.3181 103.03 94.2716 103.129C93.8464 104.086 93.4277 105.049 92.9826 105.992C92.5374 106.935 92.0457 107.849 91.5939 108.785C90.9228 110.181 90.3181 111.612 89.2949 112.775C88.9427 113.179 88.6836 113.675 88.2982 114.256C89.0424 114.086 89.3281 113.519 89.6072 113.115C90.5108 111.804 91.3879 110.443 92.1055 109.004C92.9693 107.282 93.6669 105.46 94.4311 103.674C94.5307 103.462 94.5507 103.207 94.6038 102.973ZM69.6738 96.9769C69.6074 97.1045 69.5276 97.1824 69.5409 97.232C69.7535 98.1109 69.7137 98.9968 69.6073 99.8827C69.5608 100.237 69.6472 100.528 69.9662 100.733C70.0658 99.4858 70.1123 98.2597 69.6738 96.9769ZM95.5208 49.5974C94.7367 50.2849 94.7367 50.2849 94.7101 50.696C94.9427 50.292 95.3812 50.2211 95.5208 49.5974ZM70.2851 102.129C70.1854 101.825 70.0791 101.52 69.9462 101.123C69.6206 101.711 70.0525 101.903 70.2851 102.129ZM70.9097 105.383C70.7901 105.276 70.6705 105.163 70.5376 105.064C70.5309 105.057 70.418 105.163 70.418 105.212C70.418 105.475 70.5642 105.567 70.9097 105.383ZM79.2152 55.8273C79.481 55.9265 79.6804 55.9265 79.7335 55.4304C79.481 55.6147 79.3481 55.721 79.2152 55.8273ZM94.2716 109.111C94.3314 109.118 94.3912 109.125 94.451 109.125C94.451 108.997 94.451 108.862 94.4444 108.735C94.4444 108.728 94.3181 108.728 94.3181 108.735C94.2982 108.855 94.2849 108.983 94.2716 109.111ZM78.9694 56.8691C78.9295 56.8337 78.903 56.8054 78.8697 56.7841C78.8564 56.8054 78.8299 56.8266 78.8299 56.8408C78.8365 56.8833 78.8631 56.9188 78.8764 56.9613C78.9096 56.9258 78.9362 56.8975 78.9694 56.8691ZM99.6935 104.291C99.6403 104.213 99.6005 104.156 99.5606 104.1C99.5207 104.149 99.4476 104.199 99.441 104.249C99.4343 104.305 99.5008 104.369 99.5274 104.426C99.5805 104.39 99.6337 104.348 99.6935 104.291ZM93.7799 113.873C93.7533 113.838 93.7334 113.802 93.7068 113.774C93.6869 113.809 93.6537 113.845 93.6404 113.88C93.6337 113.895 93.6736 113.937 93.6736 113.937C93.7135 113.923 93.7467 113.895 93.7799 113.873ZM92.4643 117.077C92.4377 117.148 92.4111 117.219 92.3912 117.282C92.4244 117.289 92.4709 117.311 92.4909 117.297C92.5241 117.268 92.5573 117.219 92.5573 117.176C92.5573 117.155 92.5042 117.119 92.4643 117.077Z" fill="white"/>
<path d="M71.189 81.9447C71.8468 78.2167 72.5312 74.4887 73.7073 70.7607C73.9863 71.1647 73.9398 71.4695 73.8601 71.7743C73.5943 72.7949 73.3019 73.8154 73.0694 74.8431C72.8634 75.7361 72.7305 76.6433 72.5644 77.5505C72.5511 77.6285 72.5644 77.7206 72.5378 77.7844C72.1524 78.727 72.1857 79.7547 71.9797 80.7327C71.9066 81.0942 71.7936 81.4486 71.6674 81.7959C71.6275 81.9093 71.4747 81.973 71.375 82.0581C71.3152 82.0226 71.2554 81.9872 71.189 81.9447Z" fill="white"/>
<path d="M71.1554 82.4548C71.2484 82.4477 71.3148 82.4265 71.3879 82.4336C71.4344 82.4336 71.4742 82.4761 71.5739 82.5257C71.4676 83.2484 71.7399 84.0916 70.9893 84.7718C70.5841 83.879 71.3148 83.213 71.1554 82.4548Z" fill="white"/>
<path d="M70.1256 80.4634C70.1455 80.0524 70.1654 79.6415 70.192 79.2021C70.6969 79.3722 70.7301 79.6981 70.6371 80.0879C70.564 80.3996 70.4245 80.5555 70.1123 80.4492L70.1256 80.4634Z" fill="white"/>
<path d="M70.8368 76.126C70.8833 76.2181 70.9165 76.3244 70.9763 76.4023C71.3748 76.8912 71.3217 77.3872 71.0228 77.8974C70.963 77.9966 70.8833 78.0887 70.8169 78.1809L70.8368 78.2021C70.8435 77.5148 70.8435 76.8275 70.8501 76.1331C70.8435 76.126 70.8368 76.126 70.8368 76.126Z" fill="white"/>
<path d="M140.517 108.572L140.53 108.593C140.816 108.367 140.949 108.055 140.995 107.686L140.975 107.722C141.181 107.396 141.387 107.063 141.593 106.737L141.573 106.751C141.839 106.978 141.706 107.226 141.58 107.445C141.354 107.835 141.115 108.225 140.849 108.593C140.809 108.643 140.63 108.579 140.517 108.572Z" fill="white"/>
<path d="M144.297 100.804C144.517 101.399 144.39 101.789 143.746 102.363C143.753 101.711 144.211 101.314 144.311 100.79C144.317 100.79 144.297 100.804 144.297 100.804Z" fill="white"/>
<path d="M142.99 103.342C143.189 103.165 143.388 102.987 143.621 102.775C143.554 103.434 143.548 103.427 143.182 103.753C143.123 103.604 143.063 103.462 143.003 103.328L142.99 103.342Z" fill="white"/>
<path d="M142.311 105.007C142.397 104.986 142.49 104.957 142.636 104.922C142.53 105.262 142.444 105.574 142.324 105.864C142.298 105.921 142.125 105.914 142.025 105.935L142.039 105.956C142.085 105.793 142.138 105.623 142.185 105.46C142.231 105.297 142.284 105.142 142.338 104.979L142.311 105.007Z" fill="white"/>
<path d="M70.8165 78.1812C70.8165 78.2308 70.8165 78.2874 70.8165 78.337C70.8098 78.5071 70.8563 78.7338 70.5972 78.7197C70.5308 78.7197 70.4179 78.6063 70.4046 78.5283C70.3647 78.3087 70.4843 78.1953 70.6903 78.1882C70.7368 78.1882 70.7833 78.1953 70.8364 78.2024L70.8165 78.1812Z" fill="white"/>
<path d="M70.1125 80.4561C70.1856 80.6615 70.2586 80.867 70.3848 81.2071C70.1191 81.0867 69.9796 81.0229 69.8003 80.945C69.9265 80.7678 70.0328 80.619 70.1324 80.4702C70.1258 80.4631 70.1125 80.4561 70.1125 80.4561Z" fill="white"/>
</g>
</svg>
