<svg width="17" height="17" viewBox="0 0 17 17" fill="none" xmlns="http://www.w3.org/2000/svg">
<path d="M13.0714 16C10.1389 16 7.11236 14.65 4.7626 12.3063C2.28125 9.83125 0.927781 6.7375 1.00297 3.75625V3.64375L1.07817 3.55C1.28495 3.2875 1.49172 3.0625 1.6985 2.8375C2.48802 2.05 3.40913 1.45 4.44303 1.05625C4.53702 1.01875 4.64981 1 4.7626 1C5.11976 1 5.7213 1.1875 5.83409 1.54375C6.21005 2.55625 6.6612 3.8875 6.99957 5.14375C7.05596 5.3875 6.99957 6.1 6.64241 6.30625L5.43933 7.05625C5.36413 7.1125 5.32654 7.1875 5.30774 7.2625C5.27014 7.46875 5.34534 7.73125 5.49572 7.95625C5.96567 8.6125 6.51082 9.25 7.13116 9.86875C7.75149 10.4688 8.39063 11.0125 9.02977 11.4812C9.34933 11.725 9.80049 11.7438 9.91328 11.5563L10.684 10.3562C10.872 10.0562 11.4547 9.98125 11.6615 9.98125C11.7367 9.98125 11.7931 9.98125 11.8495 10C13.3909 10.3375 14.312 10.6375 15.4963 11.1813C15.8535 11.35 16.1167 12.1375 15.9475 12.5687C15.5527 13.6 14.9512 14.5188 14.1616 15.3062C13.9361 15.5312 13.6917 15.7375 13.4473 15.925L13.3909 16H13.0714ZM1.67971 3.8875C1.64211 6.6625 2.92038 9.53125 5.19495 11.7812L5.25135 11.8375C7.46952 14.05 10.3268 15.325 13.0714 15.325H13.1653C13.3721 15.1562 13.5601 14.9875 13.7293 14.8187C14.4436 14.1062 14.9888 13.2625 15.3647 12.3063C15.4023 12.1938 15.3083 11.8375 15.2143 11.7625C14.1241 11.275 13.2405 10.9938 11.7367 10.6562C11.5299 10.6562 11.3231 10.7125 11.2667 10.75L10.5336 11.9125C10.214 12.4375 9.31174 12.4938 8.6726 12.025C7.99587 11.5375 7.33794 10.975 6.6988 10.3375C6.05966 9.7 5.49572 9.025 5.00697 8.35C4.725 7.975 4.61221 7.525 4.6874 7.13125C4.7438 6.85 4.89418 6.625 5.11976 6.475L6.32284 5.725C6.34164 5.66875 6.39803 5.3875 6.37923 5.29375C6.05966 4.05625 5.58971 2.74375 5.23255 1.75C5.19495 1.73125 4.96937 1.65625 4.80019 1.65625C4.7438 1.65625 4.725 1.65625 4.725 1.65625C3.7663 2.03125 2.92038 2.575 2.20605 3.2875C2.01807 3.49375 1.84889 3.68125 1.67971 3.8875Z" fill="#DDC3BE" stroke="#DDC3BE" stroke-width="0.3"/>
</svg>
