<svg width="20" height="19" viewBox="0 0 20 19" fill="none" xmlns="http://www.w3.org/2000/svg">
<path d="M9.93096 4.38245C6.98086 4.38245 4.58008 6.67884 4.58008 9.50068C4.58008 12.3225 6.98086 14.6177 9.93096 14.6177C12.8811 14.6177 15.2806 12.3225 15.2806 9.50068C15.2806 6.67884 12.8811 4.38245 9.93096 4.38245ZM9.93096 13.1593C7.82138 13.1593 6.106 11.5173 6.106 9.50068C6.106 7.48282 7.82138 5.84202 9.93096 5.84202C12.0393 5.84202 13.7559 7.48282 13.7559 9.50068C13.7547 11.5173 12.0393 13.1593 9.93096 13.1593Z" fill="white"/>
<path d="M15.8649 4.87733C16.2547 4.87733 16.5707 4.5751 16.5707 4.20227C16.5707 3.82945 16.2547 3.52722 15.8649 3.52722C15.4751 3.52722 15.1592 3.82945 15.1592 4.20227C15.1592 4.5751 15.4751 4.87733 15.8649 4.87733Z" fill="white"/>
<path d="M15.2592 0H4.60191C2.05999 0 0 1.97164 0 4.40305V14.597C0 17.0284 2.06126 19 4.60191 19H15.2592C17.8011 19 19.8624 17.0284 19.8624 14.597V4.40426C19.8624 1.97164 17.8011 0 15.2592 0ZM18.3364 14.597C18.3364 16.2195 16.9555 17.5404 15.2592 17.5404H4.60191C2.9056 17.5404 1.52592 16.2195 1.52592 14.597V4.40426C1.52592 2.7817 2.9056 1.46079 4.60191 1.46079H15.2592C16.9555 1.46079 18.3364 2.78049 18.3364 4.40426V14.597Z" fill="white"/>
</svg>
