<svg width="13" height="16" viewBox="0 0 13 16" fill="none" xmlns="http://www.w3.org/2000/svg">
<path d="M10.3165 1.7667C7.96088 -0.588899 4.12659 -0.588899 1.771 1.7667C0.790933 2.74676 0.171944 4.04664 0.030952 5.42905C-0.11004 6.80802 0.233843 8.20762 0.997262 9.3665C1.0007 9.37338 1.00414 9.37682 1.00758 9.3837L5.70845 15.8315C5.78755 15.9381 5.91134 16 6.04202 16C6.1727 16 6.29649 15.9381 6.37559 15.8315L11.0765 9.3837C11.0799 9.37682 11.0833 9.37338 11.0868 9.3665C11.8502 8.20762 12.1941 6.81146 12.0531 5.42905C11.9155 4.05008 11.2965 2.74676 10.3165 1.7667ZM10.4059 8.9057L6.04202 14.8858L1.67815 8.9057C1.02133 7.90844 0.729034 6.70141 0.849393 5.51502C0.969752 4.32174 1.50277 3.20069 2.35216 2.35474C4.38794 0.318951 7.69609 0.318951 9.73188 2.35474C10.5778 3.20069 11.1108 4.32518 11.2346 5.51502C11.355 6.70141 11.0593 7.905 10.4059 8.9057Z" fill="#DDC3BE"/>
<path d="M6.03964 3.10474C4.65379 3.10474 3.5293 4.23267 3.5293 5.61508C3.5293 6.99749 4.65723 8.12542 6.03964 8.12542C7.42205 8.12542 8.54998 6.99749 8.54998 5.61508C8.54998 4.23267 7.42549 3.10474 6.03964 3.10474ZM6.03964 7.3001C5.11116 7.3001 4.35462 6.54356 4.35462 5.61508C4.35462 4.6866 5.11116 3.93005 6.03964 3.93005C6.96812 3.93005 7.72467 4.6866 7.72467 5.61508C7.72467 6.54356 6.96812 7.3001 6.03964 7.3001Z" fill="#DDC3BE"/>
</svg>
