<svg width="22" height="22" viewBox="0 0 22 22" fill="none" xmlns="http://www.w3.org/2000/svg">
<path d="M6.07071 10.5371L6 10.4664L5.92929 10.5371L5.43909 11.0273L5.36838 11.098L5.43909 11.1688L9.16458 14.8942L9.23529 14.965L9.30601 14.8942L18.5342 5.66605C19.5635 7.20289 20.2137 9.1029 20.2137 11C20.2137 16.0428 16.0428 20.2137 11 20.2137C5.85983 20.2137 1.78627 16.0435 1.78627 11C1.78627 5.85915 5.85915 1.78627 11 1.78627C12.5532 1.78627 14.2003 2.17479 15.5538 3.0449L15.6365 3.09808L15.691 3.01625L16.0832 2.42802L16.143 2.33827L16.049 2.28539C14.4674 1.39575 12.7841 0.9 11 0.9C5.45458 0.9 0.9 5.45458 0.9 11C0.9 16.5454 5.45458 21.1 11 21.1C16.5454 21.1 21.1 16.5454 21.1 11C21.1 8.7231 20.2102 6.14848 18.6218 4.46088L18.5512 4.38582L18.4783 4.4587L9.23529 13.7017L6.07071 10.5371Z" fill="#B7928B" stroke="#B7928B" stroke-width="0.2"/>
</svg>
