<svg width="135" height="135" viewBox="0 0 135 135" fill="none" xmlns="http://www.w3.org/2000/svg">
<circle cx="67.4999" cy="67.4999" r="67.4999" fill="#EBDBD8"/>
<mask id="mask0" mask-type="alpha" maskUnits="userSpaceOnUse" x="0" y="0" width="135" height="135">
<circle cx="67.5001" cy="67.4999" r="67.4999" fill="#EBDBD8"/>
</mask>
<g mask="url(#mask0)">
<path d="M-29.5523 132.606C-29.6719 132.899 -29.7856 133.193 -29.9052 133.48C-30.1683 133.333 -30.3955 133.212 -30.6646 133.059C-30.7125 133.684 -30.7125 133.684 -30.2819 133.722C-30.1145 134.009 -29.953 134.277 -29.7856 134.564C-29.965 134.73 -30.1623 134.915 -30.3955 135.132C-30.252 135.342 -30.1204 135.527 -29.9351 135.802C-30.246 135.834 -30.5091 135.859 -30.8022 135.885C-30.7723 136.325 -30.4852 136.484 -30.1503 136.618C-30.258 137.186 -30.0965 137.773 -30.551 138.245C-30.7304 138.43 -30.6527 138.583 -30.3477 139.023C-30.7603 139.374 -30.838 139.865 -30.8081 140.407C-30.8022 140.541 -30.85 140.688 -30.8919 140.822C-31.0115 141.224 -31.0952 141.645 -31.2626 142.021C-31.5556 142.684 -31.8905 143.328 -32.2374 143.96C-32.3032 144.081 -32.4945 144.19 -32.6321 144.196C-33.1942 144.241 -33.5829 144.636 -34.0493 144.885C-34.4201 145.076 -34.8088 145.28 -35.2453 144.993C-35.341 145.134 -35.4068 145.293 -35.5204 145.395C-35.6699 145.529 -35.8852 145.561 -35.9629 145.319C-36.1244 144.815 -36.4353 144.974 -36.7104 145.115C-37.0513 145.287 -37.3622 145.389 -37.727 145.172C-37.8107 145.121 -37.9782 145.166 -38.0918 145.217C-38.9768 145.638 -39.3297 145.491 -39.6586 144.547C-39.6765 144.502 -39.7004 144.464 -39.7243 144.419C-39.826 144.47 -39.9217 144.521 -40.0592 144.598C-40.125 144.528 -40.1788 144.406 -40.2625 144.375C-40.7469 144.164 -40.9024 143.769 -40.8845 143.239C-40.8785 143.099 -40.9024 142.946 -40.9562 142.818C-41.4167 141.778 -41.327 140.739 -41.016 139.686C-40.9443 139.437 -40.9323 139.17 -40.9144 138.914C-40.8127 137.632 -40.8247 136.325 -40.5974 135.068C-40.412 134.035 -40.3702 132.976 -40.119 131.974C-39.814 130.775 -39.7184 129.544 -39.4911 128.339C-39.3117 127.382 -39.0964 126.431 -38.9111 125.475C-38.8632 125.219 -38.8752 124.945 -38.8333 124.69C-38.7675 124.346 -38.6719 124.007 -38.5941 123.669C-38.5463 123.465 -38.4925 123.255 -38.4685 123.044C-38.3669 122.247 -38.2712 121.456 -37.9602 120.697C-37.8048 120.321 -37.8705 119.849 -37.7928 119.428C-37.6373 118.617 -37.4519 117.814 -37.2845 117.01C-37.0752 116.021 -36.8838 115.026 -36.6686 114.038C-36.531 113.393 -36.3636 112.756 -36.2141 112.111C-36.1483 111.811 -36.0945 111.505 -36.0347 111.205C-36.0167 111.11 -36.0466 110.989 -36.0048 110.925C-35.5383 110.236 -35.5682 109.4 -35.341 108.648C-35.1915 108.156 -35.0839 107.665 -34.9762 107.168C-34.7191 106.026 -34.3663 104.91 -34.2168 103.73C-34.157 103.277 -33.7204 102.881 -33.4334 102.422C-33.8101 102.058 -33.6786 101.586 -33.5231 101.114C-33.4334 100.853 -33.2958 100.604 -33.248 100.336C-33.1583 99.8323 -33.1583 99.3092 -32.8414 98.8627C-32.7158 98.6841 -32.6978 98.4162 -32.662 98.1802C-32.5902 97.7401 -32.6022 97.2872 -32.2792 96.93C-32.2135 96.8599 -32.2194 96.7067 -32.1955 96.5855C-31.9204 94.9207 -31.2806 93.3643 -30.856 91.7441C-30.6228 90.8639 -30.3836 89.9772 -30.1145 89.1034C-29.7616 87.9552 -29.3909 86.8198 -29.0141 85.6844C-28.7331 84.8424 -28.4221 84.0068 -28.1351 83.1648C-28.0514 82.9224 -28.0095 82.6545 -27.9676 82.3994C-27.9138 82.0804 -27.9676 81.7232 -27.6208 81.5319C-27.549 81.4872 -27.5311 81.3214 -27.4952 81.2066C-27.2919 80.5113 -27.1065 79.816 -26.8853 79.1271C-26.5922 78.2341 -26.2693 77.3539 -25.9703 76.4672C-25.8746 76.1802 -25.8328 75.8676 -25.7431 75.5742C-25.462 74.6875 -25.1869 73.7945 -24.87 72.9207C-24.4335 71.7087 -23.9252 70.5223 -23.5185 69.2976C-23.2434 68.4747 -22.8488 67.7093 -22.6634 66.8354C-22.5378 66.2613 -22.2089 65.7255 -22.0235 65.1387C-21.8082 64.4689 -21.4793 63.8438 -21.2222 63.1932C-20.7438 61.994 -20.3132 60.7757 -19.793 59.602C-19.476 58.8812 -19.3146 58.0902 -18.896 57.4077C-18.6568 57.0186 -18.5731 56.5275 -18.3877 56.0937C-18.1545 55.5579 -17.8913 55.0412 -17.6402 54.5182C-17.6282 54.499 -17.6163 54.4735 -17.6103 54.4544C-17.4967 53.2233 -16.6535 52.3111 -16.3604 51.1375C-16.1631 50.3529 -15.7146 49.6321 -15.3857 48.8858C-15.1046 48.2416 -14.8296 47.5973 -14.5425 46.9531C-14.2854 46.379 -14.0103 45.8113 -13.7472 45.2372C-13.6874 45.1096 -13.6575 44.9693 -13.6156 44.8353C-13.5678 44.6759 -13.5678 44.4718 -13.4721 44.3633C-12.898 43.7063 -12.898 42.7687 -12.4316 42.0479C-12.019 41.4036 -11.8216 40.6318 -11.5465 39.9046C-11.1818 38.9351 -10.6615 38.0357 -10.225 37.0917C-9.72862 36.0137 -9.26816 34.9165 -8.77182 33.8385C-8.49674 33.2389 -8.1798 32.6648 -7.8808 32.078C-7.8509 32.0142 -7.79708 31.9632 -7.77914 31.8994C-7.48612 30.7449 -6.84028 29.7625 -6.33796 28.7228C-6.06288 28.1487 -5.8775 27.5109 -5.43498 26.9942C-5.05226 26.5477 -4.90873 25.8715 -4.65757 25.2975C-4.25093 24.3789 -3.86822 23.4476 -3.43167 22.5482C-3.19846 22.0635 -2.77985 21.668 -2.60643 21.1705C-2.40311 20.5836 -2.09215 20.0797 -1.80511 19.5503C-1.52405 19.0209 -1.27289 18.4723 -1.00977 17.9365C-0.890171 17.6813 -0.782532 17.4198 -0.65097 17.171C-0.573231 17.0179 -0.465591 16.884 -0.369911 16.7437C-0.292171 16.6288 -0.19051 16.5268 -0.136688 16.4056C0.28191 15.3977 0.77227 14.4282 1.37027 13.5288C1.40615 13.4714 1.44801 13.4076 1.47791 13.3438C1.75299 12.7697 2.01013 12.1765 2.31511 11.6216C2.97291 10.416 3.67856 9.23597 4.31244 8.01764C4.67124 7.32874 5.17953 6.73552 5.49648 6.053C5.89714 5.19188 6.42338 4.42645 6.85394 3.59722C7.30842 2.72334 7.86456 1.91961 8.34296 1.06487C8.8692 0.120823 9.28183 -0.912504 9.89777 -1.78638C10.436 -2.55182 10.8426 -3.4002 11.3928 -4.15289C11.7635 -4.66318 11.9908 -5.29465 12.4632 -5.7284C12.5529 -5.81132 12.5828 -5.98358 12.6187 -6.11753C12.6904 -6.37267 12.828 -6.55125 13.0193 -6.72986C13.2705 -6.95949 13.4439 -7.29759 13.6353 -7.59739C14.0001 -8.15871 14.3469 -8.72639 14.7057 -9.28771C15.0226 -9.78525 15.3276 -10.2956 15.6625 -10.774C16.3203 -11.718 16.7568 -12.8342 17.618 -13.6252C17.6837 -13.6826 17.7196 -13.7847 17.7495 -13.8676C17.9827 -14.4736 18.4133 -14.9265 18.802 -15.4176C19.3163 -16.0682 19.7409 -16.7954 20.2133 -17.478C20.4465 -17.816 20.6977 -18.1349 20.9369 -18.4666C21.2119 -18.8494 21.4691 -19.2448 21.7442 -19.6212C22.1149 -20.1251 22.4378 -20.6609 22.9581 -21.0436C23.1973 -21.2222 23.2691 -21.656 23.6637 -21.6942C23.873 -22.1854 24.3574 -22.1599 24.7342 -22.3002C25.2783 -22.498 25.7866 -22.4406 26.1574 -21.8601C26.2411 -21.7325 26.4444 -21.6687 26.5999 -21.6305C27.0125 -21.522 27.4252 -21.4327 27.6165 -20.948C27.6345 -20.9033 27.6703 -20.865 27.7062 -20.8395C28.3341 -20.444 28.7408 -19.8508 29.1175 -19.1938C29.2431 -18.9706 29.3507 -18.7728 29.4165 -18.524C29.56 -17.9563 29.9128 -17.3695 29.8531 -16.8337C29.7693 -16.0938 29.8351 -15.3538 29.7275 -14.6203C29.6019 -13.7974 29.5421 -12.9555 29.4883 -12.1262C29.4285 -11.246 29.3926 -10.3657 29.3687 -9.47906C29.3447 -8.47761 29.3687 -7.47617 29.0637 -6.50023C28.956 -6.14941 29.0099 -5.74118 28.9919 -5.35846C28.8424 -2.2074 28.8065 0.962814 28.5195 4.10112C28.2743 6.79293 28.2205 9.49109 27.9933 12.1829C27.8617 13.7329 27.7301 15.2766 27.6105 16.8266C27.5806 17.2284 27.5986 17.6367 27.5747 18.0449C27.5209 19.0846 27.5687 20.1308 27.2637 21.145C27.1979 21.3682 27.2039 21.6106 27.1919 21.853C27.1022 23.8814 27.0126 25.9098 26.9229 27.9382C26.9109 28.1487 26.9169 28.3847 26.8331 28.5697C26.5282 29.2714 26.5939 30.0177 26.5461 30.7576C26.4444 32.4288 26.3607 34.0937 26.2292 35.7649C26.0976 37.4807 25.9242 39.1902 25.7508 40.8997C25.6371 42.0351 25.4996 43.1641 25.38 44.2996C25.3501 44.5802 25.374 44.8609 25.374 45.301C25.5833 45.1224 25.7268 45.0395 25.8165 44.9183C26.265 44.2676 26.6418 43.5405 27.1501 42.9536C27.772 42.2328 28.358 41.4865 28.9022 40.702C29.2192 40.2491 29.6617 39.8791 29.9069 39.388C30.2477 38.7054 30.762 38.1952 31.1806 37.5956C31.5454 37.0725 31.8205 36.4282 32.2929 36.0583C32.7713 35.6819 32.8849 35.0888 33.2975 34.6997C33.7042 34.3106 34.0211 33.8066 34.35 33.3346C34.6909 32.8434 34.9839 32.3204 35.3248 31.8293C35.8091 31.134 36.2995 30.445 36.8138 29.7689C37.7706 28.5059 38.7932 27.2876 39.6842 25.9736C40.1028 25.3549 40.6051 24.7999 40.9699 24.1365C41.1852 23.7538 41.4722 23.4221 41.7413 23.0777C42.0762 22.6312 42.4589 22.2357 42.7699 21.7573C43.2244 21.0556 43.8104 20.456 44.3247 19.799C44.6057 19.4482 44.8449 19.0591 45.12 18.7083C45.2994 18.4723 45.5147 18.2745 45.7061 18.0449C46.4057 17.2093 47.0037 16.2908 47.7213 15.4615C48.2834 14.8109 48.8396 14.122 49.3299 13.3885C49.5333 13.0887 49.7665 12.808 49.9877 12.5274C50.3166 12.1128 50.6276 11.6726 50.9924 11.2963C51.5186 10.7413 51.8894 10.0588 52.4156 9.50388C52.7385 9.16581 52.9419 8.70654 53.2349 8.33657C53.4801 8.02402 53.791 7.77526 54.0482 7.46908C54.5026 6.93327 54.9153 6.35916 55.3877 5.84249C55.9259 5.24927 56.3325 4.55401 56.8049 3.90339C57.2176 3.33568 57.7558 2.87642 58.2103 2.34699C58.5332 1.97065 58.7963 1.53689 59.1013 1.14141C59.2627 0.924534 59.4481 0.726807 59.6275 0.516312C60.3331 -0.332054 60.985 -1.22506 61.7504 -2.02239C62.2527 -2.54544 62.6115 -3.2216 63.1079 -3.75103C63.4786 -4.15288 63.7896 -4.61852 64.1484 -5.02676C64.5491 -5.47965 64.9378 -5.97718 65.3324 -6.45558C65.8108 -7.02966 66.2952 -7.59099 66.7617 -8.17783C67.264 -8.80932 67.8799 -9.33238 68.3344 -10.0213C68.5557 -10.3657 68.8786 -10.6336 69.1417 -10.9525C69.4527 -11.3353 69.7397 -11.7371 70.0387 -12.1326C70.0686 -12.1709 70.0865 -12.241 70.1164 -12.2474C70.6546 -12.3431 70.6786 -12.9874 71.0732 -13.2553C71.4619 -13.5168 71.8506 -13.8676 72.0779 -14.2822C72.4546 -14.9711 73.1244 -15.3283 73.5191 -15.9981C73.8181 -16.5084 74.3503 -16.8592 74.751 -17.3121C75.3131 -17.9372 75.917 -18.5113 76.4373 -19.181C77.0652 -19.9784 77.8008 -20.6737 78.4885 -21.42C79.1164 -22.1025 79.816 -22.7021 80.426 -23.4101C81.2333 -24.3414 82.1303 -25.1898 82.9854 -26.0828C83.3203 -26.4336 83.6193 -26.8291 83.9721 -27.1672C84.3608 -27.5435 84.8213 -27.7795 85.3774 -27.7348C85.6585 -27.7093 85.796 -27.5562 85.7542 -27.2692C85.7063 -26.9694 85.6944 -26.6569 85.4133 -26.4464C85.2638 -26.3316 85.1741 -26.121 84.9708 -25.8276C85.7602 -25.8468 86.0292 -26.6058 86.6571 -26.7143C86.7409 -26.6569 86.8664 -26.5739 87.0279 -26.4655C86.986 -26.2677 86.9502 -26.07 86.9023 -25.8404C87.004 -25.8212 87.0877 -25.7893 87.1655 -25.7893C87.7515 -25.834 87.883 -25.6426 87.6857 -25.0622C87.6438 -24.9346 87.6259 -24.8007 87.59 -24.6348C87.883 -24.571 88.1342 -24.5136 88.4093 -24.4498C88.5648 -23.6397 88.5588 -22.9253 88.0744 -22.2045C87.5541 -21.4263 87.2372 -20.495 86.699 -19.7296C86.388 -19.2831 86.2984 -18.7218 85.8857 -18.3136C85.5389 -17.9691 85.4253 -17.3695 85.1621 -16.9102C84.8332 -16.3298 84.4984 -15.7557 84.1575 -15.188C83.8764 -14.716 83.6253 -14.1802 83.3562 -13.6762C83.0213 -13.0639 82.6984 -12.4515 82.3814 -11.8328C82.0765 -11.2396 81.7954 -10.6272 81.4785 -10.0404C81.2273 -9.58113 80.9283 -9.15378 80.6652 -8.70727C80.42 -8.28628 80.1987 -7.85252 79.9715 -7.42515C79.7443 -6.99778 79.523 -6.56402 79.2958 -6.14303C78.7755 -5.19898 78.2433 -4.25493 77.735 -3.30451C77.4718 -2.81335 77.2446 -2.29669 76.9875 -1.79915C76.4313 -0.721155 75.9529 0.401482 75.349 1.46034C75.038 2.00891 74.7988 2.64042 74.5297 3.23363C74.3383 3.64825 74.141 4.06286 73.9317 4.4711C73.7164 4.90485 73.5071 5.3322 73.3636 5.8106C73.2201 6.28901 72.933 6.72276 72.7118 7.17565C72.4367 7.73697 72.1496 8.29192 71.8865 8.85324C71.5098 9.65058 71.0314 10.4288 70.7982 11.2707C70.6008 11.9852 70.2002 12.5656 69.9729 13.2482C69.7158 14.0455 69.2733 14.7726 69.0221 15.57C68.7709 16.3545 68.2327 17.0052 68.155 17.8599C68.143 17.9875 68.0474 18.1087 67.9816 18.2235C67.9038 18.3639 67.7842 18.4851 67.7364 18.6318C67.4195 19.7098 66.9351 20.7112 66.5344 21.7509C66.2892 22.3824 66.0082 22.9947 65.7451 23.6199C65.6972 23.7283 65.6434 23.8367 65.6255 23.9516C65.4461 24.9275 64.9258 25.7695 64.6746 26.7263C64.5072 27.3642 64.1544 27.9382 63.8793 28.5442C63.8434 28.6271 63.7597 28.7037 63.7597 28.7866C63.7298 29.5329 63.3052 30.1261 63.1258 30.8086C62.8507 31.8547 62.4202 32.8307 62.0554 33.8385C61.9298 34.1893 61.9238 34.5976 61.7983 34.9484C61.5351 35.7266 61.1524 36.4729 60.9611 37.2702C60.7159 38.2781 60.1657 39.1711 60.07 40.2363C60.0401 40.5617 59.795 40.8615 59.6993 41.1931C59.4362 42.0734 59.3106 43.0174 58.9278 43.8212C58.593 44.5228 58.5152 45.2627 58.294 45.9771C57.7976 47.6037 57.2594 49.2111 56.787 50.8441C56.482 51.9029 56.2727 52.9937 55.9917 54.0589C55.7405 55.0157 55.4475 55.9661 55.1724 56.9166C55.1604 56.9612 55.1066 56.9931 55.1006 57.0378C54.987 57.6437 55.005 58.3262 54.7239 58.8302C54.4249 59.3787 54.3711 59.94 54.2276 60.5078C54.096 61.0244 53.9286 61.5347 53.8209 62.0578C53.7073 62.5872 53.7013 63.1485 53.3306 63.595C53.2648 63.6716 53.2528 63.8183 53.2528 63.9395C53.2289 65.3428 52.607 66.6058 52.3917 67.9708C52.1884 69.2784 51.7638 70.5478 51.4768 71.8427C51.2256 72.9717 51.0462 74.1135 50.813 75.2425C50.7532 75.5359 50.6097 75.8166 50.514 76.1036C50.4721 76.2376 50.4243 76.3779 50.4243 76.5119C50.4303 77.5069 50.1372 78.4382 49.916 79.3887C49.8263 79.7841 49.7605 80.1796 49.6768 80.5751C49.3658 82.0868 49.1685 83.6241 48.8814 85.1358C48.6841 86.1819 48.6841 87.2918 48.3193 88.2741C47.9127 89.3585 48.0323 90.4812 47.811 91.5719C47.7094 92.0822 47.5957 92.5925 47.506 93.1028C47.3805 93.8555 47.2728 94.6082 47.1592 95.3608C46.9499 96.7705 46.7286 98.1802 46.5433 99.5963C46.3758 100.898 46.2443 102.205 46.1127 103.513C46.0649 103.959 46.0948 104.406 45.8675 104.827C45.7659 105.012 45.8077 105.292 45.7898 105.535C45.6881 107.015 45.718 108.52 45.4669 109.968C44.9167 113.1 45.1439 116.257 44.9825 119.402C44.8449 122.151 44.839 124.9 44.7732 127.65C44.7732 127.701 44.7911 127.758 44.7672 127.79C44.4503 128.351 44.7253 128.938 44.7074 129.512C44.6895 130.074 44.8689 130.641 44.9047 131.209C45.0064 132.708 45.0781 134.213 45.1559 135.712C45.1619 135.853 45.114 136.012 45.1559 136.14C45.6463 137.6 45.6283 139.131 45.7539 140.643C45.8615 141.963 46.1366 143.252 46.4117 144.54C46.5492 145.197 46.8901 145.81 47.1233 146.448C47.2609 146.824 47.3625 147.213 47.4702 147.602C47.6914 148.393 47.9964 149.133 48.427 149.822C48.8157 150.441 48.4868 150.964 47.7034 151.066C47.3326 151.11 46.9559 151.149 46.5193 151.2C46.4296 151.079 46.2921 150.9 46.1605 150.715C45.8257 150.23 45.6582 150.224 45.2456 150.683C45.1978 150.734 45.138 150.766 45.0722 150.817C44.9944 150.779 44.8808 150.76 44.8449 150.689C44.6237 150.32 44.3187 150.262 43.9838 150.441C43.7566 150.562 43.5652 150.511 43.4516 150.326C43.1945 149.905 42.7759 149.828 42.3393 149.669C42.3274 149.452 42.3094 149.222 42.2915 148.935C41.837 148.795 41.6097 148.393 41.3466 147.972C40.9101 147.264 40.629 146.448 40.031 145.854C39.9593 145.784 39.9353 145.644 39.9294 145.529C39.8935 144.987 39.744 144.502 39.5586 143.992C39.1998 143.01 38.9845 141.963 38.7035 140.949C38.5839 140.515 38.3805 140.101 38.3267 139.661C38.249 139.029 38.0277 138.455 37.8962 137.849C37.6988 136.956 37.5254 136.038 37.4955 135.119C37.4536 133.888 37.3879 132.663 37.1845 131.451C37.1188 131.056 37.1307 130.648 37.0829 130.246C37.053 129.972 36.9573 129.704 36.9274 129.429C36.9035 129.193 36.9633 128.945 36.9394 128.709C36.8915 128.224 36.7839 127.745 36.748 127.261C36.7002 126.623 36.6822 125.979 36.6822 125.341C36.6822 125.2 36.7958 125.054 36.8676 124.913C37.0829 124.499 36.9394 123.905 36.4849 123.548C36.8437 123.248 36.7958 122.827 36.76 122.413C36.7181 121.922 36.6583 121.424 36.6643 120.933C36.7061 118.35 36.754 115.766 36.8317 113.183C36.9095 110.504 37.0171 107.831 37.1188 105.152C37.1247 105.056 37.1068 104.948 37.1427 104.865C37.5852 103.768 37.4178 102.601 37.4895 101.465C37.5673 100.304 37.6869 99.1561 37.95 98.0144C38.1174 97.3063 38.0696 96.5409 38.1234 95.801C38.2011 94.6847 38.2849 93.5748 38.4882 92.4649C38.7094 91.253 38.7154 89.9964 38.841 88.7589C38.9367 87.8404 39.0623 86.9219 39.1938 86.0033C39.3912 84.6192 39.6184 83.235 39.8158 81.8508C39.8755 81.4298 39.8875 80.9961 39.9054 80.5623C39.9234 80.1541 39.9951 79.7841 40.1745 79.4014C40.3659 78.9932 40.3839 78.4829 40.4496 78.0172C40.5094 77.5899 40.5274 77.1625 40.5632 76.7351C40.5692 76.6394 40.5453 76.531 40.5872 76.4481C41.0775 75.4721 40.8742 74.3559 41.1373 73.3353C41.3646 72.4422 41.4483 71.5046 41.7114 70.6243C42.0403 69.5208 42.1659 68.3791 42.3812 67.2564C42.6144 66.0636 42.6622 64.807 43.2243 63.6843C43.4277 63.2825 43.3679 62.7467 43.4994 62.2938C43.7267 61.4901 44.0197 60.7055 44.2649 59.9018C44.3426 59.653 44.3366 59.3788 44.4084 59.1364C44.6057 58.4666 44.827 57.8096 45.0243 57.1462C45.0841 56.9421 45.1081 56.7316 45.132 56.5147C45.1679 56.2085 45.1738 55.9024 45.413 55.6664C45.4968 55.5771 45.5207 55.4112 45.5565 55.2772C45.8316 54.314 46.0768 53.3445 46.3758 52.3941C46.8303 50.9461 47.3386 49.5109 47.7811 48.063C47.9306 47.5718 47.8349 46.9531 48.0741 46.5385C48.3373 46.0792 48.4748 45.6199 48.6123 45.1288C48.8994 44.1273 49.2881 43.1514 49.5273 42.1436C49.7605 41.1549 50.3406 40.2874 50.4183 39.2413C50.4303 39.1137 50.508 38.9861 50.5678 38.8649C50.6515 38.6991 50.7651 38.546 50.8249 38.3737C51.0462 37.6912 51.2376 37.0023 51.4588 36.3198C51.704 35.5544 51.9492 34.7889 52.2243 34.0362C52.4874 33.3218 52.8342 32.633 53.0674 31.9058C53.2528 31.3253 53.3306 30.7193 53.7133 30.2154C53.8149 30.0879 53.7731 29.8455 53.8269 29.6669C53.8927 29.4564 54.0063 29.2586 54.084 29.0481C54.1379 28.9014 54.1977 28.742 54.2096 28.5889C54.2455 28.085 54.3591 27.6257 54.7418 27.2876C54.7717 27.2621 54.8136 27.2111 54.8136 27.1728C54.8076 26.3563 55.3578 25.7504 55.5372 24.9913C55.7644 24.0281 56.0694 23.0905 56.3505 22.14C56.7152 20.9217 57.0741 19.7034 57.4627 18.4914C57.6123 18.0258 57.8455 17.592 58.0189 17.1328C58.1684 16.7373 58.3538 16.3418 58.3956 15.9336C58.4494 15.4424 58.6647 15.0533 58.88 14.6514C59.0833 14.2687 58.9936 13.7584 59.3764 13.4395C59.472 13.3566 59.4541 13.1269 59.5139 12.9738C59.6215 12.6932 59.7651 12.4253 59.8727 12.1446C59.9803 11.864 60.0581 11.5706 60.1478 11.2771C60.2375 11.022 60.3272 10.7732 60.4647 10.3905C60.082 10.7094 60.0521 10.9773 60.1597 11.2899C59.9863 11.1432 59.8308 11.1687 59.6933 11.3409C59.5199 11.5514 59.3165 11.7492 59.1969 11.9915C58.7664 12.8973 58.0727 13.5798 57.4867 14.3517C56.9843 15.0278 56.5897 15.7933 56.1412 16.514C55.9319 16.8521 55.6986 17.171 55.4654 17.49C54.987 18.147 54.4727 18.7721 54.1319 19.5375C54.0362 19.7544 53.797 19.8947 53.6535 20.0989C53.1392 20.8133 52.6309 21.534 52.1346 22.2676C51.7279 22.8736 51.3392 23.4987 50.9386 24.1046C50.496 24.7744 50.0356 25.4314 49.5871 26.0948C49.4316 26.3244 49.2761 26.5541 49.1087 26.7709C48.7379 27.2748 48.4509 27.8362 48.0562 28.3273C47.3745 29.1821 46.8303 30.158 46.2203 31.0765C45.3712 32.365 44.51 33.6472 43.6609 34.9357C43.5473 35.1079 43.4516 35.2929 43.3499 35.4778C43.326 35.5161 43.332 35.5927 43.3081 35.6118C42.7699 35.9371 42.6742 36.5941 42.3333 37.0725C41.831 37.7805 41.3885 38.5332 40.9101 39.2668C40.647 39.6686 40.3779 40.0641 40.1088 40.4596C40.0549 40.5361 39.9593 40.5936 39.9353 40.6765C39.6662 41.5886 38.9427 42.1754 38.4882 42.96C38.3387 43.2215 38.231 43.5086 38.0696 43.7573C37.8423 44.1145 37.5613 44.4399 37.34 44.8035C36.8377 45.6327 36.3533 46.4811 35.863 47.323C35.54 47.8716 35.2889 48.4839 34.7925 48.9049C34.7567 48.9305 34.7208 48.9751 34.7088 49.0134C34.4995 50.1169 33.6085 50.7547 33.1421 51.686C32.7115 52.5535 32.2271 53.3892 31.7248 54.212C31.2703 54.9583 30.768 55.6663 30.2836 56.3935C30.2298 56.47 30.182 56.553 30.152 56.6359C29.9308 57.2801 29.4883 57.7586 29.1055 58.288C28.9202 58.5431 28.8424 58.8812 28.675 59.1555C28.2205 59.9018 27.7361 60.6226 27.2876 61.3689C27.0066 61.8345 26.7913 62.3512 26.4983 62.8041C26.1335 63.3654 25.7149 63.8885 25.3142 64.4243C24.8358 65.0749 24.3275 65.7 23.7056 66.1784C23.3049 66.4846 22.8983 66.9885 22.2824 66.593C22.2285 66.5611 22.1209 66.6185 22.0372 66.644C21.1761 66.9311 20.8771 66.7525 20.6379 65.8084C20.6199 65.7446 20.5781 65.6872 20.5183 65.5724C20.2671 65.6171 20.01 65.6745 19.7528 65.7128C19.5316 65.751 19.3043 65.8084 19.089 65.7893C18.515 65.7383 18.1741 65.5916 18.4432 64.9091C18.4851 64.807 18.4671 64.6794 18.4791 64.5008C18.0964 64.6539 17.7675 64.7879 17.4445 64.9154C16.7688 65.1833 16.2127 65.0303 15.6625 64.5136C15.1961 64.0735 15.1004 63.5568 15.0884 62.9763C15.0765 62.4851 15.1004 62.4852 14.6339 62.4022C14.5203 62.3831 14.4127 62.3576 14.2991 62.3576C13.9702 62.364 13.7967 62.1407 13.707 61.8664C13.5456 61.4008 13.3602 60.9288 13.3064 60.4376C13.2286 59.6785 13.2107 58.9131 13.4499 58.1668C13.5336 57.8989 13.6114 57.6055 13.6054 57.3312C13.5815 55.341 13.8745 53.3764 14.0838 51.4054C14.2632 49.7023 14.5323 48.0055 14.7595 46.3088C14.7834 46.143 14.8133 45.9771 14.8372 45.8113C15.0047 44.5866 15.1781 43.3619 15.3276 42.1308C15.4651 40.9954 15.5608 39.8536 15.6804 38.7118C15.6984 38.546 15.6924 38.361 15.7701 38.227C16.0811 37.6593 16.0093 37.0278 16.0871 36.4155C16.2366 35.2354 16.4459 34.0618 16.6193 32.8881C16.6851 32.4671 16.7269 32.0397 16.7927 31.6124C17.008 30.2027 17.1455 28.7675 17.4744 27.3897C17.7675 26.1713 17.7854 24.9339 17.9469 23.7092C18.0246 23.1287 18.216 22.561 18.3296 21.9869C18.4013 21.617 18.4432 21.2343 18.4851 20.8579C18.5329 20.3923 18.4372 19.9011 18.7781 19.4993C18.8558 19.41 18.8439 19.225 18.8618 19.0846C18.9635 18.2108 18.9395 17.2922 19.1847 16.463C19.5495 15.2128 19.4179 13.9051 19.7169 12.6677C20.0219 11.4175 20.1176 10.1354 20.297 8.86602C20.5601 7.00344 20.9189 5.15998 21.2239 3.30379C21.2957 2.8828 21.2837 2.44903 21.3196 2.01528C21.3614 1.52413 21.2837 1.00745 21.6246 0.580082C21.6963 0.49078 21.6784 0.305822 21.6903 0.165491C21.8099 -0.969913 21.9056 -2.11172 22.0551 -3.24712C22.2824 -4.96937 22.5455 -6.67885 22.8086 -8.50315C22.2226 -8.13956 22.0133 -7.58462 21.7262 -7.1126C21.4631 -6.67247 21.2538 -6.19406 20.9907 -5.74755C20.5003 -4.89919 20.0339 -4.01892 19.4658 -3.22797C19.1488 -2.78784 18.9395 -2.28394 18.6106 -1.85019C18.3356 -1.48661 18.1741 -1.02097 17.911 -0.619112C17.3429 0.248388 16.8704 1.19884 16.3741 2.12375C16.0213 2.78713 15.7522 3.50789 15.3396 4.12663C15.0166 4.59865 14.8612 5.16636 14.4784 5.61287C14.1137 6.03386 13.9283 6.62708 13.6472 7.131C13.3602 7.64767 13.0014 8.12605 12.7801 8.66824C12.5708 9.19767 12.2718 9.65694 12.0147 10.1481C11.6439 10.8498 11.333 11.577 10.9921 12.2914C10.7649 12.7634 10.5795 13.2673 10.3044 13.701C9.69444 14.6578 9.28182 15.7231 8.74362 16.7182C8.41472 17.3241 8.23532 18.0194 7.89446 18.6126C7.4041 19.4737 7.02138 20.3859 6.57886 21.2725C6.06458 22.2867 5.59216 23.3328 5.09582 24.3598C5.02406 24.5065 4.91642 24.6277 4.82074 24.7617C4.743 24.8765 4.62938 24.9721 4.5935 25.0997C4.19882 26.3882 3.52308 27.53 2.96693 28.742C2.65598 29.4245 2.30315 30.107 2.06395 30.8341C1.82475 31.5549 1.44204 32.2119 1.15499 32.9136C0.844032 33.6727 0.580914 34.4572 0.275932 35.2227C0.102512 35.6564 -0.0828705 36.0838 -0.304131 36.4857C-0.920071 37.6147 -1.27289 38.8713 -1.84697 40.0131C-2.25361 40.8232 -2.41507 41.7481 -2.92935 42.5135C-3.15659 42.8452 -3.28815 43.2598 -3.43167 43.6489C-3.7247 44.4463 -3.99379 45.25 -4.27485 46.0473C-4.51405 46.7298 -4.64562 47.4825 -5.0104 48.0757C-5.29146 48.5414 -5.28548 49.0644 -5.54262 49.5045C-6.027 50.321 -6.17052 51.2906 -6.60108 52.1389C-6.88214 52.6939 -7.10938 53.2807 -7.33662 53.8612C-7.49808 54.2758 -7.61768 54.7032 -7.74924 55.1305C-7.78512 55.2454 -7.76718 55.392 -7.83296 55.475C-8.39508 56.1894 -8.50272 57.1079 -8.81966 57.9308C-9.11268 58.6962 -9.45354 59.4361 -9.74058 60.2016C-10.0635 61.05 -10.3685 61.9111 -10.6615 62.7786C-10.823 63.2442 -10.9485 63.7162 -11.0861 64.1883C-11.1818 64.5136 -11.1279 64.8963 -11.4867 65.1259C-11.5884 65.1897 -11.5764 65.4768 -11.6063 65.6617C-11.6841 66.1975 -11.8216 66.7015 -12.1445 67.148C-12.2701 67.3202 -12.318 67.5945 -12.318 67.8241C-12.3299 68.4747 -12.5213 69.0807 -12.7007 69.6867C-12.7605 69.8844 -12.8203 70.0822 -12.898 70.3245C-13.2987 70.4521 -13.4781 70.6817 -13.5199 71.2622C-13.5917 72.2892 -13.795 73.3289 -14.2615 74.2666C-14.2794 74.1454 -14.3033 74.0306 -14.3452 73.8009C-14.5605 74.1326 -14.4468 74.2092 -14.2435 74.2474C-14.2435 74.4069 -14.2076 74.5855 -14.2615 74.7258C-14.417 75.1532 -14.6083 75.5614 -14.7877 75.9824C-14.8056 75.823 -14.7399 75.6125 -14.9731 75.5423C-15.0927 75.8166 -14.9731 75.9186 -14.7698 75.9697C-14.7937 76.1291 -14.8236 76.295 -14.8475 76.4544C-14.8894 76.4863 -14.9312 76.5182 -14.9671 76.5565C-15.0269 76.4162 -15.0867 76.2822 -15.1405 76.1547C-15.5053 76.3078 -15.3857 76.5246 -15.2721 76.6841C-15.0329 77.0158 -15.0568 77.3283 -15.2601 77.6919C-15.3797 77.6281 -15.4754 77.5835 -15.6249 77.5069C-15.7385 77.7174 -15.882 77.9279 -15.9598 78.1575C-16.0375 78.3936 -16.0614 78.6551 -16.0854 78.9039C-16.0973 79.0059 -16.0794 79.1271 -16.0435 79.2228C-15.9957 79.3631 -15.8342 79.5162 -15.8641 79.6119C-15.912 79.7714 -16.0674 79.9053 -16.199 80.0201C-16.2528 80.0712 -16.3605 80.0584 -16.4501 80.0711C-16.3724 80.3072 -16.3006 80.5241 -16.193 80.8621C-16.4143 80.7346 -16.5159 80.6771 -16.6654 80.5878C-16.7073 80.7728 -16.7252 80.9323 -16.7671 81.079C-16.8747 81.4171 -16.9405 81.7806 -17.1139 82.0741C-17.401 82.5525 -17.4548 82.6226 -17.3412 83.3179C-17.2096 83.2477 -17.09 83.1839 -16.9345 83.1074C-16.9943 83.42 -17.0541 83.7198 -17.1259 84.0706C-17.5744 84.0068 -17.7717 84.3513 -17.9571 84.6893C-18.0169 84.7978 -18.0588 84.9572 -18.0289 85.0657C-17.9153 85.5058 -18.0887 85.7864 -18.5551 86.0607C-18.304 86.1755 -18.1485 86.2457 -17.999 86.3159C-18.0468 86.6157 -18.0767 86.992 -18.1724 87.3556C-18.3219 87.9233 -18.4714 88.4974 -18.7046 89.0332C-18.8721 89.4223 -18.9079 89.7412 -18.6508 90.1176C-19.4103 90.9149 -19.3684 92.0248 -19.7152 92.9816C-19.8348 93.3069 -19.9006 93.6577 -20.0382 93.9703C-20.3431 94.6656 -20.4388 95.4246 -20.6242 96.1582C-20.6541 96.2666 -20.672 96.4133 -20.7438 96.4707C-21.0428 96.7004 -20.8634 96.9109 -20.7079 97.1533C-20.8335 97.1788 -20.9112 97.1979 -20.9053 97.1979C-21.1564 97.8677 -21.3896 98.4928 -21.6229 99.1115C-21.6408 99.1625 -21.7126 99.2136 -21.7664 99.2263C-22.1252 99.2837 -22.1132 99.456 -21.892 99.6792C-21.6109 99.9663 -21.6587 100.362 -21.8202 100.604C-22.2149 101.21 -22.1072 101.925 -22.3106 102.588C-22.4361 102.633 -22.5737 102.684 -22.783 102.76C-22.484 103.258 -22.6096 103.742 -22.7292 104.24C-22.9205 105.044 -23.0401 105.867 -23.2614 106.664C-23.4946 107.493 -23.5544 108.38 -23.973 109.158C-24.0747 109.349 -23.967 109.668 -23.9551 109.93C-24.3677 110.287 -24.4933 110.759 -24.4394 111.314C-24.4215 111.499 -24.3617 111.735 -24.4454 111.862C-24.9119 112.59 -24.7325 113.502 -25.0614 114.267C-25.1271 114.427 -25.0972 114.644 -25.1092 114.88C-25.3962 114.937 -25.5697 115.109 -25.5517 115.498C-25.5398 115.817 -25.6474 116.136 -25.7012 116.462C-25.7311 116.646 -25.755 116.831 -25.761 117.01C-25.779 117.501 -25.7192 118.012 -26.1796 118.356C-26.2334 118.394 -26.2574 118.541 -26.2334 118.618C-26.1437 118.956 -26.1916 119.255 -26.2753 119.606C-26.359 119.963 -26.4906 120.289 -26.6102 120.62C-26.7597 121.041 -26.9092 121.45 -26.9391 121.909C-26.975 122.438 -26.8972 122.981 -27.256 123.472C-27.4235 123.701 -27.4055 124.103 -27.4235 124.435C-27.4653 125.117 -27.4713 125.137 -28.1171 125.181C-28.0753 125.366 -28.0334 125.545 -27.9975 125.717C-28.1231 125.819 -28.2367 125.921 -28.3504 126.01C-28.2068 126.24 -28.0813 126.431 -27.8899 126.738C-28.5417 126.725 -28.6852 127.108 -28.7211 127.56C-28.757 127.975 -28.8646 128.383 -28.6434 128.811C-28.5357 129.021 -28.5836 129.295 -28.8168 129.512C-29.0919 129.767 -29.3072 130.093 -29.5763 130.418C-29.5822 130.399 -29.5822 130.469 -29.5583 130.482C-29.1935 130.667 -29.5523 131.081 -29.4148 131.196C-29.1816 131.388 -29.044 131.515 -29.1995 131.815C-29.349 131.796 -29.4925 131.777 -29.642 131.764C-29.6241 132.102 -29.6062 132.376 -29.5882 132.651C-29.5523 132.638 -29.5523 132.606 -29.5523 132.606ZM43.021 34.4509C43.5234 34.4509 43.32 34.0299 43.3798 33.762C43.4516 33.7301 43.5592 33.7237 43.6011 33.6663C44.0915 32.9838 44.5758 32.2949 45.0602 31.606C45.3951 31.2169 45.7479 30.8342 45.8974 30.3047C46.1725 30.1134 46.8781 28.9716 46.8961 28.6845C46.9021 28.6207 46.8662 28.5506 46.8542 28.4804C47.0276 28.557 47.1771 28.5952 47.2967 28.372C47.3924 28.1934 47.512 28.0275 47.6197 27.8553C47.8828 27.6065 47.8828 27.6066 47.6735 27.2685C47.6615 27.5173 47.6496 27.6959 47.6376 27.8745C47.512 27.9382 47.3685 27.9829 47.2549 28.0786C47.1114 28.1998 46.9858 28.3528 46.8542 28.4868C46.5492 28.9461 46.2383 29.399 45.9572 29.871C45.8914 29.9794 45.9273 30.1644 45.9154 30.3111C45.4669 30.6237 45.0662 30.9681 45.0841 31.6187C44.9705 31.6698 44.8091 31.6761 44.7433 31.7718C44.2768 32.4288 43.8343 33.0986 43.3858 33.762C43.32 33.8895 43.2542 34.0171 43.1945 34.1447C43.1406 34.2467 43.0928 34.3552 43.045 34.4636C42.7579 34.419 42.8117 34.5976 42.9134 34.7889C42.9433 34.6741 42.9852 34.5593 43.021 34.4509ZM32.3407 44.7524C32.0238 44.51 31.9042 44.7397 31.7966 45.0076C31.6829 45.2755 31.5693 45.537 31.4557 45.8049C31.1387 45.8241 31.0849 45.9899 31.2285 46.2705C31.1029 46.3024 30.9175 46.2897 30.8697 46.3726C30.5886 46.8319 30.3434 47.3103 30.0863 47.7887C29.8531 48.1204 29.3926 48.2798 29.4165 48.8029C29.2431 48.8284 29.0816 48.822 29.0159 49.0836C28.9501 49.3451 28.8305 49.613 28.681 49.8299C28.4178 50.1934 28.0949 50.506 27.8318 50.8696C27.7301 51.0035 27.7242 51.214 27.6763 51.3926C27.2398 51.6733 26.9049 52.005 27.0604 52.6173C26.576 52.5791 26.5282 52.662 26.7016 53.2297C26.4684 53.0766 26.3428 53.2169 26.2112 53.4083C25.8225 53.9887 25.4099 54.5501 25.0332 55.1369C24.7521 55.5834 24.5069 56.0554 24.178 56.6423C24.4471 56.4573 24.6624 56.3999 24.7222 56.2596C25.2365 55.1433 26.0797 54.2694 26.6836 53.2169C26.8032 53.0128 26.9228 52.8023 27.0424 52.5982C27.2338 52.1836 27.772 51.9667 27.6584 51.3735C27.9036 51.4692 27.9813 51.3161 28.1009 51.1056C28.4238 50.5506 28.7467 49.9829 29.1654 49.5173C29.3866 49.2685 29.4644 49.0899 29.3986 48.7901C30.0026 48.7327 30.0623 48.2735 30.0683 47.7696C30.6723 47.457 30.9773 46.8893 31.2045 46.2514C31.4736 46.2068 31.4377 45.9899 31.4377 45.7921C31.8563 45.6327 31.8683 45.6008 31.7846 45.0012C32.1135 45.2691 32.2092 44.9693 32.3407 44.7524C32.269 44.5228 32.6995 44.3761 32.4125 44.0508C32.2032 44.2932 32.2929 44.5228 32.3407 44.7524ZM41.0656 35.9626C40.5393 35.9562 40.5094 35.9945 40.7307 36.441C40.8563 36.2688 40.9639 36.1157 41.0656 35.9626C41.0177 35.7011 41.4902 35.6181 41.2928 35.2609C41.0596 35.4714 40.9998 35.6947 41.0656 35.9626ZM52.5412 20.2838C53.0973 20.3157 53.1272 20.2838 52.9837 19.8246C52.8342 19.9777 52.6847 20.1307 52.5412 20.2838C52.4814 20.4369 52.4216 20.59 52.3618 20.7367C52.3977 20.7495 52.4276 20.7559 52.4635 20.7686C52.4874 20.6091 52.5113 20.4497 52.5412 20.2838ZM33.471 42.7814C33.0823 42.8133 32.9925 43.0812 32.9686 43.4703C33.2318 43.2726 33.5547 43.1769 33.459 42.7687C33.8118 42.6857 33.9434 42.3987 34.0331 42.0798C34.2962 41.8374 34.643 41.6524 34.643 41.1549C34.4457 41.3526 34.2663 41.4866 34.1407 41.6715C34.069 41.78 34.0749 41.9522 34.045 42.0989C33.5965 42.0798 33.5607 42.4561 33.471 42.7814ZM42.0224 35.8032C42.5785 35.7649 42.6622 35.6628 42.4888 35.2482C42.3393 35.4396 42.1898 35.6309 42.0403 35.8287C41.9147 36.0328 41.7891 36.2369 41.6636 36.4474C41.4363 36.8174 41.2031 37.1873 40.9759 37.5637C40.647 37.755 40.4795 38.0038 40.6649 38.412C40.33 38.3163 40.0609 38.4567 40.0011 38.8011C39.8815 39.439 39.3553 39.7771 39.0922 40.3129C38.8231 40.8615 38.4643 41.359 38.1473 41.882C38.0815 41.9649 38.0217 42.0606 37.944 42.1308C37.6988 42.3604 37.4596 42.5837 37.5493 42.9855C37.4297 42.9919 37.2443 42.9536 37.2085 43.0174C36.9334 43.4703 36.7002 43.9551 36.4251 44.4144C36.1081 44.931 35.7374 45.4094 35.4384 45.9389C35.265 46.2451 35.1992 46.615 35.0856 46.9531C34.5952 46.8701 34.7148 47.2592 34.6849 47.5399C34.6131 47.5973 34.5294 47.6356 34.4756 47.7057C34.1706 48.1267 33.8596 48.535 33.5786 48.9751C33.3095 49.3961 33.0882 49.8554 32.8371 50.2891C32.7713 50.4039 32.6876 50.5251 32.5859 50.5953C32.3108 50.7867 32.251 51.0737 32.2391 51.3926C31.8205 51.3544 31.8683 51.6924 31.8324 51.9667C31.4796 52.4834 31.1029 52.9809 30.774 53.5167C30.475 54.0015 30.2418 54.5373 29.9368 55.0221C29.6677 55.4559 29.285 55.8194 29.0517 56.2723C28.6929 56.9676 28.2504 57.5991 27.8139 58.2369C27.7002 58.4028 27.7301 58.6707 27.6883 58.894C27.1022 59.1364 26.9886 59.3405 27.0365 60.0676C26.8989 60.0931 26.6836 60.0612 26.6298 60.1442C26.1993 60.8139 25.8225 61.5284 25.386 62.1917C25.1348 62.5745 24.8777 62.938 24.6684 63.3527C24.489 63.6971 24.1661 63.9523 23.9269 64.2712C23.873 64.3414 23.9209 64.4881 23.9209 64.6348C24.2259 64.4243 24.5787 64.3158 24.6803 64.0798C24.8657 63.6397 25.1109 63.2697 25.392 62.8998C25.7926 62.3767 26.1155 61.7835 26.4504 61.203C26.6597 60.8331 26.8331 60.4376 27.0185 60.0549C27.3474 59.736 27.6703 59.4106 27.6763 58.8876C27.8976 58.6069 28.1428 58.339 28.3401 58.0392C28.6511 57.5608 28.9202 57.0569 29.2251 56.5721C29.8232 55.6281 30.4451 54.6968 31.0431 53.7528C31.2643 53.4019 31.4437 53.0192 31.6829 52.6875C31.8504 52.4515 31.8982 52.2346 31.8085 51.9667C32.263 51.9029 32.263 51.9029 32.2092 51.3863C32.5979 51.3544 32.7653 51.0928 32.8909 50.7292C32.9746 50.4741 33.16 50.2572 33.3035 50.034C33.7281 49.3834 34.1646 48.7455 34.5713 48.0821C34.655 47.9418 34.6311 47.7185 34.655 47.5335C34.966 47.4953 35.1573 47.3486 35.0796 46.9722C35.1214 46.9658 35.1872 46.9786 35.2052 46.9531C35.839 45.9452 36.4849 44.9374 37.1008 43.9168C37.2742 43.6298 37.3819 43.2917 37.5194 42.9728C37.8663 42.6985 38.2729 42.4625 38.1234 41.8693C38.3267 41.7098 38.554 41.5759 38.7214 41.3845C38.8829 41.1995 38.9785 40.9507 39.1101 40.7402C39.6184 39.9557 40.1267 39.1775 40.629 38.3929C40.8862 38.176 40.9759 37.889 40.946 37.5509C41.3586 37.3149 41.6755 37.0087 41.6337 36.4474C42.0343 36.3581 42.0523 36.3262 42.0224 35.8032ZM38.5898 39.4837C38.7573 39.2859 38.9486 39.1009 39.0922 38.8841C39.146 38.8011 39.1041 38.6417 39.1041 38.5141C39.0503 38.5141 39.0025 38.5077 38.9486 38.5077C38.835 38.8394 38.7214 39.1647 38.6078 39.4964C38.3447 39.5793 38.3447 39.5793 38.243 39.9876C38.3985 39.7579 38.4942 39.624 38.5898 39.4837ZM71.7968 -11.5841C71.9822 -11.903 72.1676 -12.2155 72.3948 -12.6046C71.8925 -12.4452 71.8207 -12.2985 71.7968 -11.5841C71.6115 -11.616 71.3722 -11.7563 71.3603 -11.2715C71.5457 -11.399 71.6712 -11.4884 71.7968 -11.5841ZM49.0309 25.4314C49.5034 25.3357 49.5811 25.2464 49.6887 24.6277C49.5512 24.717 49.4316 24.7617 49.3718 24.851C49.2402 25.0296 49.1386 25.2337 49.0309 25.4314C48.9293 25.6228 48.8336 25.8078 48.72 26.0246C49.1924 26.0119 48.9532 25.6355 49.0309 25.4314ZM37.0948 41.6205C36.7181 42.1244 36.3354 42.6347 35.9646 43.145C35.7075 43.5469 35.7075 43.5469 35.9108 43.8977C35.9228 43.6425 35.9347 43.3874 35.9467 43.1322C36.0603 43.1322 36.2277 43.1896 36.2816 43.1259C36.461 42.9281 36.6105 42.6985 36.748 42.4689C36.9095 42.201 37.1606 41.9713 37.0769 41.6013C37.4656 41.5695 37.4656 41.5695 37.334 41.0783C37.2204 41.3271 37.1606 41.4738 37.0948 41.6205ZM35.8091 35.0696C35.552 35.1398 35.3068 35.2099 35.265 35.5735C35.253 35.682 35.1095 35.8287 35.0078 35.8542C34.6072 35.9307 34.6849 36.2241 34.7088 36.4984C34.4576 36.7536 34.1826 36.9832 33.9613 37.2639C33.7221 37.5637 33.6025 38.0102 33.3155 38.2015C32.861 38.5141 32.8431 39.1392 32.3946 39.4326C32.2989 39.4964 32.3228 39.7707 32.2929 39.9429C32.1494 40.0195 31.964 40.0577 31.8743 40.1789C31.354 40.8869 30.9295 41.6588 30.3075 42.2903C30.0085 42.59 29.7454 42.9536 29.5301 43.33C29.0996 44.0763 28.663 44.8162 28.1009 45.4541C27.9514 45.6199 27.8079 45.7921 27.6823 45.9835C27.4132 46.3981 27.18 46.8446 26.887 47.2465C26.271 48.0949 25.6132 48.9113 25.0033 49.7597C24.8777 49.9383 24.8837 50.2126 24.8239 50.4486C25.2365 50.1552 25.6192 49.8617 25.8225 49.4663C26.3846 48.3691 27.3713 47.5973 27.8139 46.4173C27.8198 46.3981 27.8318 46.3726 27.8497 46.3535C28.5075 45.671 29.0039 44.8545 29.5062 44.038C29.7693 43.6106 30.0623 43.2088 30.3554 42.8069C30.9893 41.9139 31.6351 41.0273 32.269 40.1343C32.2989 40.0896 32.275 39.9939 32.275 39.9238C32.8251 39.6431 32.9985 39.0308 33.3454 38.5651C33.6743 38.125 33.9434 37.6211 34.3261 37.2447C34.5653 37.0087 34.6849 36.7918 34.6909 36.4665C35.2231 36.1348 35.558 35.6373 35.7912 35.0441C36.0842 34.5848 36.4968 34.2021 36.6284 33.6344C36.3294 33.9597 36.0603 34.3105 35.8271 34.6869C35.7673 34.7826 35.8091 34.942 35.8091 35.0696ZM32.2092 49.192C32.5799 49.2303 32.7235 48.8858 32.855 48.6498C33.3454 47.8015 33.8238 46.9467 34.4397 46.194C34.5055 46.1111 34.4696 45.9325 34.4816 45.773C34.35 45.8113 34.2902 45.8113 34.2723 45.8432C33.6085 46.851 32.9507 47.8525 32.2989 48.8667C32.2391 48.956 32.245 49.0963 32.2211 49.2111C31.8085 49.4663 31.7965 49.5046 31.9221 50.0467C31.665 49.8618 31.5633 50.085 31.4557 50.2508C30.8039 51.2331 30.152 52.2091 29.5122 53.2042C29.4344 53.3317 29.4404 53.5167 29.4045 53.6762C28.956 53.9058 28.9501 53.9186 29.0996 54.4991C28.968 54.5182 28.7647 54.4863 28.7109 54.5692C28.1786 55.3921 27.7301 56.2723 27.1082 57.0314C26.9408 57.2355 26.7913 57.4651 26.6777 57.7075C26.6119 57.8415 26.6358 58.0201 26.6238 58.1732C26.5461 58.1987 26.4325 58.1923 26.3906 58.2497C26.1036 58.658 25.8285 59.0853 25.5534 59.5063C25.3441 59.8125 25.1229 60.1123 24.9315 60.4312C24.7521 60.7374 24.7282 61.1392 24.3574 61.337C24.2438 61.3944 24.2438 61.7006 24.196 61.8983C24.0166 61.9238 23.8312 61.9429 23.873 62.2108C23.879 62.2427 23.9328 62.2874 23.9687 62.2874C24.2498 62.2811 24.1302 62.0259 24.178 61.8792C24.3514 61.7963 24.6325 61.7516 24.6863 61.6176C24.8538 61.1839 25.069 60.8139 25.3621 60.4567C25.7328 59.9911 26.0258 59.4489 26.3249 58.9195C26.4564 58.6898 26.5162 58.4156 26.6059 58.1604C26.7135 58.1285 26.8989 58.1157 26.9049 58.0711C26.9946 57.4843 27.6584 57.2865 27.7062 56.6742C27.7122 56.5721 27.7959 56.4509 27.8737 56.3744C28.4178 55.8513 28.7169 55.1433 29.0876 54.4991C29.3986 54.3077 29.4942 54.027 29.3866 53.6634C29.7813 53.7719 29.871 53.3317 29.9667 53.1595C30.5647 52.0815 31.2763 51.0865 31.9102 50.0404C32.2152 49.8299 32.3587 49.5683 32.2092 49.192ZM39.0862 93.5876C39.146 93.4153 39.2237 93.2495 39.2536 93.0709C39.3254 92.6499 39.3732 92.2225 39.433 91.7952C39.5407 91.0425 39.6902 90.2962 39.7559 89.5435C39.8456 88.5357 39.8755 87.5215 39.9294 86.5136C39.8516 86.7688 39.8397 87.0367 39.7978 87.2918C39.6423 88.2741 39.439 89.2501 39.3314 90.2388C39.2118 91.355 39.1759 92.4777 39.1041 93.6003C38.7932 94.2254 38.7752 94.8633 39.0862 95.2971C39.0862 94.6975 39.0862 94.1425 39.0862 93.5876ZM42.1539 72.7548C42.0881 72.8377 41.9865 72.9079 41.9626 73.0036C41.837 73.5522 41.7114 74.1007 41.6157 74.6557C41.4004 75.874 41.2031 77.0923 41.0117 78.3107C40.9759 78.5467 41.0058 78.7891 41.0058 79.0315C41.0536 79.0378 41.1014 79.0378 41.1493 79.0442C41.4842 76.9456 41.8131 74.8406 42.142 72.7357C42.6861 71.3132 42.8057 70.669 42.6323 69.8079C42.5247 70.2097 42.429 70.4968 42.3632 70.7966C42.2974 71.0964 42.2377 71.4025 42.2077 71.7087C42.1778 72.0532 42.1719 72.404 42.1539 72.7548ZM38.1174 105.369C38.0277 105.401 37.8722 105.42 37.8543 105.477C37.8065 105.631 37.8184 105.803 37.8124 105.975C37.7706 106.9 37.7407 107.831 37.6809 108.756C37.657 109.203 37.5673 109.649 37.5433 110.102C37.5194 110.529 37.5314 110.957 37.5314 111.39C37.5314 111.818 37.5314 112.239 37.5314 112.666C37.5792 112.666 37.6271 112.666 37.6749 112.666C37.6988 112.028 37.7287 111.384 37.7526 110.746C37.7766 110.249 37.6988 109.713 37.8423 109.254C38.0457 108.597 38.0457 107.946 38.0696 107.289C38.0875 106.651 38.1055 106.007 38.1234 105.363C38.1234 104.827 38.1234 104.291 38.1234 103.755C38.1174 104.291 38.1174 104.827 38.1174 105.369ZM-31.5138 102.754C-31.3464 102.805 -31.1789 102.862 -31.0115 102.913C-31.1371 102.569 -31.3344 102.703 -31.5257 102.76C-31.3703 102.027 -31.2507 101.28 -31.0593 100.553C-30.7244 99.2965 -30.3656 98.0527 -29.9949 96.8088C-29.7796 96.088 -29.7676 95.2971 -29.2773 94.6783C-29.2474 94.6401 -29.2713 94.5444 -29.2593 94.4806C-29.0201 93.4728 -28.7929 92.4522 -28.5178 91.4571C-28.3862 90.9915 -28.1949 90.2643 -28.2188 89.805C-28.3145 90.0283 -28.4042 90.1941 -28.458 90.3727C-29.2115 92.7966 -30.0068 95.2077 -30.7005 97.6508C-31.4181 100.183 -32.0281 102.747 -32.6799 105.305C-32.7576 105.605 -32.8533 105.841 -33.1822 105.879C-33.254 105.886 -33.3138 105.988 -33.4274 106.083C-33.0985 106.37 -32.9849 106.677 -33.248 107.072C-33.3257 107.193 -33.3078 107.397 -33.3078 107.563C-33.3078 107.831 -33.2839 108.086 -33.535 108.265C-33.5948 108.303 -33.6247 108.437 -33.6188 108.52C-33.5709 109.356 -33.9596 110.089 -34.1091 110.874C-34.2945 111.85 -34.5935 112.8 -34.8148 113.763C-34.9403 114.318 -35.0061 114.886 -35.1197 115.447C-35.4427 117.029 -35.7716 118.611 -36.1005 120.193C-36.1902 120.614 -36.3098 121.022 -36.4054 121.437C-36.5549 122.088 -36.6985 122.738 -36.83 123.389C-36.8539 123.504 -36.8061 123.638 -36.7941 123.759C-36.6566 123.644 -36.6088 123.523 -36.5848 123.395C-36.3636 122.419 -36.1543 121.443 -35.9211 120.474C-35.652 119.345 -35.3171 118.228 -35.0898 117.093C-34.8925 116.092 -34.7669 115.077 -34.2706 114.178C-34.2287 114.108 -34.2407 113.999 -34.2287 113.91C-34.1809 113.489 -34.1809 113.055 -34.0852 112.647C-33.8161 111.563 -33.4812 110.504 -33.2181 109.419C-33.0088 108.565 -32.8354 107.71 -32.363 106.964C-32.2972 106.855 -32.2852 106.696 -32.2792 106.562C-32.2135 105.465 -31.9683 104.406 -31.747 103.341C-31.6992 103.136 -31.5975 102.951 -31.5138 102.754ZM-30.7244 120.697C-30.6826 120.716 -30.6347 120.735 -30.5929 120.748C-30.5331 120.659 -30.4374 120.576 -30.4135 120.474C-30.2101 119.651 -30.0188 118.822 -29.8155 117.992C-29.5583 116.953 -29.3012 115.919 -29.0321 114.886C-28.9543 114.599 -28.7989 114.331 -28.7271 114.044C-28.4281 112.826 -28.165 111.595 -27.854 110.383C-27.4653 108.89 -27.0288 107.41 -26.6281 105.924C-26.4069 105.101 -26.2095 104.265 -26.0002 103.443C-25.8746 102.939 -25.7491 102.435 -25.6175 101.931C-25.4321 101.248 -25.2527 100.566 -25.0494 99.8833C-24.9178 99.4368 -24.7384 99.0095 -24.6129 98.563C-24.5172 98.2249 -24.4813 97.8677 -24.3856 97.536C-24.2361 97.0448 -24.0448 96.5664 -23.9012 96.0689C-23.8654 95.9477 -23.9311 95.7946 -23.9551 95.6606C-24.1285 95.7754 -24.2062 95.8903 -24.2421 96.0178C-24.5531 96.9874 -24.8042 97.9761 -25.175 98.9138C-25.48 99.692 -25.6414 100.489 -25.773 101.312C-25.8447 101.771 -26.066 102.205 -26.2035 102.658C-26.4368 103.443 -26.6401 104.24 -26.8853 105.025C-26.9331 105.178 -27.1185 105.273 -27.2381 105.395C-26.969 106.02 -26.9032 106.026 -27.4414 106.402C-27.4414 106.721 -27.3517 107.072 -27.4593 107.321C-27.6268 107.71 -27.6866 108.112 -27.7882 108.514C-28.0693 109.687 -28.3623 110.855 -28.6434 112.022C-28.7151 112.315 -28.8587 112.481 -29.1397 112.449C-29.0979 112.73 -28.9902 112.998 -29.0321 113.228C-29.1636 113.904 -29.3909 114.554 -29.5045 115.23C-29.5643 115.6 -29.7796 115.651 -29.9291 115.671C-29.9291 116.06 -29.8872 116.379 -29.9351 116.685C-30.0547 117.431 -30.2161 118.171 -30.3716 118.905C-30.4613 119.319 -30.5749 119.721 -30.6646 120.136C-30.7065 120.321 -30.7065 120.512 -30.7244 120.697ZM-32.5364 118.605C-32.3869 118.05 -32.2613 117.603 -32.1477 117.157C-32.034 116.698 -31.8905 116.245 -31.8367 115.779C-31.7829 115.339 -31.6752 114.95 -31.4301 114.586C-31.3404 114.452 -31.2686 114.248 -31.2806 114.082C-31.3224 113.425 -31.2806 112.8 -30.9098 112.239C-30.838 112.13 -30.838 111.965 -30.8141 111.824C-30.7364 111.263 -30.6766 110.702 -30.3895 110.191C-30.2819 110 -30.2879 109.738 -30.252 109.502C-30.1563 108.928 -30.1623 108.31 -29.941 107.799C-29.7258 107.302 -29.7796 106.823 -29.666 106.256C-30.5689 107.181 -32.7935 117.099 -32.5364 118.605ZM39.6363 138.321C39.6782 138.315 39.7201 138.308 39.7679 138.296C39.4629 136.676 39.14 135.055 38.8649 133.429C38.5898 131.809 38.3207 130.188 38.1354 128.555C37.95 126.923 37.8663 125.277 37.7347 123.638C37.6869 123.644 37.633 123.65 37.5852 123.657C37.645 128.651 38.4045 133.524 39.6363 138.321ZM39.9951 85.3335C40.049 85.3527 40.0968 85.3718 40.1506 85.3846C40.1985 85.2506 40.2822 85.1167 40.2941 84.9763C40.3898 84.0514 40.4676 83.1265 40.5692 82.208C40.5931 82.0103 40.6709 81.8125 40.7546 81.6339C40.9519 81.2002 40.9639 80.7728 40.7187 80.3391C40.6171 80.6006 40.5991 80.8685 40.5573 81.1364C40.4257 82.0039 40.348 82.8905 40.1267 83.7325C39.9832 84.2811 39.9353 84.7914 39.9951 85.3335ZM38.8948 96.0434C38.4104 98.1101 38.1234 101.331 38.2251 102.314C38.3327 101.625 38.4523 100.866 38.5599 100.1C38.6138 99.6983 38.6556 99.2965 38.6855 98.8946C38.7573 97.9442 38.8231 96.9938 38.8948 96.0434ZM-31.143 132.408C-31.3224 132.529 -31.4002 132.555 -31.4121 132.593C-31.5317 133.014 -31.6573 133.442 -31.759 133.869C-31.8128 134.111 -31.6513 134.175 -31.448 134.245C-31.3523 133.646 -31.2566 133.091 -31.143 132.408ZM-22.191 97.823C-22.2866 98.4545 -22.2866 98.4545 -21.8082 98.716C-21.6767 98.3269 -21.9219 98.1164 -22.191 97.823ZM23.4066 -19.1619C23.6637 -19.3596 23.9209 -19.5637 24.2259 -19.7998C23.7893 -19.9018 23.7893 -19.9018 23.4066 -19.1619ZM-29.4208 105.19C-29.349 104.706 -29.349 104.706 -29.8513 104.795C-29.7258 104.916 -29.5882 105.044 -29.4208 105.19ZM42.8416 69.0679C42.9493 68.7809 43.1466 68.5002 42.8416 68.2004C42.8416 68.4875 42.8416 68.7809 42.8416 69.0679ZM34.7148 45.3776C35.2171 45.0969 35.2171 45.0969 35.1513 44.6886C34.9002 44.8035 34.7028 44.9566 34.7148 45.3776ZM-29.062 103.328C-29.2952 103.959 -29.2892 103.978 -28.8646 103.876C-28.9304 103.691 -28.9962 103.506 -29.062 103.328ZM-31.6573 134.698C-31.7889 134.87 -31.9085 134.96 -31.8965 135.023C-31.8726 135.164 -31.7829 135.285 -31.7171 135.413C-31.6454 135.349 -31.5078 135.279 -31.5078 135.215C-31.5138 135.074 -31.5855 134.941 -31.6573 134.698ZM-33.0985 120.282C-32.955 120.053 -32.7696 119.823 -32.8414 119.562C-32.8892 119.555 -32.937 119.542 -32.9849 119.536C-33.0267 119.785 -33.0626 120.034 -33.0985 120.282ZM-27.8421 113.502C-27.7882 113.508 -27.7344 113.515 -27.6806 113.515C-27.6567 113.381 -27.6387 113.253 -27.6148 113.119C-27.6926 113.106 -27.7643 113.1 -27.8421 113.087C-27.8421 113.228 -27.8421 113.368 -27.8421 113.502ZM-37.3682 126.521C-37.3323 126.527 -37.2965 126.533 -37.2606 126.533C-37.2008 126.266 -37.141 125.998 -37.0812 125.73C-37.141 125.717 -37.2008 125.704 -37.2606 125.691C-37.2965 125.972 -37.3323 126.246 -37.3682 126.521ZM73.1244 -13.3318C73.0825 -13.3765 73.0347 -13.4211 72.9928 -13.4657C72.7477 -13.3573 72.64 -13.1468 72.6879 -12.8088C72.8314 -12.981 72.9809 -13.1532 73.1244 -13.3318ZM-28.3384 115.849C-28.153 115.658 -28.0454 115.46 -28.3085 115.237C-28.3145 115.435 -28.3264 115.639 -28.3384 115.849ZM37.5912 123.204C37.639 123.197 37.6869 123.191 37.7407 123.178C37.7227 123.044 37.7048 122.91 37.6869 122.776C37.657 122.783 37.6271 122.783 37.5912 122.789C37.5912 122.929 37.5912 123.063 37.5912 123.204ZM78.7336 -19.972C78.7815 -19.9273 78.8293 -19.8763 78.8772 -19.8317C78.9429 -19.9401 79.0147 -20.0422 79.0745 -20.1506C79.0745 -20.1506 78.9908 -20.2272 78.9788 -20.2208C78.8951 -20.1442 78.8174 -20.0549 78.7336 -19.972ZM48.4808 26.7646C48.3731 26.6753 48.3074 26.586 48.2595 26.5923C48.1937 26.6051 48.0981 26.6753 48.0801 26.739C48.0622 26.8028 48.1339 26.8921 48.1638 26.9687C48.2476 26.9176 48.3313 26.8603 48.4808 26.7646ZM39.8277 37.7231C39.4749 37.8252 39.4749 37.8252 39.3493 38.4312C39.5586 38.125 39.6722 37.9464 39.8277 37.7231ZM39.2417 29.6477C39.2835 29.7051 39.3314 29.7562 39.3732 29.8136C39.4988 29.6796 39.6244 29.5393 39.75 29.4053C39.7141 29.3671 39.6782 29.3288 39.6423 29.2841C39.5108 29.4053 39.3792 29.5265 39.2417 29.6477ZM80.414 -21.3625C80.3662 -21.3944 80.3183 -21.4327 80.2705 -21.4646C80.2107 -21.3753 80.1509 -21.286 80.1031 -21.184C80.0971 -21.1712 80.1868 -21.1074 80.2286 -21.0691C80.2944 -21.1712 80.3542 -21.2669 80.414 -21.3625ZM18.8797 -12.7067C18.8259 -12.7577 18.7841 -12.8024 18.7422 -12.847C18.7003 -12.796 18.6226 -12.7322 18.6286 -12.7003C18.6465 -12.6365 18.7183 -12.5855 18.7661 -12.5281C18.796 -12.5855 18.8319 -12.6365 18.8797 -12.7067ZM47.8469 25.98C47.506 26.0629 47.506 26.0629 47.4761 26.2606C47.5718 26.1841 47.7094 26.082 47.8469 25.98ZM45.3652 21.1832C45.3054 21.3236 45.2336 21.4065 45.2516 21.4639C45.2635 21.5277 45.3592 21.566 45.419 21.617C45.4669 21.5532 45.5506 21.4894 45.5506 21.4192C45.5506 21.3618 45.4609 21.2981 45.3652 21.1832ZM39.9294 37.1682C40.3599 37.047 40.3599 37.047 40.3958 36.6898C40.2822 36.7663 40.1626 36.8301 40.0609 36.913C40.0131 36.9513 39.9951 37.0279 39.9294 37.1682ZM21.1103 -16.0427C21.0684 -16.0874 21.0206 -16.132 20.9787 -16.1767C20.901 -16.081 20.8292 -15.9917 20.7515 -15.896C20.7993 -15.8577 20.883 -15.7748 20.889 -15.7812C20.9668 -15.8641 21.0325 -15.9534 21.1103 -16.0427ZM43.9061 23.6071C43.8762 23.5752 43.8463 23.5433 43.8104 23.5114C43.6848 23.6518 43.5652 23.7921 43.4396 23.9324C43.4695 23.9643 43.5054 23.9962 43.5353 24.0281C43.6609 23.8941 43.7865 23.7475 43.9061 23.6071ZM76.1622 -16.6104C76.1563 -16.6678 76.1503 -16.7316 76.1503 -16.789C76.0426 -16.7635 75.929 -16.7316 75.8214 -16.7061C75.8273 -16.6678 75.8333 -16.6296 75.8393 -16.5913C75.941 -16.5977 76.0546 -16.604 76.1622 -16.6104ZM45.2037 29.6477C44.8928 29.8199 44.6596 29.8774 44.8689 30.2346C44.9705 30.056 45.0542 29.9092 45.2037 29.6477ZM42.5785 25.5909C42.5367 25.5526 42.4888 25.5207 42.4469 25.4825C42.3453 25.6228 42.2436 25.7631 42.142 25.9098C42.1719 25.9353 42.2018 25.9608 42.2317 25.9864C42.3453 25.8524 42.4589 25.7185 42.5785 25.5909ZM-27.2082 110.721C-27.1484 110.721 -27.0886 110.714 -27.0228 110.714C-27.0407 110.574 -27.0527 110.434 -27.0706 110.293C-27.1185 110.3 -27.1603 110.306 -27.2082 110.312C-27.2082 110.44 -27.2082 110.58 -27.2082 110.721ZM-28.6852 117.023C-28.464 116.729 -28.464 116.729 -28.6852 116.5C-28.6852 116.678 -28.6852 116.825 -28.6852 117.023ZM46.3997 27.7469C46.4476 27.7788 46.4894 27.8107 46.5373 27.8426C46.5971 27.7086 46.6509 27.5683 46.7107 27.4343C46.6808 27.4152 46.6449 27.396 46.615 27.3769C46.5433 27.5045 46.4715 27.6257 46.3997 27.7469ZM57.8156 13.2482C57.7318 13.178 57.684 13.1014 57.6481 13.1078C57.6003 13.1142 57.5405 13.1844 57.5285 13.2354C57.5225 13.2864 57.5704 13.3438 57.6003 13.4012C57.6601 13.3566 57.7199 13.3183 57.8156 13.2482ZM66.1936 -5.1288C66.2474 -5.12242 66.3012 -5.12245 66.361 -5.11607C66.367 -5.24364 66.373 -5.36482 66.3789 -5.49239C66.3371 -5.49877 66.3012 -5.50517 66.2593 -5.51155C66.2354 -5.37759 66.2115 -5.25 66.1936 -5.1288ZM55.0648 16.7947C55.4056 16.7182 55.579 16.648 55.5372 16.1823C55.3458 16.4247 55.2442 16.5651 55.0648 16.7947ZM38.2669 35.6565C38.2908 35.6756 38.3088 35.7011 38.3327 35.7202C38.3985 35.6564 38.4702 35.5927 38.536 35.5225C38.4942 35.4842 38.4523 35.4459 38.4104 35.4077C38.3626 35.4906 38.3148 35.5735 38.2669 35.6565ZM42.0523 34.3233C42.0164 34.2914 41.9805 34.2659 41.9386 34.234C41.8609 34.3616 41.7892 34.4892 41.7114 34.6167C41.7533 34.6422 41.7951 34.6678 41.837 34.6933C41.9147 34.5721 41.9805 34.4509 42.0523 34.3233ZM-27.7344 88.5293C-27.7703 88.5229 -27.8062 88.5229 -27.8421 88.5165C-27.86 88.6122 -27.8779 88.7079 -27.9019 88.8036C-27.848 88.8099 -27.7942 88.8163 -27.7344 88.8227C-27.7344 88.7206 -27.7344 88.625 -27.7344 88.5293ZM40.1626 28.5697C40.0848 28.6271 40.0191 28.6526 40.0011 28.6973C39.9832 28.7483 40.0191 28.8185 40.031 28.8823C40.0908 28.844 40.1626 28.8121 40.2044 28.7547C40.2284 28.7292 40.1865 28.659 40.1626 28.5697ZM50.8309 23.2053C50.7651 23.1542 50.7113 23.0841 50.6695 23.0905C50.6216 23.0968 50.5798 23.167 50.5379 23.2117C50.5917 23.2627 50.6396 23.3201 50.7053 23.352C50.7173 23.3583 50.7711 23.2691 50.8309 23.2053ZM54.4668 17.5474C54.5684 17.6239 54.6222 17.6941 54.6581 17.6813C54.7119 17.6622 54.7658 17.5984 54.7897 17.541C54.8016 17.5091 54.7299 17.407 54.7179 17.4134C54.6462 17.4326 54.5804 17.4772 54.4668 17.5474ZM79.9296 -20.9607C79.6247 -20.9352 79.4752 -20.8969 79.6007 -20.5269C79.7203 -20.68 79.7981 -20.7885 79.9296 -20.9607ZM36.5447 38.2015C36.5925 38.2143 36.6404 38.2334 36.6882 38.2462C36.7301 38.1059 36.7719 37.9591 36.8138 37.8188C36.7839 37.806 36.754 37.7933 36.7181 37.7805C36.6643 37.9209 36.6045 38.0612 36.5447 38.2015ZM48.8097 24.1685C48.7618 24.2578 48.708 24.3088 48.714 24.3598C48.72 24.4045 48.7858 24.4427 48.8216 24.481C48.8515 24.43 48.9113 24.3853 48.9113 24.3343C48.9113 24.296 48.8575 24.245 48.8097 24.1685ZM51.6861 21.7382C51.6502 21.7254 51.6083 21.7126 51.5724 21.7063C51.5366 21.8338 51.5007 21.955 51.4648 22.0826C51.5007 22.0954 51.5425 22.1081 51.5784 22.1209C51.6083 21.9869 51.6442 21.8658 51.6861 21.7382ZM45.9512 20.6857C45.9333 20.7495 45.9154 20.8069 45.9094 20.8707C45.9094 20.877 46.011 20.909 46.011 20.9026C46.035 20.8515 46.0529 20.7941 46.0589 20.7431C46.0649 20.7304 45.9991 20.7112 45.9512 20.6857ZM55.8123 16.0356C55.8721 15.9591 55.9498 15.8889 55.9378 15.8634C55.9139 15.7932 55.8482 15.7486 55.7943 15.6912C55.7644 15.7486 55.7106 15.7996 55.7106 15.857C55.7166 15.9081 55.7704 15.9591 55.8123 16.0356ZM60.0342 10.129C59.9743 10.1226 59.9205 10.1034 59.8667 10.1098C59.8488 10.1098 59.8368 10.18 59.8249 10.2183C59.8787 10.2374 59.9325 10.2565 59.9863 10.2629C59.9983 10.2629 60.0102 10.1864 60.0342 10.129ZM48.6781 16.9159C48.726 16.9924 48.7618 17.0435 48.7917 17.0945C48.8396 17.0562 48.9113 17.0307 48.9233 16.9861C48.9353 16.9414 48.8874 16.8521 48.8456 16.833C48.8097 16.8202 48.7499 16.8776 48.6781 16.9159ZM58.0189 12.5848C58.0548 12.623 58.0907 12.6549 58.1206 12.6932C58.1804 12.6039 58.2401 12.5146 58.2999 12.4253C58.27 12.3998 58.2402 12.3743 58.2103 12.3487C58.1505 12.4253 58.0847 12.5018 58.0189 12.5848ZM73.7702 -14.0079C73.7523 -14.0526 73.7344 -14.0972 73.7164 -14.1419C73.6626 -14.0845 73.6088 -14.0271 73.549 -13.9697C73.6207 -13.9824 73.6925 -13.9952 73.7702 -14.0079ZM37.944 32.1163C38.0038 31.9568 38.0516 31.8866 38.0516 31.8101C38.0516 31.7654 37.956 31.6761 37.938 31.6825C37.8722 31.7208 37.7885 31.7782 37.7825 31.842C37.7706 31.9058 37.8543 31.9759 37.944 32.1163ZM44.528 30.6428C44.4981 30.6109 44.4682 30.5726 44.4323 30.5407C44.3725 30.6492 44.3127 30.7576 44.2529 30.8661C44.2709 30.8788 44.2888 30.898 44.3067 30.9107C44.3785 30.8278 44.4502 30.7321 44.528 30.6428ZM-27.866 105.56C-27.8779 105.599 -27.8839 105.637 -27.8959 105.669C-27.8122 105.707 -27.7284 105.745 -27.6447 105.771C-27.6328 105.771 -27.5969 105.669 -27.573 105.611C-27.6746 105.592 -27.7703 105.579 -27.866 105.56ZM50.7891 14.6451C50.7173 14.5749 50.6814 14.5239 50.6276 14.4984C50.6037 14.4856 50.5259 14.543 50.5259 14.5558C50.5319 14.6132 50.5499 14.6961 50.5857 14.7089C50.6336 14.728 50.6994 14.6834 50.7891 14.6451ZM36.1201 38.8713C36.1739 38.8713 36.2277 38.8713 36.2875 38.8713C36.2875 38.7692 36.2875 38.6672 36.2875 38.5651C36.2337 38.5651 36.1321 38.5651 36.1321 38.5715C36.1141 38.6735 36.1201 38.7692 36.1201 38.8713ZM43.3021 24.4555C43.2363 24.4236 43.1945 24.3981 43.1466 24.3662C43.1227 24.4236 43.0808 24.4874 43.0868 24.5384C43.0928 24.5767 43.1646 24.6022 43.2124 24.6341C43.2303 24.5831 43.2602 24.532 43.3021 24.4555ZM37.9081 36.4793C37.9679 36.3772 38.0277 36.3198 38.0397 36.2497C38.0457 36.2114 37.9739 36.1604 37.938 36.1157C37.8842 36.1731 37.8184 36.2178 37.7885 36.2816C37.7766 36.3071 37.8423 36.3772 37.9081 36.4793Z" fill="#FFF1EE"/>
<path d="M122.866 97.7146C122.913 98.1866 122.788 98.5884 122.513 98.9711C122.19 99.4176 121.992 99.979 121.622 100.362C121.287 100.713 121.066 101.172 120.665 101.472C120.366 101.695 120.133 102.02 119.893 102.326C119.266 103.136 118.446 103.615 117.549 103.978C117.322 104.074 117.101 104.202 116.868 104.259C116.634 104.316 116.323 104.419 116.156 104.304C115.522 103.876 114.798 103.978 114.135 103.921C113.303 103.844 112.544 103.589 111.826 103.251C110.415 102.588 109.07 101.771 108.029 100.515C107.521 99.9025 106.995 99.3029 106.678 98.5183C106.432 97.9187 105.954 97.4275 105.691 96.8343C105.446 96.273 105.063 95.801 104.914 95.1695C104.764 94.538 104.459 93.932 104.142 93.3707C103.855 92.8668 103.688 92.3246 103.652 91.7696C103.61 91.0871 103.245 90.5322 103.137 89.8815C103.102 89.6774 103.006 89.486 102.976 89.2819C102.928 88.9375 103 88.5675 102.683 88.2996C102.599 88.2295 102.605 88.0317 102.587 87.8914C102.384 86.2138 102.115 84.5426 102.007 82.8586C101.888 81.0471 101.9 79.2228 101.888 77.4048C101.876 75.8995 101.882 74.3877 101.947 72.8824C102.025 71.1155 102.181 69.355 102.3 67.5881C102.396 66.2549 102.492 64.9218 102.593 63.5886C102.599 63.4674 102.581 63.3144 102.641 63.2378C103.03 62.7467 102.898 62.1534 102.952 61.5921C103.048 60.6417 103.036 59.6594 103.281 58.76C103.574 57.7139 103.52 56.6422 103.753 55.6025C104.028 54.3587 104.339 53.1276 104.632 51.8901C104.764 51.3416 104.86 50.7803 105.009 50.2381C105.093 49.9319 105.272 49.6576 105.368 49.3514C105.47 49.0389 105.494 48.7008 105.607 48.3946C105.96 47.4123 106.313 46.43 106.702 45.4605C106.989 44.7588 107.341 44.089 107.652 43.3937C107.754 43.1705 107.826 42.9345 107.91 42.6985C107.957 42.7176 107.999 42.7368 108.047 42.7495C107.898 43.1641 107.736 43.5787 107.605 43.9997C107.473 44.4271 107.371 44.8672 107.341 45.3393C107.479 45.0777 107.622 44.8226 107.754 44.5547C108.137 43.7765 108.508 42.9983 108.896 42.2201C108.956 42.0989 109.058 41.9904 109.153 41.8948C109.632 41.4164 110.14 40.9698 110.595 40.4596C110.882 40.1342 111.246 40.0704 111.605 40.013C111.97 39.9556 112.179 40.2491 112.012 40.5999C111.785 41.0847 111.48 41.5312 111.169 41.9585C110.882 42.354 110.583 42.7367 110.535 43.3618C111.031 43.0748 111.3 42.6219 111.527 42.2137C111.868 41.6013 112.377 41.1995 112.831 40.7274C112.951 40.6063 113.303 40.6382 113.501 40.7338C113.614 40.7849 113.698 41.1038 113.674 41.2824C113.614 41.697 113.483 42.1052 113.369 42.5645C113.668 42.1371 113.943 41.748 114.236 41.3334C114.416 41.4355 114.565 41.4865 114.673 41.5886C115.349 42.2328 116.078 42.8452 116.359 43.8147C116.449 44.1209 116.497 44.4653 116.479 44.7907C116.425 45.6964 116.341 46.5959 116.24 47.4953C116.174 48.0821 116.036 48.6562 115.959 49.243C115.707 51.1502 115.468 53.0638 115.235 54.9774C115.008 56.8464 114.781 58.7153 114.577 60.5907C114.47 61.5857 114.44 62.5936 114.362 63.5886C114.302 64.2967 114.206 64.9983 114.153 65.7064C113.997 67.6774 113.836 69.6484 113.71 71.6258C113.656 72.506 113.74 73.3927 113.656 74.2665C113.585 74.9937 113.561 75.7209 113.537 76.448C113.519 77.1369 113.477 77.8258 113.435 78.5147C113.375 79.5544 113.292 80.5942 113.238 81.6403C113.214 82.1697 113.244 82.7055 113.232 83.2413C113.226 83.5922 113.166 83.943 113.154 84.3002C113.136 84.7276 113.112 85.1549 113.142 85.5823C113.232 87.1323 113.357 88.6824 113.441 90.2324C113.471 90.7554 113.387 91.2912 113.429 91.8079C113.531 92.9752 113.68 94.1298 113.806 95.2971C113.836 95.5522 113.86 95.8137 113.788 96.1071C113.722 95.9349 113.644 95.7627 113.597 95.5841C113.094 93.7598 112.957 91.8717 112.855 89.9836C112.789 88.7908 112.717 87.6043 112.544 86.4115C112.544 86.6794 112.526 86.9537 112.544 87.2152C112.711 89.6009 112.849 91.9865 113.082 94.3658C113.166 95.2269 113.495 96.0625 113.716 96.9427C113.842 96.8407 113.89 96.8088 113.961 96.7514C113.812 97.689 114.386 98.3333 114.763 99.0413C114.9 99.3029 115.187 99.2965 115.414 99.1243C115.947 98.7352 116.479 98.3652 116.891 97.7911C117.902 96.3942 118.787 94.9207 119.529 93.3515C120.079 92.1842 120.533 90.9531 121.179 89.8496C122.04 88.3825 122.501 86.7368 123.165 85.1804C123.751 83.8027 124.145 82.3292 124.636 80.9067C124.923 80.0775 125.24 79.2674 125.533 78.4446C125.778 77.7557 126.023 77.0604 126.238 76.3588C126.717 74.7896 127.165 73.2204 127.638 71.6513C128.008 70.4202 128.385 69.1955 128.762 67.9708C129.563 65.3938 130.364 62.8104 131.172 60.2334C132.021 57.5225 132.87 54.8116 133.737 52.107C134.341 50.2126 134.963 48.3181 135.597 46.43C136.512 43.6935 137.433 40.9635 138.36 38.2334C139.018 36.307 139.687 34.3871 140.363 32.4671C140.65 31.6442 140.967 30.8405 141.254 30.0177C141.332 29.7944 141.314 29.5393 141.392 29.316C141.637 28.6144 141.9 27.9127 142.163 27.2174C142.474 26.3818 142.803 25.559 143.102 24.717C143.353 24.0153 143.467 23.2308 143.825 22.6056C144.178 21.9805 144.232 21.2853 144.483 20.6474C144.734 20.0159 144.926 19.3525 145.099 18.6955C145.596 16.8074 146.259 14.9831 147.067 13.2226C147.551 12.1637 148.299 11.309 149.231 10.6456C149.65 10.3458 150.051 10.3139 150.493 10.4989C150.816 10.9773 150.673 11.3409 150.362 11.7683C149.943 12.336 149.626 12.993 149.273 13.6117C149.237 13.6819 149.243 13.7776 149.219 13.9689C150.182 13.1078 150.535 11.7746 151.689 11.1942C152.048 11.5641 152.628 11.7045 152.568 12.4635C153.1 12.2722 153.37 12.572 153.645 12.9547C153.908 13.3183 154.057 13.8031 154.512 13.9944C154.566 14.0136 154.607 14.0965 154.625 14.1603C154.769 14.7025 155.002 15.2383 155.02 15.7805C155.044 16.514 154.936 17.2603 154.829 17.9875C154.697 18.8741 154.153 19.5694 153.788 20.354C153.364 21.2661 153.005 22.2165 152.616 23.1478C152.592 23.2116 152.598 23.2945 152.568 23.3519C152.132 24.3087 151.695 25.2592 151.259 26.216C151.067 26.6433 150.858 27.0643 150.696 27.5045C150.38 28.3656 150.11 29.2522 149.782 30.107C149.495 30.8533 149.136 31.5677 148.831 32.3012C148.484 33.1432 148.167 34.0043 147.826 34.8527C147.521 35.6182 147.192 36.3772 146.881 37.1362C146.505 38.0739 146.122 39.0052 145.763 39.9493C145.458 40.7402 145.177 41.5376 144.89 42.3413C144.693 42.8898 144.531 43.4511 144.322 43.9997C144.178 44.3952 143.975 44.7651 143.819 45.1542C143.162 46.8063 142.498 48.4584 141.864 50.1233C141.386 51.3799 140.937 52.6492 140.471 53.9122C139.843 55.6153 139.209 57.3184 138.575 59.0215C138.019 60.5077 137.451 61.9876 136.895 63.4674C136.153 65.4321 135.394 67.3967 134.67 69.3741C134.281 70.4393 133.952 71.5301 133.582 72.6017C133.157 73.8328 132.721 75.0575 132.284 76.2758C131.549 78.3106 130.819 80.3518 130.053 82.3802C129.593 83.6113 129.073 84.8233 128.588 86.0416C128.158 87.1323 127.751 88.2294 127.309 89.3202C127.135 89.7476 126.896 90.1494 126.621 90.6852C126.531 90.462 126.489 90.3599 126.442 90.2515C126.561 89.9326 126.687 89.6136 126.806 89.2947C126.98 88.9311 127.153 88.5739 127.315 88.2039C127.333 88.1657 127.249 88.0764 127.141 87.8659C127.063 88.4655 126.717 88.8163 126.824 89.3075C126.262 89.4287 126.454 89.8879 126.442 90.2579C126.172 90.3089 126.286 90.5322 126.274 90.6916L126.292 90.6725C126.155 90.8128 125.963 90.9277 125.885 91.0999C125.604 91.7122 125.359 92.3437 125.096 92.9688L125.102 92.9561C124.725 93.3834 124.48 93.8682 124.48 94.4742L124.504 94.4487C124.103 94.4997 124.044 94.8378 124.008 95.1695C124.002 95.2141 124.157 95.2779 124.235 95.3289L124.223 95.3098C124.193 95.5713 124.187 95.5586 123.888 95.7244C123.828 95.7563 123.84 95.9349 123.816 96.0434L123.834 96.0306C123.446 96.1837 123.29 96.4962 123.278 96.9172L123.296 96.8853C122.919 97.0193 122.883 97.351 122.877 97.7018L122.866 97.7146ZM105.703 50.4549C105.38 50.557 105.338 50.7675 105.506 51.2204C105.589 50.8632 105.637 50.6527 105.685 50.4358C105.924 50.1296 105.924 50.1296 105.625 49.8617C105.655 50.1169 105.679 50.2891 105.703 50.4549ZM104.71 54.4289C104.585 54.818 104.411 55.1943 104.345 55.5961C104.028 57.3694 103.682 59.1427 103.622 60.9606C103.616 61.1647 103.622 61.3688 103.622 61.573C103.747 61.0435 103.795 60.5205 103.873 60.0102C103.999 59.1491 104.142 58.2943 104.28 57.4332C104.339 57.0824 104.429 56.7379 104.477 56.3807C104.567 55.7237 104.627 55.0667 104.704 54.4097C105.159 54.212 104.878 53.8229 104.979 53.4019C104.662 53.7782 104.686 54.1036 104.71 54.4289ZM112.975 75.3318C113.034 75.3318 113.088 75.3318 113.148 75.3318C113.327 72.8505 113.513 70.3755 113.674 67.8942C113.842 65.3683 113.961 62.836 114.153 60.3164C114.338 57.8414 114.583 55.3729 114.804 52.9044C114.607 53.2488 114.499 53.6124 114.446 53.976C114.338 54.7031 114.272 55.4431 114.153 56.1702C113.704 59.0024 113.561 61.86 113.423 64.724C113.357 66.1018 113.22 67.4796 113.13 68.8574C113.034 70.3819 112.933 71.9064 112.873 73.4309C112.855 74.0688 112.939 74.7067 112.975 75.3318ZM123.882 86.6475C123.553 87.33 123.236 87.936 122.967 88.5675C122.692 89.2118 122.531 89.9198 122.202 90.5258C121.879 91.119 121.807 91.8143 121.335 92.3692C120.91 92.8668 120.767 93.6258 120.456 94.2382C120.139 94.8569 119.78 95.4437 119.415 96.037C119.056 96.6238 118.68 97.1979 118.303 97.7719C117.932 98.3333 117.555 98.8946 117.185 99.4559C117.394 99.4368 117.543 99.3603 117.633 99.2391C118.291 98.3907 118.955 97.5615 119.577 96.6748C120.133 95.8839 120.444 94.9781 120.946 94.1744C121.227 93.7215 121.49 93.2303 121.705 92.7264C121.789 92.5351 121.837 92.3373 121.921 92.146C122.148 91.6421 122.399 91.1573 122.608 90.647C122.973 89.7603 123.32 88.8673 123.649 87.9679C123.792 87.5916 124.091 87.2152 123.882 86.6475ZM102.575 76.3588C102.629 76.3651 102.683 76.3715 102.737 76.3843C102.761 76.3013 102.809 76.2184 102.809 76.1355C102.844 75.2361 102.892 74.3367 102.91 73.4373C102.934 72.27 102.874 71.0963 102.958 69.929C103.054 68.5257 103.269 67.1352 103.407 65.7383C103.508 64.7177 103.562 63.6843 103.64 62.6637C103.58 62.6573 103.52 62.6446 103.46 62.6382C103.341 63.2952 103.185 63.9458 103.12 64.6092C103 65.7255 102.94 66.8417 102.85 67.958C102.773 68.9531 102.659 69.9482 102.611 70.9432C102.569 71.798 102.587 72.6591 102.587 73.5202C102.569 74.4643 102.575 75.4083 102.575 76.3588ZM104.094 64.4497C103.897 65.9424 103.759 67.3903 103.682 68.8447C103.604 70.3437 103.544 71.849 103.478 73.348C103.419 74.7896 103.347 76.2375 103.52 77.6791C103.616 76.6521 103.67 75.6316 103.729 74.6046C103.801 73.4437 103.729 72.2892 103.945 71.1219C104.184 69.7951 104.214 68.4173 104.322 67.065C104.375 66.4208 104.405 65.7765 104.429 65.1323C104.441 64.9154 104.507 64.6475 104.094 64.4497ZM104.184 64.0224C104.525 63.8183 104.531 63.5312 104.543 63.2505C104.555 62.938 104.543 62.6318 104.555 62.3193C104.627 60.6736 104.878 59.0534 105.195 57.446C105.213 57.3694 105.183 57.2801 105.171 57.1462C104.692 57.8669 104.005 62.6892 104.184 64.0224ZM102.809 80.4411C102.755 80.4411 102.701 80.4411 102.647 80.4411C102.498 80.9833 102.689 81.5382 102.653 82.0804C102.593 82.9989 102.665 83.522 102.809 83.6687C102.809 82.6035 102.809 81.5255 102.809 80.4411ZM124.05 86.2648C124.169 85.863 124.666 85.7418 124.408 85.257C123.978 85.4228 123.984 85.78 124.05 86.2648ZM127.925 85.9842C127.769 86.4115 127.608 86.8453 127.452 87.2727C127.5 87.2918 127.548 87.3109 127.596 87.3301C127.65 86.8517 128.098 86.5327 127.925 85.9842ZM105.027 52.7513C105.512 52.5854 105.332 52.2474 105.32 51.9093C104.8 52.0624 105.015 52.4132 105.027 52.7513ZM105.117 56.8081C105.183 56.8145 105.242 56.8272 105.308 56.8336C105.332 56.47 105.434 56.1192 105.428 55.7493C105.38 55.7429 105.326 55.7365 105.278 55.7301C105.224 56.0937 105.171 56.4509 105.117 56.8081ZM126.089 85.6015C126.208 85.2953 126.292 85.0784 126.412 84.7722C126.017 84.9572 125.862 85.1358 126.089 85.6015ZM122.154 98.665C122.196 98.6905 122.244 98.716 122.285 98.7415C122.447 98.4545 122.848 98.295 122.698 97.7656C122.489 98.1164 122.321 98.3907 122.154 98.665ZM124.558 93.2941C124.438 93.2431 124.355 93.1857 124.337 93.2048C124.265 93.275 124.211 93.3643 124.151 93.4536C124.211 93.4536 124.271 93.4727 124.325 93.4536C124.39 93.4281 124.444 93.3707 124.558 93.2941ZM103.616 79.9372C103.592 79.9372 103.568 79.9372 103.538 79.9308C103.538 80.0584 103.538 80.1859 103.538 80.3135C103.556 80.3135 103.574 80.3135 103.586 80.3135C103.598 80.1859 103.604 80.0584 103.616 79.9372ZM128.379 85.0529C128.325 85.0529 128.271 85.0529 128.218 85.0465C128.218 85.1358 128.212 85.2315 128.224 85.3208C128.224 85.3335 128.319 85.3463 128.325 85.3399C128.343 85.2506 128.361 85.1485 128.379 85.0529ZM121.64 100.087C121.46 100.024 121.406 99.9917 121.347 99.9854C121.311 99.979 121.245 100.017 121.245 100.036C121.245 100.087 121.263 100.177 121.293 100.189C121.335 100.202 121.394 100.158 121.64 100.087Z" fill="#FFF1EE"/>
<path d="M66.5636 53.2424C66.3244 53.0574 66.145 53.2169 65.9716 53.3764C65.9058 53.4338 65.858 53.5231 65.8281 53.606C65.6307 54.1035 65.5231 54.6712 65.2241 55.0859C64.9071 55.5324 64.8174 56.0044 64.7277 56.5083C64.7217 56.5529 64.7217 56.6231 64.6918 56.6423C64.2314 56.9548 64.1716 57.5098 64.0041 57.9818C63.6633 58.9514 63.1071 59.8189 62.8739 60.8458C62.6885 61.6751 62.3178 62.4532 62.0487 63.2633C61.9171 63.6652 61.8513 64.0926 61.7138 64.4944C61.2952 65.7255 61.044 67.0012 60.751 68.2706C60.7271 68.3854 60.6793 68.4939 60.6254 68.6661C60.464 68.6087 60.3085 68.5576 60.153 68.5066H60.159C60.3085 68.0091 60.4341 67.4988 60.6195 67.014C60.8048 66.5292 60.9364 66.0444 60.9603 65.515C60.9723 65.2471 61.1577 64.9983 61.2294 64.7304C61.5045 63.6588 61.7676 62.5872 62.0307 61.5092C62.5032 61.0882 62.2101 60.2207 62.862 59.8954C62.9277 59.8635 62.9517 59.6849 62.9696 59.5701C63.0294 59.1236 63.0772 58.6771 63.1311 58.205C63.3344 58.1094 63.5257 58.0137 63.7231 57.9244C63.4958 57.3375 63.753 56.8336 63.9623 56.3297C64.0819 56.0299 64.1955 55.7174 64.3749 55.4558C64.7397 54.9009 64.7576 54.161 65.236 53.6698C65.2839 53.6252 65.3138 53.555 65.3377 53.4912C65.84 52.005 66.6832 50.7292 67.4785 49.4152C67.7716 48.9368 68.1842 48.5414 68.3696 47.9673C68.4832 47.6164 68.7941 47.3294 69.0214 47.0232C69.6911 46.1302 70.331 45.2181 71.0426 44.3697C71.5569 43.7573 72.1669 43.2343 72.7409 42.6793C73.2612 42.1754 73.7575 41.6333 74.3256 41.1931C74.9894 40.6701 75.6771 40.1406 76.4186 39.777C77.8658 39.069 79.3309 38.3929 80.8917 38.0165C81.7648 37.806 82.6319 37.5445 83.5408 37.6147C84.0611 37.6529 84.5574 37.7486 84.9641 38.1377C85.0299 38.2015 85.1076 38.2653 85.1913 38.2781C86.2677 38.4758 87.0212 39.2795 87.8704 39.8982C88.57 40.4085 89.1262 41.091 89.7182 41.7225C90.0949 42.1244 90.382 42.59 90.7288 43.0046C91.0756 43.4193 91.3208 43.9806 91.56 44.4909C91.871 45.1543 92.0803 45.8814 92.2477 46.6022C92.463 47.5271 92.6065 48.4712 92.762 49.4152C92.9175 50.3784 93.079 51.348 93.1627 52.3175C93.3062 53.9632 93.4138 55.6089 93.4976 57.2546C93.5275 57.8989 93.4736 58.5431 93.4318 59.1873C93.3241 60.9798 93.2105 62.7658 93.0969 64.5518C93.0909 64.6475 93.1089 64.756 93.073 64.8389C92.6544 65.6809 92.8099 66.6058 92.7321 67.4924C92.6843 68.041 92.5707 68.564 92.4451 69.0934C92.2956 69.7313 92.3075 70.4074 92.2657 71.0708C92.2418 71.4663 92.1939 71.8363 91.859 72.0212C91.9188 72.3976 91.9667 72.7293 92.0265 73.0928C91.8291 73.1822 91.6737 73.2523 91.4345 73.3608C91.6258 73.4692 91.7454 73.533 91.8232 73.5713C91.7036 74.3558 91.5959 75.1277 91.4703 75.8931C91.3926 76.3779 91.3447 76.8627 91.1055 77.3283C90.9202 77.6791 90.9979 78.1703 90.9142 78.5913C90.8305 79.0251 90.681 79.4524 90.5853 79.8862C90.4597 80.4666 90.3461 81.0535 90.2504 81.6403C90.1488 82.2207 90.083 82.7821 89.8797 83.3562C89.485 84.4852 89.2577 85.678 88.9288 86.8325C88.57 88.0955 88.1993 89.3457 87.7986 90.5959C87.4637 91.6484 87.1707 92.7392 86.6863 93.7151C86.3933 94.3083 86.3335 94.9845 85.897 95.5394C85.5142 96.0242 85.4126 96.7514 85.1435 97.3446C84.8385 98.0207 84.4378 98.6586 84.1747 99.3539C83.9594 99.9216 83.6186 100.394 83.3495 100.917C83.0624 101.478 82.7754 102.033 82.4405 102.562C82.01 103.245 81.5854 103.94 81.0711 104.54C80.3954 105.331 79.8153 106.23 78.9781 106.868C78.6073 107.149 78.2964 107.506 77.9376 107.812C77.7642 107.959 77.5608 108.061 77.3755 108.188C77.208 108.303 77.0465 108.418 76.8851 108.546C76.7954 108.616 76.7356 108.756 76.6399 108.782C75.6592 109.037 74.8399 109.777 73.7336 109.726C72.43 109.662 71.1443 109.649 69.9303 109.069C69.8885 109.049 69.8466 109.03 69.8048 109.024C69.3383 108.947 68.8121 108.998 68.4234 108.775C68.0466 108.558 67.6819 108.31 67.2932 108.093C66.8925 107.869 66.5098 107.57 66.1689 107.251C65.3915 106.524 64.6679 105.733 64.0281 104.859C62.8141 103.213 61.6779 101.516 60.7929 99.6345C60.5238 99.0668 60.153 98.5502 60.0872 97.874C60.0633 97.6508 59.8122 97.4658 59.7464 97.2298C59.4534 96.1709 59.0587 95.1312 58.9929 94.0086C58.9869 93.8682 58.9929 93.6832 58.9211 93.5939C58.4188 92.9943 58.5683 92.248 58.5384 91.5591C58.4547 89.7922 58.3889 88.0253 58.3889 86.2584C58.3949 84.0897 58.4667 81.9209 58.5324 79.7586C58.5444 79.446 58.658 79.1399 58.7477 78.738C58.7417 78.7316 58.658 78.6232 58.6102 78.5594C59.0288 77.1369 58.9211 75.6443 59.268 74.19C59.6507 74.4005 59.549 74.6812 59.5191 74.9236C59.4115 75.8421 59.2979 76.7542 59.1962 77.6728C59.0049 79.3631 59.0826 81.0598 59.1245 82.7566C59.1424 83.6304 59.0467 84.5107 59.0288 85.391C59.0228 85.6908 59.0946 85.9969 59.2261 86.3223C59.2979 86.0671 59.4235 85.812 59.4354 85.5568C59.4653 84.6 59.4474 83.6432 59.4773 82.6864C59.5132 81.5701 59.573 80.4475 59.6268 79.3312C59.7882 79.2674 59.9078 79.2228 60.0274 79.1717C60.0215 79.1207 60.0155 79.0505 60.0035 79.0442C59.6926 78.974 59.6985 78.7316 59.7464 78.4892C59.86 77.9343 59.9736 77.3857 60.1171 76.8435C60.147 76.7159 60.2726 76.6139 60.3504 76.4991C60.3982 76.5118 60.452 76.531 60.4999 76.5437C60.5058 76.818 60.5597 77.0987 60.5118 77.3602C60.0813 79.6884 60.0633 82.0549 60.0095 84.4087C59.9497 86.8708 59.9856 89.3393 60.2188 91.7951C60.2786 92.3947 60.4161 92.9561 60.769 93.4727C60.6852 92.5351 60.5716 91.5974 60.5298 90.6534C60.4999 90.0027 60.446 89.3585 60.4161 88.7079C60.3922 88.0636 60.4221 87.4194 60.4281 86.7687C60.4341 86.099 60.3982 85.4292 60.4341 84.7659C60.5298 83.1712 60.6613 81.5829 60.7809 79.9946C60.8288 79.3759 60.8826 78.7571 60.9304 78.1384C60.9603 77.7557 61.0321 77.3921 61.3072 77.0923C61.4028 76.9902 61.4567 76.7734 61.4268 76.6394C61.1995 75.5168 61.3789 74.4388 61.648 73.3544C61.8274 72.6272 61.8693 71.8618 61.9949 71.1155C62.1623 70.0821 62.3537 69.0552 62.5331 68.0218C62.545 67.9517 62.5331 67.8624 62.5749 67.8113C63.1071 67.1097 62.9098 66.2103 63.143 65.4257C63.3703 64.6539 63.5317 63.8565 63.7769 63.0911C64.2613 61.5857 64.7756 60.0931 65.2839 58.6005C65.4812 58.0201 65.6486 57.4268 65.8998 56.8719C66.5636 55.4112 67.2632 53.9696 67.9509 52.5153C68.0586 52.292 68.1603 52.0624 68.1902 51.7945C67.2932 52.8916 66.7849 54.2375 66.1091 55.4686C65.4154 56.7316 64.9729 58.1157 64.4885 59.4808C64.0101 60.8203 63.6095 62.1917 63.0772 63.5185C62.8859 62.938 63.0473 62.4213 63.2148 61.9111C63.5317 60.9224 63.8726 59.94 64.1895 58.9513C64.4168 58.2497 64.6201 57.5353 64.8413 56.8336C64.8533 56.789 64.8653 56.738 64.8952 56.7061C65.2061 56.3106 65.4094 55.8896 65.5231 55.3665C65.6187 54.9009 65.8998 54.4799 66.1151 54.0461C66.2526 53.7655 66.432 53.5104 66.5875 53.2361C66.6473 53.0638 66.6772 52.8661 66.7789 52.7385C67.0001 52.4579 67.1018 52.1517 67.0898 51.7945C66.7191 52.2091 66.3244 52.5982 66.5636 53.2424ZM84.982 96.2794C85.2093 96.0242 85.5262 95.8265 85.5083 95.246C85.3528 95.4501 85.2571 95.5331 85.2093 95.6415C85.1196 95.852 85.0598 96.0752 84.994 96.3049C84.8624 96.5536 84.7309 96.8024 84.6053 97.0575C84.3302 97.6125 83.9714 98.1292 83.9714 98.7989C83.5229 98.9265 83.3973 99.2646 83.4511 99.7111C83.2299 100.138 82.7634 100.406 82.7575 100.968C82.6379 101.057 82.4764 101.121 82.3987 101.248C82.1475 101.657 81.9262 102.09 81.699 102.518C81.6392 102.626 81.5973 102.741 81.5435 102.856C81.5854 102.881 81.6213 102.907 81.6631 102.939C82.0279 102.409 82.4286 101.905 82.7036 101.306C82.7515 101.21 82.7276 101.076 82.7395 100.961C83.0624 101.012 83.1581 100.757 83.2359 100.515C83.3196 100.253 83.3674 99.9726 83.4272 99.6983C83.6903 99.4496 83.9834 99.2199 83.9475 98.7798C84.0372 98.6267 84.1508 98.48 84.2106 98.3078C84.3481 97.8932 84.7608 97.5679 84.5873 97.0448C84.994 96.9109 85.0119 96.8726 84.982 96.2794ZM80.4013 104.323C80.8857 104.355 81.0711 104.151 81.0591 103.768C80.9037 103.908 80.6525 104.119 80.4013 104.323C80.2997 104.508 80.198 104.686 80.0605 104.929C80.5389 104.871 80.4552 104.591 80.4013 104.323ZM80.3655 46.8446C80.8498 46.7872 80.9515 46.6788 81.107 46.0154C80.7183 46.1557 80.5568 46.5129 80.3834 46.851C80.2937 47.0041 80.192 47.1508 80.1143 47.3039C80.0126 47.508 79.7794 47.6611 79.8452 47.9099C79.9887 47.7823 80.1263 47.6611 80.2638 47.5399C80.4671 47.3421 80.5209 47.1125 80.3655 46.8446ZM73.3449 47.5654C73.6678 47.6802 73.8771 47.5526 74.0864 47.272C74.9177 46.1302 75.8147 45.0458 76.8253 44.0763C77.6984 43.2407 78.5595 42.3923 79.4146 41.5376C79.4984 41.4546 79.5163 41.3079 79.5641 41.1867C79.319 41.2505 79.2053 41.4036 79.0618 41.4929C78.2425 42.0223 77.513 42.6793 76.8372 43.4001C75.707 44.6121 74.4991 45.7539 73.7097 47.2784C73.6439 47.4059 73.4705 47.4634 73.3569 47.559C73.327 47.7249 73.2911 47.8907 73.2373 48.1714C73.5363 47.9099 73.4825 47.7376 73.3449 47.5654ZM85.58 43.2534C85.3049 43.1322 84.9641 43.2981 84.7189 43.5022C84.1388 43.987 83.3614 44.2166 82.9668 44.9565C82.9369 45.0139 82.8711 45.0522 82.8173 45.0905C82.0937 45.6008 81.6512 46.3918 81.1967 47.1381C80.8917 47.6356 80.515 48.0949 80.3057 48.6881C80.0844 49.3132 79.6239 49.8362 79.2651 50.4039C79.002 50.8185 78.715 51.2204 78.6671 51.7434C78.111 52.0751 78.0871 52.7704 77.7821 53.2743C77.2618 54.1418 76.921 55.1305 76.5084 56.0682C76.3888 56.3425 76.311 56.6423 76.1794 56.9165C75.9163 57.446 75.5575 57.9372 75.3602 58.4985C75.1569 59.0789 74.8878 59.6339 74.7143 60.2016C74.3496 61.4263 73.5542 62.4596 73.3987 63.7609C73.3868 63.8502 73.3389 63.9458 73.2791 64.016C72.7948 64.6028 72.8366 65.4193 72.4778 66.0636C72.2984 66.3825 72.2625 66.7844 72.1429 67.148C71.8798 67.9325 71.5569 68.698 71.3536 69.4953C71.1204 70.4138 70.5463 71.2175 70.5822 72.219C70.5822 72.2636 70.5523 72.3083 70.5283 72.3466C69.9363 73.112 69.9842 74.1198 69.6493 74.9937C69.2426 76.0653 69.0513 77.2326 68.6984 78.3361C68.4413 79.1462 68.1961 79.9436 68.1902 80.8175C68.1902 81.4107 68.1124 82.0039 68.0407 82.5971C67.9689 83.2094 67.8134 83.8154 67.7716 84.4278C67.6819 85.9076 67.5981 87.3875 67.5802 88.8673C67.5622 90.8256 67.5323 92.7966 67.6639 94.7485C67.7297 95.7882 67.5802 96.9045 68.1244 97.8868C68.1722 97.9761 68.1304 98.1228 68.1423 98.2376C68.2141 98.9712 68.1842 99.7494 68.3935 100.438C68.7762 101.669 69.0573 102.945 69.6313 104.106C69.8347 104.514 70.1038 104.648 70.5224 104.597C71.1084 104.521 71.6107 104.189 72.1071 103.927C72.5137 103.711 72.8067 103.239 73.333 103.226C73.3629 103.226 73.4107 103.162 73.4107 103.124C73.4645 102.588 73.9728 102.505 74.2479 102.192C75.0253 101.319 75.8685 100.515 76.4426 99.4495C76.927 98.5438 77.5728 97.7273 77.9675 96.7896C78.2306 96.1582 78.8106 95.6798 78.8106 94.9143C78.8106 94.825 78.8764 94.7357 78.9243 94.6592C79.1994 94.1553 79.5223 93.6705 79.7435 93.1411C80.198 92.0694 80.509 90.934 81.0352 89.8879C81.0591 89.8433 81.0831 89.7986 81.0831 89.754C81.0831 89.046 81.5495 88.5101 81.6811 87.8467C81.8186 87.1833 82.0877 86.5519 82.291 85.9012C82.5063 85.2123 82.7276 84.5171 82.9249 83.8218C83.0923 83.2349 83.2239 82.6354 83.3794 82.0421C83.4751 81.6786 83.5707 81.315 83.6844 80.9578C83.7382 80.7792 83.8996 80.6197 83.9056 80.4475C83.9475 79.529 84.2285 78.6806 84.5275 77.8259C84.683 77.3857 84.7129 76.8946 84.8206 76.4289C85.0777 75.3254 85.3588 74.2347 85.6099 73.1312C85.8013 72.2828 85.7594 71.3961 86.0823 70.5605C86.2677 70.0885 86.2976 69.5463 86.3694 69.0296C86.4232 68.6278 86.3335 68.1621 86.495 67.8304C86.782 67.2372 86.7401 66.6313 86.788 66.0253C86.8119 65.7383 86.8239 65.4512 86.8597 65.1705C87.0451 63.6333 87.2724 62.1024 87.4219 60.5588C87.5534 59.2256 87.6132 57.8861 87.685 56.5529C87.7209 55.8385 87.7388 55.1241 87.7268 54.4097C87.7149 53.9313 87.6072 53.4593 87.5953 52.9809C87.5534 51.1375 87.386 49.3132 87.0332 47.5016C86.9375 47.0168 86.8896 46.5193 86.77 46.0345C86.6146 45.4094 86.4172 44.8035 86.2318 44.1847C86.2199 44.1401 86.184 44.1081 86.1541 44.0699C85.9926 43.8275 85.8132 43.5724 85.58 43.2534ZM81.5435 92.6754C81.4718 92.6307 81.406 92.5797 81.3342 92.5351C81.3043 92.6308 81.2864 92.7264 81.2445 92.8157C80.8618 93.6769 80.4851 94.5443 80.0844 95.3927C79.6837 96.2411 79.2412 97.0639 78.8346 97.9059C78.2306 99.1625 77.6864 100.451 76.7655 101.497C76.4485 101.861 76.2153 102.307 75.8685 102.83C76.5382 102.677 76.7954 102.167 77.0465 101.803C77.8598 100.623 78.6492 99.3985 79.295 98.1036C80.0724 96.5536 80.7003 94.9143 81.388 93.3069C81.4777 93.1155 81.4957 92.8859 81.5435 92.6754ZM59.1065 87.2791C59.0467 87.3939 58.975 87.464 58.9869 87.5087C59.1783 88.2996 59.1424 89.097 59.0467 89.8943C59.0049 90.2132 59.0826 90.4748 59.3696 90.6597C59.4593 89.5371 59.5012 88.4336 59.1065 87.2791ZM82.3688 44.6376C81.6631 45.2563 81.6631 45.2563 81.6392 45.6263C81.8485 45.2627 82.2432 45.1989 82.3688 44.6376ZM59.6567 91.9163C59.567 91.642 59.4713 91.3678 59.3517 91.0106C59.0587 91.54 59.4474 91.7122 59.6567 91.9163ZM60.2188 94.8442C60.1112 94.7485 60.0035 94.6464 59.8839 94.5571C59.8779 94.5507 59.7763 94.6464 59.7763 94.6911C59.7763 94.9271 59.9078 95.01 60.2188 94.8442ZM67.6938 50.2445C67.933 50.3338 68.1124 50.3338 68.1603 49.8873C67.933 50.0531 67.8134 50.1488 67.6938 50.2445ZM81.2445 98.1993C81.2983 98.2057 81.3522 98.2121 81.406 98.2121C81.406 98.0973 81.406 97.9761 81.4 97.8613C81.4 97.8549 81.2864 97.8549 81.2864 97.8613C81.2684 97.9697 81.2565 98.0845 81.2445 98.1993ZM67.4726 51.1821C67.4367 51.1502 67.4127 51.1247 67.3828 51.1056C67.3709 51.1247 67.347 51.1439 67.347 51.1566C67.3529 51.1949 67.3769 51.2268 67.3888 51.265C67.4187 51.2331 67.4427 51.2076 67.4726 51.1821ZM86.1242 93.8619C86.0764 93.7917 86.0405 93.7406 86.0046 93.6896C85.9687 93.7343 85.9029 93.7789 85.897 93.8235C85.891 93.8746 85.9508 93.932 85.9747 93.983C86.0225 93.9511 86.0704 93.9129 86.1242 93.8619ZM80.802 102.486C80.7781 102.454 80.7601 102.422 80.7362 102.396C80.7183 102.428 80.6884 102.46 80.6764 102.492C80.6704 102.505 80.7063 102.543 80.7063 102.543C80.7422 102.53 80.7721 102.505 80.802 102.486ZM79.618 105.369C79.594 105.433 79.5701 105.497 79.5522 105.554C79.5821 105.56 79.6239 105.579 79.6419 105.567C79.6718 105.541 79.7017 105.497 79.7017 105.458C79.7017 105.439 79.6538 105.407 79.618 105.369Z" fill="#FFF1EE"/>
<path d="M60.4708 73.7496C61.0629 70.3945 61.6788 67.0393 62.7373 63.6841C62.9885 64.0477 62.9466 64.322 62.8748 64.5963C62.6356 65.5148 62.3725 66.4333 62.1632 67.3582C61.9778 68.1619 61.8582 68.9784 61.7087 69.7949C61.6968 69.865 61.7087 69.948 61.6848 70.0054C61.3379 70.8537 61.3678 71.7786 61.1825 72.6589C61.1167 72.9842 61.015 73.3031 60.9014 73.6157C60.8655 73.7177 60.728 73.7751 60.6383 73.8517C60.5844 73.8198 60.5306 73.7879 60.4708 73.7496Z" fill="#FFF1EE"/>
<path d="M60.4397 74.2089C60.5234 74.2025 60.5832 74.1834 60.649 74.1898C60.6908 74.1898 60.7267 74.228 60.8164 74.2727C60.7207 74.9231 60.9658 75.682 60.2903 76.2942C59.9256 75.4907 60.5832 74.8912 60.4397 74.2089Z" fill="#FFF1EE"/>
<path d="M59.5127 72.4164C59.5306 72.0465 59.5486 71.6766 59.5725 71.2812C60.0269 71.4343 60.0568 71.7276 59.973 72.0784C59.9073 72.359 59.7817 72.4993 59.5007 72.4036L59.5127 72.4164Z" fill="#FFF1EE"/>
<path d="M60.1537 68.5132C60.1955 68.5961 60.2254 68.6918 60.2792 68.7619C60.6378 69.2019 60.59 69.6483 60.321 70.1075C60.2672 70.1968 60.1955 70.2797 60.1357 70.3626L60.1537 70.3817C60.1597 69.7631 60.1597 69.1445 60.1656 68.5196C60.1597 68.5132 60.1537 68.5132 60.1537 68.5132Z" fill="#FFF1EE"/>
<path d="M122.865 97.7142L122.877 97.7333C123.135 97.5292 123.254 97.2487 123.296 96.9171L123.278 96.9489C123.463 96.6556 123.649 96.3558 123.834 96.0625L123.816 96.0753C124.055 96.2793 123.936 96.5025 123.822 96.7002C123.619 97.051 123.404 97.4017 123.164 97.7333C123.129 97.7779 122.967 97.7206 122.865 97.7142Z" fill="#FFF1EE"/>
<path d="M126.268 90.7232C126.465 91.2589 126.351 91.6096 125.771 92.1262C125.777 91.5395 126.19 91.1824 126.28 90.7104C126.286 90.7104 126.268 90.7232 126.268 90.7232Z" fill="#FFF1EE"/>
<path d="M125.09 93.0072C125.27 92.8478 125.449 92.6884 125.658 92.4971C125.598 93.0901 125.592 93.0838 125.264 93.3771C125.21 93.2432 125.156 93.1156 125.102 92.9945L125.09 93.0072Z" fill="#FFF1EE"/>
<path d="M124.479 94.5062C124.557 94.4871 124.641 94.4616 124.772 94.4297C124.677 94.7358 124.599 95.0164 124.491 95.2779C124.467 95.3289 124.312 95.3225 124.222 95.3416L124.234 95.3608C124.276 95.2141 124.324 95.061 124.366 94.9144C124.408 94.7677 124.455 94.6274 124.503 94.4807L124.479 94.5062Z" fill="#FFF1EE"/>
<path d="M60.1354 70.3628C60.1354 70.4074 60.1354 70.4584 60.1354 70.5031C60.1294 70.6561 60.1712 70.8602 59.9381 70.8475C59.8783 70.8475 59.7766 70.7454 59.7647 70.6753C59.7288 70.4776 59.8364 70.3756 60.0218 70.3692C60.0636 70.3692 60.1055 70.3755 60.1533 70.3819L60.1354 70.3628Z" fill="#FFF1EE"/>
<path d="M59.5016 72.4102C59.5673 72.5951 59.6331 72.78 59.7467 73.0861C59.5075 72.9777 59.382 72.9203 59.2206 72.8502C59.3342 72.6908 59.4298 72.5568 59.5195 72.4229C59.5135 72.4165 59.5016 72.4102 59.5016 72.4102Z" fill="#FFF1EE"/>
</g>
</svg>
