<svg width="21" height="12" viewBox="0 0 21 12" fill="none" xmlns="http://www.w3.org/2000/svg">
<path d="M20.5386 10.6394C20.5131 10.5847 20.4912 10.5409 20.4681 10.5056C20.1093 9.86098 19.4245 9.06917 18.415 8.13017L18.3931 8.10706L18.3821 8.09733L18.3712 8.08639H18.3614C17.9017 7.64851 17.611 7.35538 17.4893 7.20456C17.2668 6.91873 17.2157 6.62681 17.3385 6.33368C17.4237 6.1111 17.7472 5.64282 18.3067 4.92519C18.6011 4.5457 18.8346 4.24163 19.0061 4.01174C20.2455 2.36364 20.7831 1.3091 20.6177 0.850551L20.5544 0.743516C20.5119 0.679051 20.4 0.619452 20.2212 0.565934C20.0424 0.512417 19.8125 0.502686 19.534 0.539175L16.4372 0.561069C16.3874 0.544041 16.3144 0.544041 16.2232 0.565934C16.1295 0.587828 16.0833 0.598775 16.0833 0.598775L16.0286 0.625533L15.986 0.658374C15.9507 0.679051 15.9106 0.716757 15.868 0.770274C15.8254 0.823792 15.7889 0.88704 15.761 0.958803C15.424 1.82603 15.0397 2.63245 14.6103 3.37683C14.344 3.822 14.1007 4.20757 13.8781 4.53233C13.6555 4.85951 13.4694 5.09913 13.3186 5.2536C13.169 5.40685 13.0328 5.53213 12.9111 5.62336C12.7883 5.71701 12.6959 5.75593 12.6314 5.74255C12.5681 5.72796 12.5061 5.71336 12.4502 5.69877C12.3492 5.6343 12.2689 5.54673 12.2081 5.43604C12.1461 5.32536 12.1059 5.18548 12.0841 5.01642C12.0622 4.84735 12.05 4.70261 12.0463 4.58098C12.0439 4.45935 12.0451 4.28663 12.0524 4.06526C12.0585 3.84268 12.0634 3.69185 12.0634 3.61401C12.0634 3.34156 12.0682 3.04599 12.0792 2.72732C12.0901 2.40865 12.0999 2.15565 12.1059 1.96956C12.112 1.78346 12.1169 1.58642 12.1169 1.37843C12.1169 1.17166 12.1035 1.00867 12.0792 0.889473C12.0549 0.771491 12.0159 0.657157 11.9661 0.545257C11.915 0.434572 11.8408 0.348214 11.7435 0.287399C11.6474 0.226583 11.5282 0.17793 11.3847 0.141441C11.004 0.055083 10.5211 0.00886348 9.93362 0.00156561C8.59932 -0.0130301 7.74304 0.0745442 7.36355 0.259423C7.21394 0.3397 7.0765 0.446736 6.95487 0.582963C6.82716 0.741083 6.80891 0.827441 6.90135 0.84082C7.33193 0.905285 7.636 1.05976 7.81602 1.30302L7.88048 1.43195C7.93035 1.52439 7.98144 1.68981 8.03009 1.92577C8.08117 2.16295 8.1128 2.42446 8.12739 2.71151C8.16267 3.23452 8.16267 3.68212 8.12739 4.05553C8.09212 4.42772 8.05806 4.71842 8.02522 4.92519C7.9936 5.13318 7.94495 5.30225 7.88048 5.43118C7.81602 5.56011 7.77223 5.63917 7.75155 5.66836C7.72966 5.69633 7.71141 5.71458 7.69804 5.72188C7.60438 5.75837 7.50707 5.77539 7.40734 5.77539C7.3076 5.77539 7.18597 5.72553 7.04244 5.62457C6.89892 5.52362 6.74931 5.38618 6.59606 5.21103C6.44159 5.03588 6.26765 4.79018 6.07426 4.47394C5.87965 4.15892 5.68017 3.78673 5.47219 3.35615L5.29947 3.04478C5.19243 2.84408 5.04526 2.55217 4.85916 2.16782C4.67307 1.78468 4.50765 1.4137 4.36413 1.05489C4.30818 0.905285 4.22182 0.790952 4.10627 0.711891L4.05397 0.679051C4.01626 0.651076 3.95909 0.620668 3.88125 0.587828C3.80219 0.556203 3.7207 0.531878 3.63312 0.518498L0.688432 0.539175C0.386787 0.539175 0.182447 0.607289 0.0754114 0.742299L0.0316241 0.80798C0.0109468 0.844469 0 0.901636 0 0.980696C0 1.05976 0.0218937 1.15706 0.0644646 1.27139C0.495039 2.28215 0.962102 3.25641 1.46687 4.19541C1.97286 5.1344 2.41073 5.89094 2.78292 6.46383C3.15633 7.03793 3.53582 7.57797 3.9226 8.08639C4.31061 8.5948 4.56603 8.92199 4.69131 9.06552C4.81781 9.21026 4.91633 9.31608 4.98809 9.38906L5.25568 9.6457C5.4284 9.81963 5.68139 10.0252 6.01466 10.2648C6.34793 10.5044 6.71769 10.7416 7.1215 10.9739C7.52654 11.2062 7.99846 11.3972 8.53607 11.5444C9.07368 11.6915 9.59791 11.7511 10.1063 11.7207H11.3433C11.5951 11.7013 11.7836 11.621 11.9138 11.486L11.9551 11.4337C11.9831 11.3887 12.0111 11.3242 12.0354 11.2342C12.0597 11.1442 12.0731 11.0469 12.0731 10.9374C12.0658 10.6309 12.0889 10.3536 12.1437 10.1055C12.1972 9.85855 12.258 9.67246 12.3249 9.54596C12.3942 9.42068 12.4696 9.31486 12.5572 9.2285C12.6411 9.14336 12.7032 9.09106 12.7384 9.0716C12.7737 9.05457 12.8029 9.04362 12.8236 9.03511C12.9963 8.97794 13.1982 9.03389 13.4317 9.20296C13.664 9.37203 13.8818 9.5788 14.0873 9.82693C14.2917 10.0738 14.5374 10.3524 14.822 10.6601C15.1102 10.969 15.3596 11.1965 15.5749 11.3485L15.7902 11.4762C15.9337 11.5614 16.1198 11.6404 16.3497 11.7134C16.5783 11.7852 16.7802 11.801 16.9505 11.7657L19.703 11.7232C19.9767 11.7232 20.1871 11.6782 20.3379 11.5881C20.4888 11.4981 20.5763 11.4008 20.6067 11.2938C20.6347 11.1868 20.6359 11.0651 20.6116 10.9277C20.5885 10.789 20.563 10.6942 20.5386 10.6394Z" fill="#3F3F3F"/>
</svg>
