<svg width="20" height="19" viewBox="0 0 20 19" fill="none" xmlns="http://www.w3.org/2000/svg">
<path d="M9.93145 4.38232C6.98134 4.38232 4.58057 6.67872 4.58057 9.50056C4.58057 12.3224 6.98134 14.6176 9.93145 14.6176C12.8816 14.6176 15.2811 12.3224 15.2811 9.50056C15.2811 6.67872 12.8816 4.38232 9.93145 4.38232ZM9.93145 13.1592C7.82187 13.1592 6.10648 11.5172 6.10648 9.50056C6.10648 7.4827 7.82187 5.8419 9.93145 5.8419C12.0398 5.8419 13.7564 7.4827 13.7564 9.50056C13.7551 11.5172 12.0398 13.1592 9.93145 13.1592Z" fill="#3F3F3F"/>
<path d="M15.8644 4.87745C16.2542 4.87745 16.5702 4.57522 16.5702 4.2024C16.5702 3.82958 16.2542 3.52734 15.8644 3.52734C15.4747 3.52734 15.1587 3.82958 15.1587 4.2024C15.1587 4.57522 15.4747 4.87745 15.8644 4.87745Z" fill="#3F3F3F"/>
<path d="M15.2592 0H4.60191C2.05999 0 0 1.97164 0 4.40305V14.597C0 17.0284 2.06126 19 4.60191 19H15.2592C17.8011 19 19.8624 17.0284 19.8624 14.597V4.40426C19.8624 1.97164 17.8011 0 15.2592 0ZM18.3364 14.597C18.3364 16.2195 16.9555 17.5404 15.2592 17.5404H4.60191C2.9056 17.5404 1.52592 16.2195 1.52592 14.597V4.40426C1.52592 2.7817 2.9056 1.46079 4.60191 1.46079H15.2592C16.9555 1.46079 18.3364 2.78049 18.3364 4.40426V14.597Z" fill="#3F3F3F"/>
</svg>
